<?xml version="1.0" standalone="no"?>
<!DOCTYPE svg PUBLIC "-//W3C//DTD SVG 20010904//EN"
 "http://www.w3.org/TR/2001/REC-SVG-20010904/DTD/svg10.dtd">
<svg version="1.0" xmlns="http://www.w3.org/2000/svg"
 width="1024.000000pt" height="1024.000000pt" viewBox="0 0 1024.000000 1024.000000"
 preserveAspectRatio="xMidYMid meet">
<metadata>
Created by potrace 1.16, written by Peter Selinger 2001-2019
</metadata>
<g transform="translate(0.000000,1024.000000) scale(0.100000,-0.100000)"
fill="#000000" stroke="none">
<path d="M7900 7539 c-67 -32 -186 -77 -223 -84 -20 -4 -37 -11 -37 -16 0 -5
-11 -9 -25 -9 -14 0 -25 -4 -25 -10 0 -5 -11 -10 -24 -10 -14 0 -28 -4 -31
-10 -3 -5 -17 -10 -30 -10 -30 0 -38 -13 -39 -63 -1 -39 -2 -39 -66 -64 -36
-14 -80 -27 -97 -30 -18 -3 -33 -9 -33 -13 0 -4 -20 -13 -44 -19 -25 -6 -48
-15 -51 -21 -3 -5 -18 -10 -33 -10 -15 0 -47 -11 -71 -25 -23 -14 -52 -25 -63
-25 -11 0 -36 -7 -56 -16 -114 -49 -98 -48 -149 -9 -25 19 -52 35 -59 35 -8 0
-14 5 -14 12 0 6 -7 4 -18 -5 -10 -10 -28 -17 -39 -17 -11 0 -26 -7 -33 -15
-7 -8 -21 -15 -30 -15 -10 0 -33 -8 -52 -17 -60 -30 -68 -33 -82 -33 -7 0 -19
-6 -25 -14 -6 -7 -30 -16 -52 -20 -23 -4 -58 -15 -79 -26 -53 -27 -55 -44 -36
-317 4 -55 -2 -63 -50 -63 -28 0 -29 3 -8 36 20 30 14 37 -51 54 -27 8 -56 20
-63 27 -7 7 -22 13 -33 13 -19 0 -20 -6 -19 -77 2 -131 2 -133 -19 -133 -11 0
-23 -4 -26 -10 -3 -5 -15 -10 -26 -10 -11 0 -37 -9 -59 -20 -50 -26 -60 -25
-60 3 0 13 -8 31 -17 39 -24 19 -132 48 -183 48 l-40 0 -1 -42 c-3 -74 3 -133
12 -136 5 -2 9 -8 9 -13 0 -6 -4 -7 -10 -4 -5 3 -28 -3 -52 -15 -23 -11 -53
-20 -67 -20 -14 0 -35 -7 -45 -15 -11 -8 -30 -15 -43 -15 -13 0 -23 -4 -23 -8
0 -5 -26 -15 -57 -22 -32 -7 -64 -16 -72 -20 -16 -9 -105 13 -127 30 -8 7 -14
9 -14 5 0 -5 -8 1 -17 11 -10 11 -25 19 -33 18 -27 -2 -60 -16 -60 -25 0 -5
-7 -9 -15 -9 -8 0 -15 5 -15 10 0 6 -8 10 -17 9 -11 0 -13 -3 -5 -6 22 -9 13
-21 -20 -28 -18 -4 -47 -16 -64 -26 -17 -10 -40 -19 -52 -19 -11 0 -22 -7 -26
-15 -3 -8 -14 -15 -25 -15 -11 0 -23 -4 -26 -10 -3 -5 -20 -10 -36 -10 -17 0
-32 -6 -35 -15 -4 -8 -17 -15 -30 -15 -13 0 -24 -4 -24 -10 0 -5 -7 -10 -15
-10 -12 0 -15 -19 -15 -115 0 -76 -4 -115 -11 -115 -16 0 -48 -42 -49 -62 0
-10 -4 -18 -10 -18 -5 0 -10 -17 -11 -37 0 -31 -2 -34 -9 -18 -5 11 -9 32 -9
47 -1 15 -6 39 -12 55 -10 26 -12 26 -19 8 -9 -24 -3 -127 8 -135 4 -3 13 -13
21 -23 13 -16 12 -17 -12 -8 -14 6 -34 15 -45 22 -24 15 -88 4 -96 -17 -4 -11
-2 -15 8 -11 8 3 17 -1 20 -9 6 -16 -29 -20 -39 -4 -3 5 -20 14 -38 19 -25 8
-26 10 -7 8 14 -1 30 3 35 10 6 7 22 14 37 17 42 7 54 17 34 28 -11 6 -22 6
-30 -1 -7 -6 -15 -8 -18 -5 -4 3 -20 -2 -37 -10 -39 -21 -62 -21 -54 -1 3 9 8
14 11 11 2 -3 23 5 46 17 23 13 55 22 74 21 36 -2 42 10 11 26 -29 16 -96 3
-114 -23 -8 -11 -17 -18 -21 -15 -11 12 7 47 27 53 10 4 19 11 19 16 0 5 9 9
19 9 10 0 21 7 25 15 4 12 -3 15 -35 15 -26 0 -42 -5 -45 -15 -4 -8 -12 -15
-19 -15 -7 0 -15 -17 -19 -37 -16 -96 -42 -80 -38 23 2 45 -1 74 -7 74 -18 0
-31 -36 -33 -93 -2 -43 2 -61 16 -76 16 -18 17 -21 3 -21 -9 0 -28 5 -43 10
-19 8 -30 8 -38 0 -5 -5 -18 -10 -27 -10 -10 0 -19 -6 -21 -12 -4 -10 -10 -10
-32 0 -29 13 -66 8 -66 -9 0 -5 -5 -9 -11 -9 -7 0 -18 -8 -24 -17 -13 -17 -14
-17 -32 0 -11 9 -25 17 -31 17 -7 0 -12 16 -12 40 0 36 -2 40 -25 40 -14 0
-25 5 -25 10 0 6 -13 10 -29 10 -17 0 -33 -4 -36 -10 -3 -5 1 -10 9 -10 14 0
16 -32 17 -262 1 -145 3 -275 5 -290 1 -16 1 -28 -1 -28 -2 0 -24 9 -48 19
-26 11 -60 18 -77 16 l-32 -4 4 102 3 102 -60 11 c-98 17 -125 33 -127 74 l-1
35 -4 -33 c-4 -30 -7 -33 -26 -27 -12 3 -41 11 -64 15 -24 5 -64 21 -90 35
-57 30 -54 29 -101 8 -20 -9 -41 -17 -47 -18 -5 -1 -23 -7 -38 -13 -16 -7 -34
-12 -41 -12 -7 0 -16 -3 -20 -7 -3 -4 -14 -8 -22 -9 -9 -1 -39 -14 -67 -28
-29 -13 -69 -28 -89 -31 -21 -4 -38 -11 -38 -15 0 -4 -25 -12 -55 -19 -30 -7
-57 -16 -60 -21 -6 -9 -51 -32 -88 -44 -12 -4 -17 -2 -15 6 3 7 17 14 31 16
15 2 27 7 27 12 0 5 7 7 16 3 12 -4 15 -2 12 8 -11 33 -93 21 -110 -16 -6 -14
-16 -25 -21 -25 -15 0 -67 -58 -67 -74 0 -7 -6 -19 -14 -25 -11 -10 -15 -8
-19 6 -3 12 -5 8 -6 -9 -2 -42 -21 -33 -22 10 -1 20 -1 43 0 50 1 8 -3 20 -10
28 -6 8 -7 14 -2 14 5 0 9 25 9 55 -1 30 -4 55 -8 55 -5 0 -8 7 -8 15 0 9 -6
12 -15 9 -8 -4 -15 -1 -15 5 0 21 -28 11 -32 -13 -4 -19 -1 -22 14 -18 16 4
18 -3 18 -62 0 -54 -3 -64 -15 -60 -8 4 -15 12 -15 20 0 8 -8 14 -17 14 -10 0
-29 12 -42 25 -23 25 -41 32 -41 17 0 -4 -13 -13 -30 -20 -44 -20 -39 -42 10
-42 22 0 40 -4 40 -10 0 -5 8 -10 19 -10 10 0 21 -8 24 -17 2 -10 8 -26 12
-35 5 -13 2 -15 -13 -11 -10 2 -39 -1 -63 -8 -24 -7 -52 -11 -62 -10 -13 2
-17 -5 -17 -28 0 -32 16 -41 37 -20 16 16 32 3 26 -21 -5 -17 0 -20 28 -20 18
0 41 7 51 17 10 9 21 13 25 9 8 -7 -34 -45 -50 -46 -4 0 -13 -5 -20 -10 -7 -6
-20 -16 -30 -23 -13 -9 -19 -27 -20 -57 -2 -54 13 -68 25 -22 5 17 12 32 17
32 4 0 13 11 19 25 13 28 37 33 46 9 9 -22 8 -22 -16 -26 -26 -3 -35 -32 -37
-113 -1 -49 -2 -51 -38 -64 -21 -8 -44 -16 -51 -18 -9 -4 -12 20 -12 100 l0
104 -38 7 c-21 3 -52 13 -70 21 -57 29 -94 29 -127 1 -28 -24 -29 -25 -8 -26
12 0 27 -8 32 -17 9 -15 11 -12 12 17 l1 35 10 -32 c7 -21 7 -40 0 -60 -9 -25
-11 -25 -11 -5 -2 43 -21 21 -21 -24 0 -43 -2 -46 -22 -41 -13 3 -50 11 -83
17 -76 16 -88 27 -47 42 18 7 32 16 32 20 0 4 6 8 14 8 18 0 65 39 48 40 -19
0 -55 -20 -65 -36 -4 -8 -15 -14 -24 -14 -9 0 -25 -8 -35 -17 -16 -14 -24 -15
-51 -6 -18 7 -53 14 -78 17 -26 4 -61 13 -78 22 -30 15 -35 15 -83 -5 -63 -26
-89 -26 -162 0 -55 19 -116 19 -116 0 0 -6 -30 -22 -155 -83 -46 -22 -58 -36
-53 -68 5 -31 5 -32 -31 -25 -20 4 -41 11 -48 16 -7 7 -14 6 -20 -4 -4 -7 -15
-16 -24 -19 -14 -5 -16 -1 -12 28 8 60 -2 81 -39 82 -29 1 -31 -1 -15 -12 9
-8 15 -20 13 -27 -6 -15 -13 -55 -26 -138 -5 -29 -13 -58 -18 -63 -13 -13 -25
71 -12 87 5 6 8 14 6 16 -6 7 -18 82 -17 113 0 28 -24 64 -36 52 -3 -3 -5 -30
-3 -58 1 -29 3 -61 3 -70 1 -10 5 -18 9 -18 4 0 8 -7 8 -15 0 -9 -9 -15 -25
-15 -15 0 -25 6 -25 15 0 17 -65 50 -93 47 -47 -3 -39 -65 8 -69 16 -1 33 -9
37 -18 5 -8 16 -15 23 -15 8 0 15 -6 15 -14 0 -8 12 -16 27 -18 33 -4 43 -26
11 -24 -13 0 -26 4 -29 9 -7 10 -149 11 -159 1 -16 -17 -16 -84 0 -84 6 0 10
6 10 14 0 20 25 37 44 30 21 -8 20 -30 -1 -46 -36 -26 -46 -47 -33 -63 18 -21
30 -19 30 6 0 12 8 23 20 26 11 3 18 9 15 13 -3 4 2 13 10 20 13 11 15 8 15
-18 0 -17 -5 -32 -12 -34 -8 -3 -9 -6 -1 -11 13 -8 63 37 63 58 0 8 5 15 11
15 7 0 18 8 25 18 12 14 13 15 8 1 -3 -10 -1 -20 5 -24 7 -3 11 -42 11 -91 l0
-86 -72 6 c-40 3 -80 6 -88 6 -28 2 -75 -13 -83 -26 -4 -8 -13 -14 -20 -14 -7
0 -24 -6 -38 -14 -14 -7 -42 -16 -61 -20 -61 -11 -66 -28 -68 -242 -3 -278 -1
-347 11 -355 8 -4 7 -8 -2 -11 -12 -4 -14 -69 -12 -373 2 -203 5 -378 8 -389
6 -19 4 -19 -15 3 -19 23 -20 23 -17 3 2 -12 6 -25 10 -28 4 -4 7 -14 6 -23 0
-12 -3 -11 -9 4 -7 17 -9 17 -9 3 -1 -26 -19 -22 -23 5 -2 12 -10 22 -18 22
-11 0 -14 -9 -12 -35 2 -19 0 -31 -5 -27 -4 5 -8 12 -8 16 0 4 -8 15 -17 25
-16 15 -18 15 -18 2 0 -9 -7 -16 -15 -16 -8 0 -15 5 -15 10 0 6 -4 10 -10 10
-5 0 -10 -7 -10 -15 0 -9 -9 -15 -25 -15 -21 0 -25 -5 -25 -30 0 -30 13 -36
70 -32 8 1 41 2 73 4 32 1 63 8 69 15 6 7 16 13 23 13 7 0 15 11 19 24 3 12 6
330 6 704 l1 681 37 7 c20 4 43 13 50 21 7 7 25 16 40 20 14 3 41 16 59 29 57
39 71 18 64 -98 -3 -35 -1 -38 24 -38 15 0 49 11 77 25 27 14 58 25 68 25 10
0 22 5 25 10 3 6 22 10 41 10 19 0 34 4 34 8 0 5 25 15 55 22 30 7 55 17 55
21 0 5 18 12 41 15 22 4 46 13 54 20 7 8 22 14 33 14 11 0 40 11 63 25 24 14
57 25 72 25 16 0 35 7 43 15 9 8 24 15 35 15 11 0 22 7 25 15 4 10 19 15 43
15 l37 0 2 -317 c1 -175 6 -397 12 -493 9 -175 11 -712 2 -655 -4 26 -5 28
-12 10 -8 -19 -9 -19 -9 3 -1 35 -21 26 -22 -10 l-1 -33 -7 30 c-4 18 -9 25
-14 18 -4 -6 -4 -18 -1 -27 3 -9 2 -16 -4 -16 -6 0 -13 6 -15 13 -3 6 -6 1 -6
-12 -1 -20 -3 -21 -16 -11 -12 10 -15 9 -15 -5 0 -11 -5 -15 -15 -11 -9 3 -24
-3 -35 -14 -20 -20 -20 -20 -21 3 0 21 -1 21 -9 2 -8 -18 -9 -17 -9 8 -1 40
-21 33 -21 -8 0 -29 -4 -35 -17 -33 -10 2 -21 10 -25 18 -5 11 -7 9 -7 -7 -1
-14 -7 -23 -16 -23 -8 0 -15 -4 -15 -10 0 -5 -4 -10 -10 -10 -5 0 -10 7 -10
15 0 9 -6 12 -15 9 -10 -4 -15 0 -15 14 0 36 -20 35 -21 0 -2 -32 -2 -32 -9 7
-5 30 -8 34 -10 15 -2 -24 -3 -24 -10 5 l-7 30 -7 -27 c-9 -32 -22 -36 -29
-11 -4 14 -5 12 -6 -4 0 -13 -5 -23 -10 -23 -5 0 -7 9 -4 20 3 11 0 20 -6 20
-6 0 -11 -12 -12 -27 0 -16 -3 -22 -6 -15 -7 18 -23 15 -24 -5 0 -12 -2 -13
-6 -5 -4 10 -9 9 -24 -4 -15 -13 -19 -14 -19 -3 0 11 -2 11 -10 -1 -8 -13 -10
-12 -10 3 0 9 -4 17 -10 17 -5 0 -10 -9 -10 -20 0 -23 -28 -27 -36 -5 -4 8
-10 15 -15 15 -4 0 -6 -7 -3 -15 4 -8 1 -15 -5 -15 -6 0 -12 19 -13 43 l-1 42
-4 -37 c-2 -21 -8 -38 -12 -38 -4 0 -6 22 -3 49 2 30 0 51 -7 55 -7 4 -11 -1
-11 -12 0 -11 -7 -22 -15 -26 -8 -3 -15 -17 -15 -30 0 -19 -4 -24 -15 -20 -11
4 -13 2 -9 -9 4 -12 -2 -15 -30 -14 -31 1 -36 4 -36 24 0 25 -15 31 -24 11 -3
-7 -3 -1 0 15 4 16 2 27 -5 27 -6 0 -11 -17 -11 -40 0 -22 -4 -40 -10 -40 -5
0 -7 6 -4 14 3 8 1 17 -5 21 -6 3 -11 15 -11 26 0 10 -4 19 -10 19 -5 0 -10
-19 -10 -41 0 -39 -2 -41 -25 -37 -18 4 -25 1 -26 -11 0 -10 -2 -12 -6 -3 -2
6 -11 12 -19 12 -8 0 -14 9 -14 20 0 28 -20 25 -22 -2 0 -13 -4 -3 -8 22 l-7
45 -1 -52 c-2 -52 2 -58 35 -54 7 1 13 -3 13 -9 0 -7 20 -10 53 -10 28 1 72
-1 97 -5 97 -14 213 -17 206 -6 -4 6 -22 11 -39 12 l-32 1 33 10 c25 9 46 7
100 -9 72 -22 112 -20 71 3 -13 7 -34 13 -46 14 -13 0 -23 4 -23 9 0 11 93 13
100 2 3 -4 27 -11 54 -14 39 -6 47 -4 43 7 -4 11 18 15 109 21 63 4 114 11
114 16 0 5 12 9 28 10 24 0 25 1 7 9 -18 8 -17 9 8 9 15 1 27 5 27 9 0 5 6 9
13 10 6 0 29 4 49 8 32 5 38 4 38 -11 0 -9 13 -22 30 -28 17 -6 30 -17 30 -24
0 -7 7 -13 15 -13 8 0 15 9 15 19 0 10 7 21 15 25 16 6 70 -10 100 -31 11 -7
41 -13 67 -13 27 0 48 -4 48 -10 0 -15 38 -12 43 3 3 9 8 9 21 -2 9 -8 32 -16
49 -17 18 -2 64 -10 102 -18 71 -15 214 -22 201 -9 -8 8 -17 10 -136 23 -52 6
-104 15 -115 20 -11 5 -33 11 -50 13 -16 3 -8 3 18 2 58 -3 49 14 -12 22 -42
6 -57 23 -20 23 20 0 21 4 16 55 -4 35 -2 55 5 55 7 0 6 5 -2 15 -14 17 -4 38
13 29 7 -4 2 3 -10 15 -21 20 -22 24 -8 45 8 12 12 25 9 29 -3 3 -8 26 -10 50
-2 25 -5 57 -8 73 -3 15 0 34 6 41 7 9 7 13 -1 13 -6 0 -11 5 -11 10 0 19 20
10 49 -22 19 -21 25 -35 18 -40 -7 -4 -6 -12 4 -24 13 -16 12 -17 -4 -11 -10
4 -21 7 -23 7 -2 0 -4 7 -4 15 0 8 -5 15 -10 15 -14 0 2 -29 32 -57 l23 -22 1
55 c0 32 -4 54 -10 54 -17 0 -41 43 -27 48 15 5 14 19 -3 25 -10 4 -13 1 -9
-9 3 -7 0 -14 -6 -14 -6 0 -9 16 -7 40 3 32 -1 44 -17 55 -19 13 -19 15 -3 40
11 17 14 30 8 38 -5 7 -10 27 -10 45 -1 27 3 33 16 28 12 -4 10 -1 -4 9 -15
11 -19 23 -16 45 2 16 8 27 13 24 5 -3 9 0 9 5 0 6 -4 11 -9 11 -5 0 -12 7
-15 16 -5 12 -2 15 11 10 15 -6 16 -5 6 5 -7 7 -13 20 -13 28 0 10 10 5 30
-14 30 -28 42 -63 18 -49 -7 4 -2 -5 11 -19 14 -15 27 -24 30 -21 3 3 -3 12
-13 20 -17 12 -18 14 -3 14 21 0 22 19 2 26 -22 9 -19 38 3 30 15 -5 15 -4 2
6 -8 7 -21 21 -29 31 -13 17 -12 18 15 11 l29 -7 -28 25 c-15 14 -27 29 -27
34 0 4 5 3 12 -4 7 -7 18 -12 25 -12 7 0 -5 18 -27 40 -22 22 -44 40 -49 40
-7 0 -8 34 -2 69 1 2 8 -2 16 -9 23 -19 18 -3 -6 19 -12 11 -19 26 -16 34 3 8
0 20 -6 26 -8 8 -8 11 1 11 8 0 10 9 6 25 -8 34 3 31 37 -7 29 -34 31 -50 2
-27 -15 13 -15 12 1 -13 18 -27 46 -45 46 -29 0 5 -6 12 -12 14 -10 4 -10 6 0
6 15 1 16 31 1 31 -19 0 -81 73 -68 81 14 9 3 29 -17 29 -8 0 -14 5 -14 10 0
13 6 13 33 -1 23 -13 58 -52 51 -58 -2 -2 -12 2 -21 10 -10 7 -7 1 6 -14 25
-27 54 -39 32 -13 -9 11 -9 15 1 19 10 4 10 6 1 6 -7 1 -13 7 -13 14 0 6 -20
25 -45 40 -48 31 -51 37 -35 68 13 23 26 24 46 5 22 -22 18 -39 -6 -26 -11 6
-20 8 -20 5 0 -9 63 -65 73 -65 6 0 -1 9 -14 21 -18 16 -20 22 -10 28 8 5 11
13 7 19 -3 6 0 12 6 15 14 5 -38 67 -56 67 -6 0 2 -11 17 -25 38 -36 34 -49
-7 -22 -27 18 -32 26 -24 40 5 9 6 22 3 27 -3 6 -1 10 5 10 7 0 8 6 1 18 -11
20 -10 40 3 61 7 11 4 13 -10 9 -14 -3 -20 0 -20 11 0 30 43 24 67 -10 11 -16
18 -33 14 -37 -4 -4 -13 1 -20 12 -13 17 -14 17 -13 -5 1 -13 6 -30 12 -37 7
-9 6 -16 -3 -21 -9 -6 -6 -15 13 -37 14 -16 26 -23 26 -16 0 7 -7 15 -15 18
-21 9 -19 27 6 42 15 10 18 16 10 26 -7 9 -7 16 1 24 8 8 5 17 -13 32 -21 19
-21 21 -4 15 16 -5 18 -4 7 6 -17 18 -15 29 6 30 9 0 12 3 6 5 -9 4 -9 11 0
29 14 30 36 33 36 4 0 -33 34 -19 40 16 6 33 31 41 36 12 1 -11 5 -22 9 -25 9
-10 23 18 18 37 -4 18 32 45 47 36 6 -4 10 -15 10 -26 0 -30 24 -17 28 14 4
33 42 39 42 7 0 -11 7 -20 15 -20 10 0 15 10 15 29 0 17 6 31 16 35 26 10 34
7 34 -15 0 -14 5 -19 18 -17 10 2 16 11 14 21 -3 19 20 47 38 47 6 0 10 -8 9
-17 -1 -10 -1 -24 0 -32 2 -23 31 8 31 34 0 16 7 24 25 27 21 4 25 1 25 -18 0
-15 6 -24 15 -24 10 0 15 10 15 34 0 22 6 36 16 40 27 10 34 7 34 -19 0 -29
18 -34 26 -7 22 67 50 82 56 30 2 -18 3 -111 3 -205 0 -95 2 -173 5 -173 3 0
7 -310 9 -690 2 -489 -1 -690 -8 -690 -6 0 -11 -13 -11 -30 0 -16 -4 -30 -10
-30 -5 0 -10 15 -10 34 0 19 -5 38 -10 41 -7 4 -9 -2 -4 -19 3 -14 3 -34 -2
-43 -6 -14 -9 -11 -14 17 l-7 35 -2 -32 c-2 -50 -21 -39 -21 11 0 65 -20 69
-21 4 -1 -47 -2 -49 -8 -18 -5 28 -8 31 -14 17 -4 -10 -7 -28 -7 -39 0 -20 -2
-19 -23 5 -28 33 -37 34 -37 3 0 -16 -7 -26 -22 -30 -13 -3 -24 -1 -26 4 -5
15 -52 12 -52 -2 0 -9 -4 -8 -11 2 -8 11 -12 12 -16 3 -2 -7 -8 -13 -13 -13
-9 0 -8 19 3 37 8 13 -6 27 -17 16 -3 -3 -6 -17 -6 -30 0 -27 -16 -31 -23 -5
-4 16 -5 16 -6 0 -2 -31 -21 -19 -21 12 0 20 -5 30 -15 30 -8 0 -15 5 -15 10
0 6 -4 10 -10 10 -5 0 -10 -15 -10 -34 0 -22 -6 -36 -16 -40 -22 -9 -24 -8
-25 12 -1 11 -4 9 -9 -8 -5 -17 -8 -19 -9 -7 -1 22 -18 22 -24 0 -4 -14 -5
-12 -6 5 0 12 -6 22 -12 22 -5 0 -8 -4 -4 -9 8 -14 -36 -18 -62 -6 -13 5 -23
17 -24 25 0 10 -3 8 -9 -5 -7 -16 -9 -13 -9 18 -1 38 -21 54 -21 16 0 -14 -5
-19 -14 -16 -9 4 -16 -3 -19 -19 -3 -20 1 -25 22 -30 14 -3 37 -11 50 -17 16
-8 102 -12 270 -12 224 0 316 8 374 30 13 5 17 2 17 -14 0 -18 6 -21 40 -21
40 0 52 14 31 36 -5 5 -11 27 -14 49 -4 39 -4 39 -5 -8 -1 -27 -6 -46 -11 -43
-5 4 -9 274 -9 652 0 532 -2 648 -13 655 -10 6 -11 11 -3 17 14 9 18 111 4
127 -6 7 -11 165 -13 424 l-4 412 25 20 c14 10 35 19 48 19 12 0 26 5 29 10 3
6 16 10 27 10 11 0 35 8 52 19 17 10 49 22 71 26 22 4 47 12 55 20 8 7 33 16
54 19 22 4 67 20 100 36 34 16 78 32 99 35 l37 7 0 -205 c0 -155 3 -207 13
-210 9 -4 9 -6 0 -6 -16 -1 -18 -78 -3 -83 7 -2 11 -78 10 -215 0 -117 0 -216
-1 -220 -1 -5 0 -10 1 -13 9 -16 6 -387 -2 -397 -7 -9 -7 -13 0 -13 7 0 12
-80 14 -232 2 -174 6 -232 16 -236 15 -5 16 -44 0 -60 -12 -12 -13 -36 -17
-251 -1 -69 -3 -82 -16 -77 -12 4 -15 -4 -15 -44 0 -28 5 -50 10 -50 7 0 9 16
7 40 -2 22 0 40 5 40 9 0 11 -152 2 -199 -4 -17 -13 -31 -20 -31 -16 0 -16 2
-20 95 -3 96 -3 95 -15 95 -8 0 -9 -25 -5 -82 4 -51 3 -89 -4 -98 -8 -12 -10
-9 -10 13 0 15 -4 27 -9 27 -5 0 -12 -12 -14 -27 -3 -23 -4 -21 -6 10 -1 47
-21 49 -21 2 0 -19 -5 -35 -11 -35 -8 0 -9 15 -5 45 5 29 4 45 -3 45 -10 0
-15 -28 -15 -82 0 -9 -3 -15 -8 -12 -4 3 -8 23 -8 45 0 29 -4 39 -16 39 -9 0
-14 8 -13 18 3 29 -1 42 -11 42 -6 0 -10 -31 -10 -72 0 -54 -3 -69 -11 -58 -8
11 -12 12 -16 3 -8 -22 -33 -14 -34 10 0 21 -1 21 -9 2 -6 -15 -9 -8 -9 29 -1
38 -4 47 -16 42 -11 -4 -15 2 -15 20 0 43 -25 21 -30 -27 -3 -24 -9 -43 -15
-41 -5 1 -11 -9 -13 -23 -4 -34 -22 -32 -23 3 l-1 27 -8 -30 c-7 -26 -8 -22
-9 23 0 29 -6 52 -12 52 -6 0 -8 -9 -4 -20 4 -11 3 -35 -2 -53 -7 -27 -9 -20
-14 48 l-5 80 -2 -93 c-2 -70 -5 -93 -14 -90 -7 3 -16 18 -19 34 -6 25 -7 23
-8 -15 -1 -38 1 -42 17 -35 25 12 322 17 322 6 0 -5 52 -8 125 -7 90 2 132 -2
151 -11 33 -17 34 -17 34 0 0 20 18 30 33 19 23 -17 116 -45 134 -40 19 4 17
6 -31 21 -10 4 -16 9 -13 12 3 3 34 -5 70 -17 62 -21 97 -21 97 1 0 5 -18 10
-39 10 -22 0 -43 5 -46 10 -3 6 -21 10 -38 10 -18 0 -41 7 -51 15 -11 8 -28
15 -37 15 -10 0 -20 4 -23 8 -2 4 20 3 50 -2 30 -6 54 -14 54 -19 0 -5 7 -4
15 3 15 12 55 5 55 -11 0 -5 7 -9 15 -9 24 0 17 19 -10 26 -14 3 -25 13 -25
22 0 13 2 13 18 -1 10 -10 27 -17 38 -17 11 0 25 -5 32 -12 7 -7 12 -8 12 -2
0 5 4 3 9 -5 11 -18 119 -32 143 -20 9 5 142 9 294 9 220 0 281 3 293 14 19
16 140 31 124 15 -6 -6 -17 -11 -24 -12 -8 -2 -18 -5 -24 -8 -16 -10 -133 -27
-218 -33 -140 -10 -121 -24 33 -24 133 -1 147 1 167 20 15 14 40 22 75 25 29
3 60 7 68 11 27 11 54 14 144 19 68 3 87 2 84 -8 -2 -7 -29 -18 -59 -25 -92
-20 -179 -48 -179 -56 0 -12 58 -10 65 2 3 6 31 10 60 10 39 0 67 7 99 25 25
14 51 25 59 25 8 0 17 7 21 15 3 8 12 15 19 15 8 0 20 7 27 15 9 11 16 12 25
5 9 -8 15 -8 20 0 4 6 12 10 18 9 33 -4 47 2 47 22 0 17 -3 19 -14 10 -12 -10
-14 1 -14 66 -1 104 0 103 -13 103 -7 0 -8 -14 -4 -40 6 -34 4 -39 -9 -34 -11
4 -16 0 -16 -12 0 -9 -3 -14 -7 -11 -3 4 -6 23 -5 42 1 25 -3 35 -13 35 -12 0
-15 -18 -16 -87 -2 -77 -3 -81 -8 -36 -8 69 -21 79 -21 17 0 -27 -5 -56 -10
-64 -7 -10 -10 11 -10 68 0 96 -19 114 -22 20 -1 -50 -2 -54 -5 -20 -6 63 -23
51 -23 -17 0 -33 -3 -62 -7 -64 -5 -3 -6 19 -5 49 3 34 0 54 -7 54 -7 0 -11
-20 -11 -49 0 -56 -19 -81 -21 -29 -2 30 -2 31 -6 6 -5 -35 -23 -37 -23 -2 0
16 -5 24 -12 21 -7 -2 -13 -14 -12 -26 0 -11 -5 -21 -11 -21 -9 0 -11 14 -7
46 3 34 2 45 -7 40 -6 -4 -11 -25 -11 -47 0 -28 -4 -39 -15 -39 -10 0 -15 10
-15 28 l-1 27 -14 -30 c-14 -32 -15 -30 -19 37 -2 33 -13 45 -27 31 -6 -6 -6
-19 -1 -34 5 -13 6 -33 1 -44 -6 -15 -8 -12 -8 18 -1 20 -6 37 -11 37 -6 0
-10 -6 -9 -12 4 -34 -2 -58 -15 -58 -8 0 -17 -8 -19 -17 -3 -10 -3 1 0 25 4
28 2 42 -6 42 -6 0 -11 -12 -12 -27 0 -27 -1 -27 -9 -5 -5 12 -7 29 -4 37 4 8
1 15 -5 15 -6 0 -11 -16 -11 -35 0 -19 -4 -35 -10 -35 -5 0 -10 11 -10 25 0
34 -18 32 -23 -2 -3 -23 -4 -21 -6 10 0 20 -6 37 -12 37 -5 0 -9 -8 -8 -17 3
-24 -11 -73 -21 -73 -5 0 -11 8 -13 18 -4 13 -5 11 -6 -5 -1 -25 -21 -32 -21
-8 0 21 -28 19 -33 -2 -3 -11 -5 -7 -6 10 0 15 -5 27 -11 27 -5 0 -9 -10 -7
-21 1 -12 -4 -24 -10 -26 -8 -3 -13 4 -13 16 0 28 -17 27 -23 -1 -2 -13 -5 -4
-6 20 -1 46 -14 55 -26 20 -7 -19 -9 -16 -15 22 -8 54 -10 52 -15 -19 -5 -66
-15 -80 -15 -21 0 24 -3 40 -7 37 -3 -4 -6 -23 -5 -42 1 -19 -3 -35 -8 -35 -6
0 -10 11 -10 25 0 14 -4 25 -10 25 -5 0 -10 -11 -10 -25 0 -29 -16 -34 -23 -7
-4 16 -5 16 -6 0 -2 -26 -29 -22 -34 5 l-4 22 -2 -22 c0 -13 -5 -23 -10 -23
-5 0 -11 10 -14 23 -4 22 -4 22 -15 -3 -7 -17 -11 -20 -11 -8 -1 20 -41 21
-41 1 0 -19 -18 -16 -23 5 -4 16 -5 16 -6 0 -1 -25 -31 -23 -31 2 0 11 -4 20
-10 20 -5 0 -10 -11 -10 -25 0 -16 -6 -25 -16 -25 -11 0 -14 8 -12 27 2 15 -2
28 -9 30 -9 3 -13 -6 -13 -27 0 -21 -4 -30 -12 -27 -8 2 -12 19 -11 45 2 23
-1 42 -6 42 -5 0 -9 -21 -9 -46 0 -26 -5 -51 -11 -57 -8 -8 -12 14 -13 79 -1
57 -3 70 -5 34 -4 -73 -12 -120 -21 -120 -4 0 -8 14 -9 30 -1 17 1 30 6 30 4
0 8 14 9 30 0 20 -4 30 -14 30 -10 0 -14 -14 -14 -54 0 -30 -4 -58 -10 -61 -6
-4 -10 7 -10 24 0 17 -4 31 -10 31 -5 0 -10 -7 -10 -15 0 -8 -4 -15 -10 -15
-5 0 -10 12 -10 26 0 14 4 23 9 20 5 -4 4 5 -2 18 -7 14 -15 20 -18 14 -4 -7
-9 -6 -13 1 -4 6 -10 9 -14 7 -4 -2 -8 20 -8 50 -2 53 -8 73 -20 62 -3 -4 -6
-43 -7 -87 -2 -61 -5 -81 -16 -81 -11 0 -13 15 -9 75 3 41 1 72 -4 69 -4 -3
-8 -24 -9 -47 0 -23 -5 -51 -10 -62 l-9 -20 1 20 c3 49 -2 76 -11 70 -5 -3
-10 -18 -10 -33 0 -21 -2 -24 -10 -12 -5 8 -8 33 -6 55 3 34 2 37 -7 18 -18
-41 -30 -26 -24 32 4 43 2 55 -8 55 -23 0 -29 22 -10 37 18 13 18 13 0 13 -18
0 -18 1 1 21 16 17 16 22 4 30 -13 8 -13 10 0 19 13 9 13 11 1 19 -8 5 -20 7
-28 4 -7 -3 -13 1 -13 10 0 10 8 13 27 9 27 -5 27 -4 10 15 -9 11 -17 23 -17
27 0 16 -48 66 -52 54 -3 -9 -6 -9 -11 -1 -4 6 0 13 8 17 9 3 24 -8 41 -29 26
-34 44 -45 44 -25 0 6 -7 10 -15 10 -8 0 -15 7 -15 15 0 8 7 15 16 15 8 0 12
5 9 11 -4 6 -14 8 -22 5 -8 -4 -23 4 -34 16 -10 14 -18 18 -19 10 0 -14 -20
-7 -20 7 0 15 39 6 52 -11 12 -15 15 -16 33 -2 19 14 19 16 3 25 -22 12 -23
29 -4 29 9 0 14 9 14 23 -2 29 -16 47 -33 41 -7 -3 -15 -2 -18 3 -3 4 6 9 20
9 33 3 41 13 20 28 -9 7 -17 16 -17 19 0 3 -11 18 -25 33 -14 15 -25 21 -25
13 0 -10 -2 -11 -12 0 -18 17 -18 83 0 69 8 -7 12 -7 12 3 0 8 6 5 14 -7 10
-13 11 -21 4 -25 -15 -9 29 -69 50 -69 12 0 11 4 -7 21 -15 14 -21 29 -17 43
6 24 -16 58 -36 55 -27 -3 -36 1 -41 22 -5 20 -5 20 14 3 17 -15 19 -15 19 -1
0 9 -6 20 -14 24 -7 4 -17 19 -20 33 -7 23 -6 22 12 -5 31 -48 89 -111 97
-104 3 4 -6 20 -20 35 -15 16 -34 37 -42 46 -9 10 -14 20 -11 23 2 3 15 -6 28
-20 13 -14 30 -25 39 -25 12 0 11 4 -5 19 -10 10 -28 29 -38 42 -13 16 -21 19
-24 11 -3 -10 -9 -9 -23 4 -21 19 -25 34 -9 34 6 0 10 -7 10 -15 0 -8 5 -15
10 -15 14 0 13 7 -6 35 -9 13 -14 30 -11 37 4 8 6 6 6 -4 1 -10 6 -18 11 -18
17 0 11 26 -10 45 -11 10 -20 23 -20 29 0 6 7 3 14 -6 7 -10 16 -18 20 -18 13
0 5 24 -15 41 -17 15 -19 22 -10 33 6 7 8 22 5 32 -7 18 -6 18 12 1 16 -14 16
-19 5 -26 -7 -5 -10 -14 -6 -21 6 -9 10 -9 17 1 7 10 8 9 4 -5 -4 -10 1 -30
10 -43 8 -14 13 -27 10 -31 -3 -3 -6 0 -6 6 0 7 -4 12 -10 12 -18 0 -11 -20
15 -44 14 -13 25 -29 25 -36 0 -8 -10 -4 -25 10 -20 19 -25 20 -25 7 0 -9 11
-24 24 -32 13 -9 26 -25 29 -35 10 -39 27 -20 27 29 0 39 -4 51 -17 54 -17 4
-17 5 0 6 13 1 17 10 17 41 0 22 -3 40 -7 40 -12 0 -73 60 -73 70 0 5 7 7 15
4 8 -4 15 -1 15 5 0 6 -4 11 -10 11 -5 0 -10 7 -10 15 0 8 5 15 10 15 6 0 10
-5 10 -10 0 -18 37 -52 44 -41 4 6 -10 28 -31 50 -21 21 -43 47 -50 58 -11 17
-12 17 -12 1 -1 -10 4 -18 9 -18 6 0 10 -7 10 -15 0 -24 -16 -17 -29 12 -9 20
-10 28 -1 31 7 3 5 11 -6 23 -9 10 -12 19 -6 19 6 0 16 -8 21 -17 9 -16 12
-16 21 -3 8 12 10 10 8 -9 -2 -13 3 -26 11 -29 10 -3 12 0 8 12 -4 10 -3 15 3
11 5 -3 18 3 29 14 17 17 18 21 5 32 -12 9 -12 14 -3 20 10 6 10 11 0 23 -11
14 -11 16 4 16 17 0 17 1 -1 21 -14 15 -15 22 -6 28 19 11 -41 73 -62 65 -16
-6 -46 17 -46 35 0 16 20 13 26 -4 7 -18 26 -20 23 -2 -1 6 -1 20 0 31 1 16 3
17 17 5 15 -12 15 -14 0 -19 -15 -5 -15 -7 -1 -28 9 -12 26 -22 38 -22 13 0
17 3 11 8 -15 10 -24 120 -10 125 8 3 8 8 0 18 -6 9 -9 68 -8 158 2 140 2 144
-22 166 -13 12 -24 27 -24 33 0 6 -6 13 -12 15 -10 4 -10 8 2 16 8 5 18 7 22
5 5 -3 15 2 24 10 8 9 22 16 30 16 8 0 25 6 37 14 12 7 43 16 69 20 27 3 59 8
73 12 25 6 25 5 25 -55 0 -61 6 -71 27 -50 22 22 43 2 43 -41 0 -27 4 -40 14
-40 23 0 39 28 33 60 -6 26 -2 32 23 45 16 8 31 15 35 15 3 0 5 -20 5 -45 0
-25 3 -45 8 -45 24 1 37 23 37 62 0 39 2 43 28 46 28 3 32 -4 27 -55 -1 -18 4
-23 24 -23 25 0 26 3 26 53 0 29 -5 58 -12 65 -9 9 -9 12 0 12 7 0 12 -4 12
-10 0 -5 14 -10 30 -10 30 0 30 -1 24 -40 -6 -36 -5 -40 15 -40 17 0 21 6 21
36 0 40 18 64 49 64 17 0 21 -6 21 -35 0 -27 4 -35 18 -35 13 0 17 10 19 46 2
53 -1 49 38 58 23 5 27 4 15 -4 -11 -9 -12 -13 -2 -17 13 -5 17 -33 4 -33 -13
0 -10 -29 3 -34 21 -8 30 8 30 54 l0 45 43 3 c25 2 42 -1 42 -7 0 -6 -7 -11
-15 -11 -10 0 -15 -10 -15 -30 0 -19 5 -30 14 -30 22 0 31 20 31 65 0 36 3 40
28 43 28 3 39 -21 15 -32 -10 -5 -10 -7 0 -12 6 -3 12 -15 12 -26 0 -39 25
-11 28 33 3 45 14 59 45 59 16 0 18 -5 12 -39 -4 -26 -2 -41 5 -46 16 -10 29
12 23 36 -14 52 30 97 63 65 8 -9 11 -16 5 -16 -6 0 -11 -13 -11 -29 0 -20 6
-30 19 -34 27 -7 31 0 31 55 0 47 1 48 31 48 30 0 30 -1 27 -42 -3 -38 0 -43
19 -46 19 -3 21 1 20 48 -2 35 2 54 13 60 29 18 39 10 42 -32 4 -60 22 -53 26
9 3 46 6 54 27 59 36 9 47 -3 39 -43 -5 -24 -3 -38 7 -43 22 -14 29 -1 29 51
0 36 4 49 14 49 8 0 21 2 29 5 11 5 14 -4 13 -37 -1 -37 2 -43 21 -46 20 -3
22 2 25 50 3 49 5 53 29 56 26 3 27 1 25 -45 -1 -37 3 -48 16 -51 14 -3 17 6
20 54 2 32 8 59 13 61 7 2 10 -367 10 -1095 0 -603 -1 -1078 -3 -1054 -6 78
-22 43 -22 -48 0 -58 -4 -90 -11 -90 -7 0 -9 16 -4 50 5 34 3 50 -4 50 -7 0
-11 -25 -11 -65 0 -66 10 -81 38 -53 9 9 12 2 12 -35 0 -31 4 -47 13 -48 57
-2 92 -11 99 -24 9 -15 48 -21 48 -7 0 4 -14 13 -31 19 -18 7 -28 16 -24 23 5
8 12 7 24 -4 10 -9 36 -16 60 -16 28 0 44 -5 47 -15 7 -17 84 -22 84 -5 0 6
-9 10 -21 10 -11 0 -18 4 -15 9 8 12 97 1 123 -15 25 -16 63 -19 63 -5 0 5 -8
12 -17 14 -10 3 -2 5 17 6 l35 1 -29 15 c-15 8 -52 15 -82 15 -43 0 -56 4 -68
22 -15 22 -12 43 5 33 5 -4 9 -1 9 4 0 6 -4 11 -10 11 -5 0 -10 20 -10 45 0
25 -4 45 -10 45 -6 0 -10 -30 -10 -69 0 -39 -4 -73 -10 -76 -6 -4 -10 12 -10
39 0 25 -4 46 -10 46 -5 0 -10 23 -10 50 0 28 -4 50 -10 50 -6 0 -10 -32 -10
-75 0 -49 4 -75 11 -75 6 0 9 9 6 20 -3 11 -1 18 4 14 12 -7 11 -71 -1 -79 -5
-3 -10 3 -10 14 0 12 -5 21 -10 21 -6 0 -8 -11 -4 -26 5 -20 4 -25 -5 -19 -7
4 -12 21 -11 39 3 48 1 66 -8 66 -4 0 -7 -20 -6 -45 1 -25 -2 -48 -7 -51 -5
-3 -9 22 -9 55 0 80 -18 79 -23 -1 -2 -51 -4 -45 -5 30 -2 78 -5 92 -18 92
-14 0 -16 -8 -11 -52 5 -38 4 -49 -4 -38 -9 13 -10 13 -8 0 3 -34 -2 -70 -10
-70 -5 0 -8 8 -6 18 1 9 -2 22 -7 29 -11 14 -7 45 7 55 6 4 2 8 -7 8 -15 0
-18 -10 -18 -65 0 -36 -4 -65 -9 -65 -5 0 -6 21 -3 47 4 37 2 45 -9 41 -12 -5
-14 203 -13 1425 1 1383 1 1430 19 1443 10 8 28 14 40 14 11 0 36 8 55 19 19
10 60 24 90 31 30 7 77 23 103 36 27 13 59 24 72 24 13 0 27 5 30 10 3 6 24
10 46 10 26 0 42 5 45 15 4 8 18 15 33 15 15 0 32 5 39 12 12 12 91 38 125 41
9 1 17 6 17 11 0 6 6 4 14 -4 16 -16 19 -193 13 -743 -3 -203 -1 -240 12 -247
12 -6 12 -11 3 -22 -10 -13 -13 -239 -13 -935 1 -63 5 -110 13 -122 9 -15 9
-23 0 -34 -9 -11 -12 -119 -11 -431 0 -268 -3 -421 -10 -429 -5 -7 -8 -26 -6
-42 4 -33 7 -113 6 -132 -1 -7 -5 -13 -11 -13 -6 0 -10 34 -10 82 0 45 -3 78
-7 74 -5 -4 -8 -40 -8 -78 0 -45 -4 -73 -12 -75 -6 -2 -13 4 -16 14 -3 11 -5
8 -6 -10 -2 -44 -21 -21 -23 26 l-1 42 -7 -50 -7 -50 -1 58 c-1 33 -6 57 -13
57 -6 0 -10 -16 -8 -37 3 -55 0 -73 -11 -73 -5 0 -10 18 -10 40 0 23 -5 40
-11 40 -7 0 -10 -12 -7 -30 3 -16 1 -30 -4 -30 -4 0 -8 7 -8 15 0 8 -5 15 -11
15 -5 0 -7 -4 -4 -10 3 -5 1 -10 -4 -10 -7 0 -11 27 -11 70 0 67 -14 95 -23
48 -3 -17 -5 -14 -6 10 -1 34 -21 46 -21 11 0 -11 -4 -17 -10 -14 -6 4 -10 -5
-10 -19 0 -29 16 -35 23 -8 3 9 5 -12 6 -47 1 -58 0 -62 -16 -50 -9 8 -19 13
-22 11 -3 -1 -5 9 -6 22 0 13 -3 28 -7 32 -5 4 -8 -9 -8 -29 0 -21 -4 -37 -10
-37 -5 0 -10 11 -10 25 0 14 -4 25 -10 25 -5 0 -10 -11 -10 -25 0 -14 -4 -25
-10 -25 -5 0 -10 15 -10 34 0 21 -6 36 -16 40 -8 3 -13 10 -9 15 3 5 1 12 -5
16 -6 4 -10 -16 -10 -54 0 -48 -3 -61 -15 -61 -8 0 -15 -7 -15 -15 0 -32 36
-10 43 25 4 25 4 25 6 -2 1 -28 2 -28 74 -29 39 0 81 -3 92 -6 11 -3 38 -7 60
-10 22 -2 49 -8 60 -13 27 -13 135 -29 135 -20 0 4 -10 12 -22 18 -21 11 -19
11 14 8 25 -2 38 1 42 11 3 8 2 11 -3 8 -6 -3 -9 7 -9 23 1 35 22 38 37 5 6
-13 19 -23 28 -23 10 0 25 -5 33 -11 11 -8 4 -9 -27 -5 -34 5 -43 3 -43 -9 0
-10 14 -17 40 -21 22 -4 45 -13 51 -20 17 -21 42 -18 37 4 -4 15 -1 18 18 14
32 -6 54 -32 28 -33 -18 0 -18 -1 1 -9 28 -12 37 -12 30 0 -3 6 3 10 14 10 29
0 26 18 -4 26 -30 7 -55 34 -32 34 8 0 20 -7 27 -15 7 -8 22 -15 34 -15 12 0
30 -6 41 -13 11 -8 48 -19 82 -26 35 -7 79 -19 98 -26 19 -8 42 -15 52 -14 10
0 -9 11 -42 24 -39 16 -52 24 -36 24 16 1 21 5 17 16 -7 20 37 20 54 0 7 -8
25 -15 41 -15 34 0 122 -22 129 -32 16 -21 148 -59 157 -45 5 9 83 5 176 -10
24 -4 37 -2 37 6 0 7 -21 11 -55 11 -37 0 -55 4 -55 13 0 8 -4 7 -10 -3 -6
-10 -10 -11 -10 -2 0 8 -17 12 -50 12 -27 0 -50 -4 -50 -10 0 -5 -7 -10 -15
-10 -18 0 -20 16 -2 23 6 3 -2 6 -20 6 -17 1 -35 6 -38 11 -7 12 -7 12 105 15
111 3 172 14 167 28 -3 7 -9 11 -14 10 -6 -1 -8 9 -5 22 2 15 0 25 -7 25 -6 0
-11 -13 -11 -29 0 -17 -4 -33 -10 -36 -6 -4 -10 17 -10 54 0 34 -4 61 -10 61
-6 0 -10 -27 -10 -61 0 -44 -3 -60 -12 -56 -10 3 -13 33 -12 110 1 59 -3 107
-7 107 -5 0 -9 -50 -9 -111 0 -84 -3 -110 -12 -107 -7 3 -16 22 -19 44 l-6 39
-2 -42 c0 -24 -5 -43 -11 -43 -10 0 -14 13 -11 42 1 9 -3 19 -9 23 -6 4 -10
-7 -10 -28 0 -31 -3 -34 -30 -35 l-30 -1 0 67 c0 43 -3 62 -9 53 -5 -8 -7 -38
-4 -68 4 -37 2 -53 -6 -53 -6 0 -14 6 -17 13 -2 7 -20 13 -42 13 -37 0 -37 0
-43 49 l-6 50 -1 -57 c-3 -92 -22 -81 -23 14 -1 46 -4 72 -6 58 -3 -14 -10
-28 -16 -32 -7 -4 -6 -12 3 -23 11 -13 11 -18 1 -25 -9 -5 -10 -9 -2 -14 6 -4
9 -12 5 -17 -13 -22 -22 5 -21 65 0 38 4 63 10 59 5 -3 4 3 -1 14 -7 12 -7 25
-1 36 7 11 7 17 0 17 -5 0 -9 23 -9 50 1 28 6 50 12 50 6 0 5 5 -2 12 -17 17
-15 38 3 38 11 0 4 15 -21 50 -20 28 -38 50 -40 50 -11 0 -2 -21 21 -48 26
-31 32 -52 15 -52 -5 0 -10 7 -10 15 0 8 -4 15 -9 15 -5 0 -13 10 -17 22 -3
12 -17 32 -30 45 -13 13 -31 37 -39 53 -9 17 -19 30 -24 30 -4 0 -13 11 -19
24 -8 19 -8 26 1 29 9 3 7 14 -7 38 l-19 34 32 -34 c17 -19 31 -39 31 -45 0
-6 -4 -4 -10 4 -8 12 -10 12 -15 -3 -5 -10 3 -29 19 -49 15 -18 35 -43 44 -55
9 -12 20 -22 25 -23 15 -1 6 21 -23 50 -35 36 -37 40 -10 33 14 -4 20 0 20 11
0 19 20 22 20 4 1 -21 67 -90 75 -79 3 6 3 11 -2 11 -9 0 -47 62 -45 73 1 4
-2 7 -7 7 -5 0 -11 7 -14 14 -4 10 -1 13 9 9 8 -3 17 -16 20 -29 3 -13 13 -24
20 -24 12 0 12 4 4 20 -8 16 -8 20 4 20 13 0 13 5 -2 31 -13 23 -14 33 -5 36
14 5 2 31 -29 67 -10 11 -18 23 -18 27 0 4 -18 29 -40 55 -22 27 -40 57 -40
66 0 10 -7 18 -15 18 -9 0 -18 8 -22 18 -3 9 -12 24 -20 34 -9 10 -11 18 -4
22 6 4 17 -6 25 -22 8 -16 22 -35 32 -43 15 -13 16 -12 9 11 -4 14 -15 30 -24
37 -15 11 -15 12 1 13 9 0 19 -6 21 -12 3 -7 4 5 2 27 -2 22 -4 48 -4 58 -1 9
-7 17 -15 17 -7 0 -16 8 -19 18 -4 9 -14 27 -23 39 -13 18 -13 23 -3 23 8 -1
27 -22 43 -48 33 -52 97 -135 109 -140 4 -2 7 -12 7 -21 0 -22 35 -55 49 -47
5 4 -8 25 -29 49 -22 23 -40 46 -40 51 0 8 -61 91 -94 129 -24 26 -19 43 5 21
22 -19 22 -19 15 6 l-7 25 21 -28 c12 -15 26 -24 31 -21 5 3 -4 21 -21 40 -16
19 -30 41 -30 49 0 8 -7 15 -15 15 -8 0 -15 -4 -15 -9 0 -5 7 -11 15 -15 8 -3
15 -12 15 -21 0 -8 -7 -15 -15 -15 -8 0 -15 8 -15 19 0 10 -9 30 -20 44 -22
28 -25 37 -11 37 5 0 13 -10 17 -22 6 -21 7 -21 14 -4 6 17 7 17 22 2 12 -12
18 -13 21 -3 3 9 8 9 20 -2 10 -7 17 -9 17 -5 0 10 -43 77 -70 109 -9 11 -22
34 -28 50 -12 28 -11 28 22 -10 19 -22 35 -44 36 -48 0 -10 71 -100 83 -105 4
-2 7 -10 7 -18 0 -8 5 -14 10 -14 15 0 12 12 -11 36 -13 14 -22 38 -23 63 -2
43 -11 60 -23 46 -5 -4 -2 -10 5 -12 14 -5 17 -33 3 -33 -5 0 -13 9 -16 20 -3
11 -15 25 -26 30 -10 6 -19 16 -19 21 0 10 -16 33 -61 87 -6 7 -8 16 -4 20 8
8 60 -53 76 -90 12 -30 39 -45 39 -23 0 29 15 14 54 -51 28 -49 41 -63 47 -53
6 10 2 19 -11 31 -11 9 -20 21 -20 26 0 6 -3 12 -8 14 -4 2 -22 26 -40 55 -40
62 -62 83 -62 59 0 -9 3 -16 8 -16 10 0 35 -41 28 -47 -9 -9 -35 23 -42 51 -3
14 -11 26 -18 26 -15 0 -47 58 -35 65 5 4 9 2 9 -3 0 -5 11 -22 25 -38 14 -16
25 -23 25 -16 0 22 34 -7 65 -56 31 -48 68 -92 79 -92 16 0 4 32 -14 37 -11 3
-20 8 -20 12 0 4 -8 16 -18 27 -11 11 -25 31 -33 45 -31 56 -82 129 -90 129
-5 0 -9 7 -9 15 0 9 -7 27 -16 41 -9 13 -14 27 -11 31 4 3 10 -3 14 -13 8 -21
57 -88 92 -125 11 -12 21 -28 21 -35 0 -6 6 -17 14 -23 8 -7 22 -27 31 -46 9
-19 22 -35 30 -35 20 0 19 17 -1 28 -13 7 -14 14 -6 28 7 13 6 24 -6 42 -11
17 -12 26 -4 31 7 4 8 12 2 21 -6 10 -4 20 6 31 13 14 13 18 -1 29 -19 16 -19
30 0 30 8 0 15 5 15 10 0 6 -7 13 -15 16 -8 4 -15 11 -15 16 0 6 -11 24 -25
42 -14 17 -29 36 -34 42 -4 5 -14 20 -20 33 -7 13 -18 20 -26 17 -15 -5 -50
22 -40 32 3 3 12 -3 20 -14 12 -16 14 -16 15 -3 0 9 -9 28 -20 42 -11 14 -20
30 -20 36 0 6 -3 11 -7 11 -5 0 -13 12 -20 26 -10 22 -10 25 3 20 18 -7 18 8
-1 28 -8 8 -15 17 -15 20 0 3 7 6 15 6 8 0 15 -9 15 -20 0 -11 9 -25 20 -32
11 -7 20 -17 20 -23 0 -6 16 -28 35 -50 20 -22 43 -55 51 -72 9 -18 20 -33 25
-33 5 0 9 -9 9 -19 0 -21 17 -37 28 -26 4 3 -2 21 -12 38 -11 20 -14 33 -7 35
16 5 13 22 -6 41 -18 17 -38 44 -50 71 -6 14 -26 39 -49 64 -5 6 -13 20 -17
31 -4 11 13 -2 38 -29 25 -28 45 -55 45 -60 1 -15 39 -60 45 -54 7 7 -5 38
-15 38 -12 0 -74 100 -67 107 8 8 42 -33 62 -74 16 -34 45 -45 45 -18 0 8 -7
15 -15 15 -8 0 -22 15 -31 33 -9 17 -23 36 -30 40 -8 4 -14 12 -14 18 0 5 -9
20 -21 32 -11 12 -29 38 -39 58 -10 19 -26 41 -34 48 -27 23 -19 -14 10 -46
16 -18 23 -34 20 -48 -3 -11 -6 -24 -6 -29 0 -5 -10 -1 -21 10 -22 19 -22 19
-14 -6 4 -14 16 -33 26 -43 11 -10 19 -25 19 -34 0 -14 -2 -14 -20 2 -11 10
-22 27 -26 39 -3 11 -13 29 -22 39 -14 15 -13 17 1 17 20 0 22 11 5 28 -8 8
-8 15 1 26 9 11 10 20 2 35 -8 14 -8 20 1 23 8 3 8 10 -2 27 -9 18 -9 25 0 31
9 6 9 12 0 30 -8 15 -8 20 -1 16 6 -4 11 -3 11 3 0 5 -4 13 -10 16 -13 8 -13
35 0 35 5 0 12 -11 16 -25 3 -14 12 -25 19 -25 8 0 16 -13 20 -30 4 -16 11
-30 17 -30 5 0 8 3 6 8 -3 4 -10 22 -17 40 -7 17 -17 32 -21 32 -9 0 -50 66
-50 81 0 17 15 9 32 -19 32 -50 43 -66 96 -136 28 -39 52 -78 52 -86 0 -17
-49 38 -50 56 0 16 -25 35 -34 27 -3 -4 5 -19 20 -34 14 -15 24 -35 22 -45 -2
-15 -11 -8 -37 29 -19 26 -36 45 -38 43 -6 -5 47 -86 56 -86 9 0 34 -60 27
-67 -3 -3 -9 3 -13 13 -3 10 -21 37 -40 58 -18 22 -33 43 -33 48 0 4 -10 18
-22 30 l-21 21 6 -24 c4 -13 7 -27 7 -31 0 -5 6 -8 14 -8 8 0 16 -10 20 -22 3
-13 20 -39 38 -58 18 -20 39 -48 45 -63 7 -15 17 -27 23 -27 5 0 10 -7 10 -15
0 -8 5 -15 11 -15 6 0 8 8 4 19 -3 11 -1 22 5 26 8 5 3 16 -13 34 -23 25 -47
63 -47 76 0 14 39 -17 45 -35 3 -11 11 -20 16 -20 14 0 10 26 -6 40 -10 8 -12
16 -6 19 10 7 -24 87 -45 106 -7 6 -24 30 -39 55 l-28 45 26 -24 c15 -13 29
-33 33 -43 5 -18 50 -68 59 -68 12 0 2 18 -30 54 -19 22 -35 45 -35 51 0 13
-38 46 -55 49 -7 1 -20 9 -29 19 -15 15 -15 17 -2 17 9 0 16 -5 16 -12 0 -6 3
-9 6 -5 3 3 -3 19 -15 36 -15 20 -27 28 -39 25 -13 -5 -14 -4 -3 4 9 7 11 16
6 28 -12 27 -15 95 -4 88 5 -3 9 -11 9 -19 0 -8 8 -20 19 -27 10 -7 21 -23 25
-36 7 -21 50 -72 61 -72 3 0 5 7 5 15 0 8 -4 15 -10 15 -5 0 -22 19 -37 43
-15 23 -32 47 -38 52 -23 20 -43 73 -32 84 7 7 6 15 -3 26 -12 14 -11 18 0 25
11 7 12 13 1 37 -10 22 -10 25 0 16 7 -7 14 -29 16 -50 1 -20 8 -40 15 -44 17
-11 23 8 8 26 -9 10 -9 15 -1 15 6 0 13 -11 17 -25 3 -14 12 -25 20 -25 18 0
18 9 -3 32 -18 20 -4 25 15 6 19 -19 14 1 -9 38 -24 39 -34 44 -26 13 6 -21 5
-21 -19 2 -13 12 -24 27 -24 33 0 6 4 5 9 -3 5 -8 16 -11 25 -8 10 4 27 -8 50
-36 20 -23 36 -36 36 -28 0 11 3 11 15 1 8 -7 15 -17 15 -22 0 -6 -7 -5 -15 2
-12 10 -15 10 -15 -3 0 -8 7 -17 15 -21 8 -3 15 -12 15 -21 0 -8 7 -15 15 -15
10 0 15 10 15 29 0 16 -7 34 -15 41 -8 7 -15 18 -14 24 0 7 2 6 6 -1 7 -18 33
-16 33 1 0 8 -9 17 -19 21 -11 3 -22 13 -25 21 -4 12 -2 15 9 10 17 -6 19 -1
6 23 -11 20 -4 32 29 48 53 26 64 22 70 -24 7 -49 13 -58 35 -50 10 5 15 20
15 52 0 43 2 46 30 52 17 3 33 10 36 14 3 5 14 9 25 9 16 0 19 -5 14 -20 -9
-29 4 -60 25 -60 15 0 19 9 22 47 3 51 3 51 91 67 38 7 39 7 36 -21 -4 -37 6
-52 31 -46 15 4 20 15 22 52 3 43 5 46 33 49 16 2 32 7 35 12 3 4 14 10 25 12
18 3 20 -2 17 -39 -3 -34 0 -44 14 -50 10 -4 19 -2 22 5 2 7 10 12 18 12 17 0
19 41 3 57 -12 12 63 53 99 53 20 0 22 -5 22 -50 0 -47 2 -50 25 -50 24 0 25
3 25 58 0 58 0 58 38 75 62 27 70 24 74 -29 2 -32 9 -50 21 -58 25 -15 41 16
38 75 l-2 46 38 6 c21 3 46 8 56 12 15 6 17 1 17 -39 0 -42 2 -46 25 -46 26 0
28 4 25 61 -2 42 29 69 80 69 29 0 30 -1 30 -46 0 -43 2 -46 23 -40 12 3 25 6
30 6 4 0 7 22 7 49 0 46 2 50 31 60 18 6 42 11 55 11 22 0 23 -3 17 -45 -5
-43 -4 -45 19 -45 36 0 47 17 40 62 -6 45 5 58 51 58 15 0 27 5 27 11 0 5 5 7
10 4 6 -4 10 -26 9 -51 -3 -46 7 -67 20 -46 4 7 14 12 22 10 11 -2 13 8 11 50
-3 35 0 52 8 52 7 0 27 7 46 16 19 9 38 14 41 10 3 -3 5 -26 5 -50 -2 -29 3
-46 11 -49 27 -10 42 12 43 64 2 58 11 68 63 65 36 -1 36 -1 33 -44 -3 -32 0
-44 13 -48 25 -10 36 9 37 65 0 43 3 51 18 51 10 0 25 7 34 15 8 8 24 15 36
15 20 0 22 -4 18 -52 -3 -51 -2 -53 25 -56 27 -3 27 -3 27 57 l0 60 41 11 c22
6 47 14 55 17 11 4 13 -3 8 -41 -6 -42 -5 -46 17 -55 41 -15 49 -4 49 65 0 63
0 64 28 64 15 0 37 3 50 6 21 6 22 4 22 -50 0 -53 1 -56 25 -56 14 0 26 6 26
13 1 6 2 34 3 61 2 40 6 51 27 62 13 7 38 13 56 14 37 0 51 -26 33 -60 -13
-25 -4 -60 16 -60 34 0 54 33 54 91 0 56 1 58 30 64 16 4 32 11 35 16 4 5 14
9 24 9 22 0 32 -31 24 -71 -7 -38 14 -59 44 -44 17 9 20 14 11 23 -9 9 -9 12
0 12 7 0 12 11 12 25 0 14 -4 25 -10 25 -18 0 -10 25 14 42 12 9 38 18 57 20
l34 3 -3 -51 c-4 -55 15 -88 43 -78 11 5 15 23 15 74 0 69 3 74 52 84 3 0 10
4 14 9 4 4 18 7 31 7 23 0 24 -3 22 -55 -3 -62 6 -77 39 -64 19 7 22 15 22 68
0 33 3 62 8 65 4 2 24 7 45 11 37 7 37 7 37 -27 0 -19 5 -39 11 -45 8 -8 8
-13 0 -17 -13 -9 -15 -192 -2 -200 8 -5 6 -58 -4 -83 -2 -7 -1 -13 4 -13 12 0
9 -33 -4 -42 -7 -5 -7 -10 0 -15 13 -10 16 -113 4 -113 -5 0 -9 -11 -9 -25 0
-14 5 -25 10 -25 7 0 7 -6 1 -18 -6 -12 -6 -33 0 -60 10 -46 9 -92 -3 -92 -10
0 -10 -67 0 -73 4 -3 5 -80 2 -172 -3 -92 -3 -168 0 -170 4 -2 2 -46 -3 -97
-5 -51 -5 -94 0 -95 9 -3 9 -64 1 -79 -5 -8 -11 -268 -11 -434 1 -214 7 -476
12 -485 9 -16 8 -46 -1 -51 -12 -8 -10 -54 3 -54 8 0 8 -4 0 -14 -8 -9 -11
-109 -11 -339 1 -316 -3 -377 -21 -377 -5 0 -9 -7 -9 -15 0 -8 -5 -15 -11 -15
-6 0 -9 36 -7 105 2 58 0 105 -4 105 -5 0 -9 -30 -10 -67 0 -38 -2 -85 -2
-107 -1 -28 -7 -43 -24 -54 l-22 -14 -2 123 c-1 93 -3 113 -9 79 -6 -36 -7
-29 -6 38 1 45 -1 82 -5 82 -5 0 -9 -26 -9 -57 -4 -166 -8 -246 -13 -251 -3
-3 -6 48 -6 114 0 80 -3 114 -10 104 -5 -8 -10 -34 -10 -58 0 -24 -4 -41 -9
-38 -7 5 -12 -39 -24 -194 -2 -19 -8 -25 -29 -27 -16 -1 -28 2 -28 8 0 5 -4 9
-10 9 -5 0 -7 -7 -4 -15 4 -9 0 -15 -9 -15 -11 0 -14 11 -11 48 l4 47 -11 -40
c-15 -59 -29 -67 -29 -16 0 24 -4 40 -10 36 -5 -3 -7 -26 -5 -50 2 -25 -1 -45
-6 -45 -5 0 -9 -7 -9 -15 0 -21 -38 -19 -43 3 -4 16 -5 16 -6 0 0 -10 -7 -18
-15 -18 -10 0 -16 14 -19 43 l-4 42 -1 -47 c-2 -48 -21 -69 -23 -25 -1 20 -2
20 -12 -5 -12 -32 -24 -36 -30 -10 -3 9 -5 2 -6 -15 -1 -23 -6 -33 -17 -33 -8
0 -12 5 -9 10 9 14 10 158 2 167 -4 3 -7 -21 -7 -54 0 -33 -3 -74 -6 -91 -6
-28 -8 -29 -35 -19 -16 6 -29 17 -29 24 0 7 -7 13 -15 13 -11 0 -15 11 -16 38
0 20 -3 31 -6 25 -9 -25 -19 -13 -15 18 3 24 1 30 -9 27 -9 -3 -15 -23 -17
-56 -3 -60 -21 -70 -24 -14 -1 36 -1 36 -5 5 -6 -49 -23 -40 -23 12 0 25 -4
45 -10 45 -5 0 -10 -20 -10 -45 0 -25 -3 -45 -8 -45 -4 0 -6 18 -4 41 3 22 -1
46 -7 52 -8 8 -11 -1 -11 -35 0 -54 -8 -80 -22 -72 -5 3 -16 -2 -23 -12 -14
-18 -14 -18 -15 4 0 13 -4 20 -10 17 -5 -3 -10 -17 -10 -31 0 -13 -5 -24 -11
-24 -7 0 -9 11 -6 28 3 15 2 34 -4 42 -7 12 -9 11 -10 -5 -1 -11 -1 -30 0 -42
1 -13 -3 -23 -9 -23 -6 0 -10 24 -10 55 0 30 -4 55 -10 55 -5 0 -10 -25 -10
-55 0 -33 -4 -55 -11 -55 -8 0 -9 19 -4 60 6 51 5 60 -9 60 -13 0 -16 -12 -16
-61 0 -33 -4 -58 -8 -55 -5 3 -6 45 -4 93 2 48 2 86 -1 83 -3 -3 -7 -33 -8
-67 -1 -33 -8 -72 -15 -84 -12 -21 -13 -16 -14 54 0 42 -4 77 -8 77 -4 0 -8
-31 -7 -70 0 -48 -4 -70 -12 -70 -9 0 -11 25 -8 93 3 71 2 82 -5 47 -5 -25 -9
-64 -9 -88 -1 -64 -21 -42 -23 26 l-2 57 -3 -53 c-3 -35 -8 -52 -16 -49 -8 2
-10 30 -8 88 1 46 -1 80 -5 76 -10 -10 -10 -12 -12 -94 -2 -79 -22 -83 -23 -5
0 41 -3 51 -9 37 -5 -11 -9 -32 -9 -47 -2 -48 -21 -30 -23 20 -1 39 -2 41 -5
12 -2 -19 -6 -42 -9 -50 -8 -23 -24 10 -18 36 3 12 1 25 -5 28 -6 4 -11 18
-11 32 0 15 -6 24 -15 24 -12 0 -15 -13 -15 -56 0 -59 -18 -72 -31 -23 -7 23
-7 23 -8 2 -1 -14 -7 -23 -17 -23 -13 0 -15 10 -12 55 1 30 0 55 -4 55 -4 0
-8 -23 -10 -52 -3 -58 -28 -82 -28 -27 0 35 -12 33 -17 -3 -4 -28 -9 -32 -29
-24 -11 4 -15 14 -11 31 2 14 0 28 -4 31 -5 3 -9 -11 -9 -30 0 -26 -4 -36 -16
-36 -12 0 -15 10 -13 45 4 63 -9 68 -17 6 -11 -85 -28 -61 -21 31 4 49 3 78
-2 72 -5 -5 -10 -45 -11 -89 -3 -101 -2 -101 12 -87 14 14 168 17 168 3 0 -5
19 -12 43 -16 31 -5 37 -9 23 -14 -15 -6 -11 -10 23 -26 23 -10 48 -18 56 -18
21 0 19 -17 -2 -18 -10 0 0 -7 22 -15 22 -9 49 -20 60 -24 19 -8 47 -14 150
-30 52 -8 83 -2 49 10 -14 5 -8 9 26 15 26 4 51 16 58 26 7 11 22 19 32 19 11
0 25 9 32 20 14 21 62 28 73 9 4 -5 19 -7 34 -4 19 4 32 1 41 -10 9 -11 9 -15
1 -15 -8 0 -7 -5 3 -15 8 -8 23 -15 33 -15 10 0 25 -5 33 -10 12 -8 11 -10 -7
-10 -13 0 -23 -4 -23 -10 0 -5 11 -10 25 -10 43 0 104 -39 63 -40 -7 -1 -1 -8
15 -16 15 -8 27 -20 27 -26 0 -15 127 -2 180 19 14 6 32 13 40 16 12 4 11 6
-2 6 -10 1 -18 5 -18 10 0 11 36 21 70 20 17 -1 19 -3 8 -6 -27 -7 -22 -23 7
-23 15 0 32 11 45 28 19 25 29 29 78 31 59 2 119 16 162 38 25 13 25 13 -9 13
-19 0 -43 -7 -53 -17 -14 -12 -18 -13 -18 -3 0 11 -3 11 -12 2 -7 -7 -31 -12
-54 -12 -22 0 -54 -4 -70 -10 -16 -5 -40 -11 -54 -13 -14 -2 -38 -9 -53 -15
-16 -7 -41 -12 -57 -12 -34 0 -60 -9 -60 -21 0 -5 7 -9 16 -9 8 0 12 -4 9 -10
-3 -5 -21 -10 -38 -9 -27 0 -29 2 -12 9 15 6 7 9 -30 8 -49 0 -49 0 -21 -12
l29 -13 -27 -5 c-14 -3 -26 -2 -26 2 0 4 -12 11 -27 16 -21 5 -24 8 -10 11 9
3 17 8 17 13 0 5 15 12 33 15 41 9 63 25 46 36 -7 4 1 10 20 14 17 3 33 11 36
16 8 12 35 12 35 -1 0 -5 -16 -12 -35 -16 -50 -9 -36 -18 16 -9 27 5 43 13 46
24 5 20 88 72 146 92 20 7 37 17 37 21 0 11 -18 10 -25 -2 -3 -6 -15 -10 -25
-10 -24 0 -146 -65 -143 -77 1 -4 -21 -8 -49 -9 -27 0 -53 -5 -56 -10 -8 -11
-92 -35 -137 -40 -16 -2 -21 -1 -10 2 11 3 25 10 30 16 6 6 3 7 -10 2 -19 -6
-18 -5 2 17 17 17 35 24 70 25 26 1 49 7 51 13 2 6 9 11 15 11 7 0 24 11 39
25 25 23 68 34 68 18 0 -5 -14 -16 -31 -26 -18 -10 -29 -21 -25 -24 3 -4 20 3
36 15 16 12 33 22 37 22 7 0 27 15 80 60 7 5 16 10 21 10 5 0 17 9 27 20 10
11 27 23 39 26 11 4 35 17 52 30 42 33 57 31 52 -5 -4 -28 -2 -30 39 -36 24
-3 47 -3 53 0 21 13 49 -15 53 -53 2 -20 4 6 5 58 0 58 -5 109 -13 130 l-13
35 -3 -40 c-5 -83 -6 -96 -13 -102 -3 -3 -6 21 -6 55 0 84 -20 79 -22 -5 l-2
-68 -5 70 c-5 61 -7 66 -13 36 -5 -18 -8 -44 -8 -57 0 -12 -5 -26 -11 -30 -8
-5 -10 88 -7 351 4 272 8 359 18 365 9 6 8 10 -4 17 -22 12 -11 43 15 43 10 0
19 5 19 10 0 6 -9 10 -20 10 -11 0 -20 7 -20 15 0 14 17 20 47 16 6 -1 14 3
18 9 4 6 -6 10 -24 10 -33 0 -44 26 -16 36 22 9 18 24 -5 24 -11 0 -20 4 -20
9 0 5 9 11 20 14 11 3 20 10 20 16 0 6 -9 11 -20 11 -33 0 -23 18 12 22 17 2
33 9 36 17 3 10 -3 11 -27 6 -31 -7 -43 6 -19 21 7 5 3 10 -13 16 -23 9 -23
10 -5 24 18 12 15 19 -6 15 -5 0 -8 6 -8 14 0 11 11 15 36 15 30 0 34 2 25 14
-9 11 -8 15 5 20 27 10 10 31 -24 28 l-31 -3 -1 148 c0 81 0 159 0 173 2 30 2
35 -6 81 -5 34 -4 36 33 52 l38 16 -35 -5 c-34 -5 -36 -4 -34 23 2 56 4 63 19
63 8 0 15 5 15 10 0 6 -7 10 -15 10 -22 0 -15 52 7 58 22 5 24 22 3 22 -8 0
-15 9 -15 20 0 11 7 20 15 20 8 0 15 5 15 10 0 6 -7 10 -15 10 -19 0 -30 61
-18 108 5 20 8 76 5 124 -4 74 -2 89 12 94 9 3 16 10 16 15 0 4 -6 6 -14 3
-14 -6 -30 22 -20 37 3 5 16 9 30 9 13 0 24 5 24 10 0 6 -14 10 -31 10 -40 0
-34 24 7 28 16 2 34 8 39 14 7 7 -2 9 -30 5 l-40 -6 -2 79 c-2 66 0 81 15 89
15 9 15 10 0 11 -11 0 -15 6 -11 20 4 14 14 20 37 21 30 2 30 2 4 6 -16 2 -29
11 -29 19 -1 8 -2 19 -3 26 -1 6 10 13 23 15 39 6 38 13 -1 13 -31 0 -35 3
-35 24 0 18 6 25 28 30 39 8 37 27 -2 24 -37 -3 -50 17 -18 25 16 4 20 9 12
19 -5 7 -10 25 -11 39 -1 19 5 28 26 37 l27 12 -28 -4 c-15 -2 -31 2 -35 8 -3
6 -7 50 -7 98 0 78 2 88 20 94 19 6 19 7 -2 11 -29 6 -29 21 -1 32 l22 8 -22
12 c-29 16 -28 31 3 31 14 0 25 5 25 10 0 6 -12 10 -26 10 -22 0 -25 2 -14 15
7 8 23 15 36 15 13 0 24 5 24 11 0 7 -9 9 -24 5 -26 -6 -36 12 -36 65 0 23 3
26 25 21 29 -5 44 20 25 43 -10 12 -9 15 5 15 10 0 15 6 13 17 -4 23 -19 25
-43 7 -16 -12 -17 -16 -6 -23 16 -11 6 -31 -16 -31 -12 0 -14 6 -9 28 4 15 8
50 10 78 3 64 10 74 47 74 44 0 31 24 -14 28 -34 3 -36 5 -32 34 2 18 1 36 -2
42 -12 19 -2 121 13 132 18 14 18 24 -1 24 -8 0 -15 7 -15 15 0 8 9 15 19 15
16 0 19 7 17 43 -1 27 -6 41 -14 39 -17 -3 -15 9 6 24 16 13 16 15 0 27 -9 7
-18 30 -19 50 -3 33 0 40 33 62 55 37 61 34 54 -30 l-5 -55 28 0 c16 0 40 6
53 13 22 11 23 17 20 79 l-4 66 39 26 c20 14 41 26 45 26 5 0 8 -25 8 -56 l0
-57 37 6 c43 7 53 20 53 65 0 40 -47 111 -73 112 -10 0 -30 -12 -45 -26 -15
-14 -42 -32 -60 -39 -29 -13 -33 -19 -32 -47 3 -59 0 -64 -20 -30 -11 17 -24
32 -29 32 -12 0 -130 -70 -137 -81 -10 -17 -11 -124 -1 -136 6 -9 6 -13 -2
-13 -6 0 -11 -11 -11 -24 0 -24 -1 -25 -107 -29 -60 -2 -118 -7 -130 -11 -15
-6 -23 -4 -23 3 0 6 8 11 18 11 10 0 26 14 35 30 10 17 27 30 38 30 10 0 19 5
19 11 0 6 7 9 15 5 8 -3 15 -1 15 5 0 5 12 15 28 20 38 14 75 64 67 89 -7 23
-28 26 -44 6 -7 -8 -27 -17 -45 -20 -19 -4 -37 -13 -40 -21 -3 -8 -12 -15 -21
-15 -8 0 -15 -7 -15 -15 0 -8 -4 -15 -10 -15 -5 0 -10 -7 -10 -15 0 -8 -4 -15
-10 -15 -5 0 -12 -11 -16 -24 -3 -14 -12 -27 -20 -30 -20 -8 -18 41 2 52 12 7
13 11 5 17 -8 5 -6 12 9 25 12 11 19 23 16 29 -4 5 3 12 14 16 11 3 20 15 20
25 0 13 5 17 15 14 8 -4 15 -1 15 5 0 6 -5 11 -11 11 -5 0 -7 5 -4 10 4 6 10
8 15 5 5 -3 20 6 33 19 18 18 27 22 36 13 8 -8 11 -6 11 8 0 11 11 33 25 49
14 17 23 36 20 44 -3 7 -5 16 -5 18 0 11 -59 2 -70 -12 -8 -8 -28 -21 -47 -29
-19 -8 -33 -21 -33 -31 0 -9 -11 -27 -25 -40 -14 -13 -25 -30 -25 -39 0 -8 -4
-15 -10 -15 -5 0 -6 -7 -3 -17 4 -11 3 -14 -5 -9 -8 5 -12 -3 -13 -26 -1 -32
-3 -47 -8 -58 -1 -3 -5 -16 -7 -30 -10 -56 -19 -33 -21 53 -3 169 -7 196 -37
228 -31 33 -39 35 -55 15 -10 -12 -9 -20 6 -42 9 -15 19 -39 20 -53 2 -14 9
-36 15 -49 9 -18 9 -28 0 -43 -10 -15 -10 -20 0 -24 9 -4 14 -30 16 -77 2 -39
5 -75 8 -80 3 -4 0 -8 -5 -8 -6 0 -11 13 -11 28 0 16 -13 55 -29 88 -15 32
-32 74 -35 92 -4 17 -14 32 -21 32 -8 0 -17 10 -21 22 -8 27 -32 47 -56 48
-10 0 -18 4 -18 9 0 12 -37 12 -72 -1 -20 -7 -28 -17 -28 -34 0 -15 6 -24 15
-24 8 0 15 -4 15 -10 0 -15 30 -12 30 3 1 6 8 -1 16 -16 8 -15 19 -25 24 -22
6 4 10 -3 10 -14 0 -13 7 -21 18 -21 28 0 45 -16 45 -44 0 -19 5 -26 18 -26
11 0 19 -5 19 -12 0 -6 11 -26 25 -44 14 -18 25 -37 25 -43 0 -20 -26 -11 -39
12 -12 22 -27 33 -83 59 -16 7 -28 16 -28 20 0 12 -105 10 -158 -3 -42 -10
-72 -31 -72 -50 0 -14 33 -19 47 -7 11 9 17 9 24 -3 8 -12 11 -11 20 4 13 22
89 25 89 2 0 -18 17 -20 23 -2 3 9 7 9 19 0 8 -7 18 -9 23 -5 4 4 6 -2 4 -13
-3 -15 -13 -21 -39 -23 -55 -4 -88 -21 -95 -49 -8 -33 0 -40 23 -20 10 10 29
17 42 17 23 0 23 0 -5 -24 -15 -13 -45 -33 -66 -43 -22 -10 -39 -25 -39 -34 0
-8 -5 -20 -12 -27 -14 -14 -11 -17 19 -26 17 -6 22 -2 25 16 2 15 11 24 26 26
12 2 22 10 22 18 0 9 10 14 28 14 26 0 64 14 114 41 25 13 51 11 74 -6 18 -13
17 -14 -20 -15 -29 0 -43 -6 -58 -25 -11 -14 -27 -25 -36 -25 -18 -1 -63 -30
-46 -30 5 0 2 -6 -7 -13 -19 -15 -45 -66 -54 -107 -7 -33 -25 -41 -25 -12 0
24 -51 100 -88 134 -51 45 -101 63 -166 60 -36 -1 -66 -8 -76 -17 -9 -8 -24
-15 -34 -15 -18 0 -32 -10 -70 -48 -19 -19 -27 -21 -49 -13 -37 14 -114 15
-157 2 -19 -6 -36 -11 -37 -11 -2 0 -3 16 -3 35 0 24 -5 35 -15 35 -8 0 -19 9
-25 20 -12 22 -35 26 -46 8 -4 -6 -3 -8 3 -5 16 10 21 -79 6 -100 -7 -9 -16
-13 -20 -9 -4 4 -1 12 7 17 11 8 12 12 3 16 -8 3 -13 23 -13 52 0 40 -4 49
-27 63 -16 8 -35 13 -43 10 -11 -4 -13 -2 -5 9 12 16 12 113 1 172 -5 25 -3
44 5 53 6 8 8 14 3 14 -5 0 -22 11 -38 25 -16 14 -35 25 -42 25 -7 0 -26 11
-42 25 -17 14 -35 25 -41 25 -6 0 -11 4 -11 9 0 5 -12 12 -27 16 -15 3 -37 17
-50 31 -12 13 -29 24 -38 24 -8 0 -15 6 -15 13 0 25 -43 34 -80 16z m31 -121
c3 -305 7 -426 13 -437 4 -6 14 -11 22 -11 12 0 14 37 14 234 0 146 4 237 10
241 7 4 10 -77 10 -234 0 -140 -4 -241 -9 -241 -5 0 -14 -12 -19 -27 -7 -18
-11 -22 -11 -10 -1 9 -8 17 -16 17 -8 0 -15 4 -15 10 0 6 -9 6 -22 1 -13 -5
-26 -9 -31 -9 -35 0 -105 -16 -117 -27 -8 -7 -31 -16 -50 -20 -19 -4 -44 -13
-55 -21 -11 -7 -38 -16 -60 -20 -22 -3 -47 -10 -56 -15 -36 -18 -36 -20 -45
336 l-4 150 36 23 c19 12 41 22 47 22 7 0 22 7 33 15 12 8 24 12 26 9 3 -3 23
3 44 12 22 9 48 20 59 25 113 47 144 57 168 58 l27 1 1 -82z m96 -325 c-1
-177 2 -313 7 -313 5 0 6 22 4 50 -3 27 -1 47 4 44 4 -3 8 -14 8 -24 0 -10 3
-21 8 -23 4 -3 6 82 5 189 -2 122 1 194 7 194 6 0 10 -58 10 -149 0 -99 4
-152 11 -157 8 -4 7 -9 -2 -15 -8 -5 -9 -9 -4 -9 14 0 15 -70 1 -70 -6 0 -5
-4 3 -9 10 -7 11 -10 1 -16 -8 -5 -18 -1 -27 10 -11 16 -13 4 -15 -91 -2 -98
-2 -101 -5 -29 -2 44 -7 83 -11 87 -4 4 -6 -31 -4 -77 2 -54 -1 -85 -8 -85 -7
0 -10 139 -9 433 0 262 4 421 9 403 5 -16 8 -170 7 -343z m153 162 c0 -52 4
-97 10 -100 6 -3 8 -23 5 -43 -8 -51 -8 -116 1 -266 6 -102 5 -128 -5 -121 -9
5 -12 0 -11 -16 4 -44 0 -69 -10 -69 -6 0 -10 127 -10 361 0 237 3 358 10 354
6 -3 10 -48 10 -100z m-710 -122 c-1 -60 -1 -110 0 -113 1 -3 3 -45 5 -95 3
-80 1 -91 -17 -103 -19 -14 -20 -24 -16 -173 1 -88 -1 -159 -5 -159 -5 0 -15
-7 -23 -15 -8 -8 -34 -20 -57 -26 -23 -6 -47 -15 -54 -21 -7 -5 -17 -7 -23 -3
-8 5 -2 17 17 37 20 21 34 27 50 23 18 -4 23 -1 23 15 0 13 7 20 19 20 22 0
36 27 21 45 -18 22 -73 4 -112 -36 -23 -23 -40 -34 -44 -28 -4 6 0 15 7 20 13
8 5 13 -15 10 -5 -1 -4 4 3 12 6 8 25 17 42 21 25 5 29 9 20 19 -6 8 -8 17 -4
21 4 4 1 11 -7 16 -12 8 -10 10 8 10 27 0 28 17 2 48 -18 22 -22 23 -49 11
-18 -8 -27 -17 -22 -24 13 -16 9 -45 -6 -45 -8 0 -13 -12 -13 -29 0 -17 -4
-32 -9 -35 -4 -3 -14 -26 -21 -51 -14 -52 -32 -72 -20 -22 16 60 23 82 30 92
4 6 6 18 5 28 -2 9 1 17 6 17 5 0 9 14 9 30 0 27 -3 30 -34 30 -42 0 -46 -11
-46 -152 0 -79 -3 -108 -12 -109 -7 0 -3 -4 10 -9 23 -10 28 -35 12 -60 -7
-11 -10 -8 -10 16 0 19 -6 34 -15 38 -8 3 -15 15 -15 26 0 11 -5 20 -12 20 -6
0 -29 18 -50 41 -38 40 -40 41 -59 23 -17 -16 -22 -16 -29 -4 -6 8 -10 11 -11
5 -1 -5 -2 -15 -3 -22 0 -7 -10 -19 -21 -27 -11 -8 -16 -18 -12 -22 4 -5 12
-2 18 6 8 13 11 13 20 -2 5 -10 21 -18 34 -18 14 0 25 -4 25 -10 0 -5 7 -10
16 -10 16 0 54 -36 54 -51 0 -10 -54 8 -97 32 l-33 18 -35 -36 -35 -36 0 116
c0 63 -4 117 -9 119 -5 2 -11 107 -13 234 l-3 230 90 29 c49 16 99 35 110 42
11 7 32 13 47 13 16 0 46 11 68 25 22 14 53 25 69 25 16 0 32 4 35 9 4 5 25
12 49 16 23 4 48 12 55 17 10 9 57 23 85 27 5 1 8 -47 7 -106z m-747 -50 c-15
-6 -17 -33 -3 -33 6 0 10 -87 10 -240 l0 -240 -37 0 c-21 0 -60 -12 -88 -25
-27 -14 -60 -25 -71 -25 -12 0 -27 -7 -34 -15 -7 -8 -21 -15 -31 -15 -17 0
-66 -18 -111 -41 -47 -24 -48 -19 -50 159 0 92 -2 206 -3 254 l-1 86 30 6 c17
3 53 17 80 31 27 14 62 25 77 25 15 0 34 6 41 13 7 7 39 21 70 31 32 10 60 22
64 27 3 5 20 9 37 8 18 0 26 -3 20 -6z m2217 -99 c0 -22 -2 -25 -15 -14 -12
10 -15 10 -15 -4 0 -9 -4 -16 -10 -16 -5 0 -10 -7 -10 -15 0 -8 -10 -17 -22
-20 -13 -3 -45 -10 -73 -15 -27 -6 -54 -15 -60 -19 -13 -11 -75 -24 -75 -16 0
17 55 84 93 112 38 30 48 33 115 33 71 0 72 0 72 -26z m-1013 -69 c6 -14 7
-23 3 -20 -5 3 -11 1 -14 -4 -3 -5 1 -11 9 -15 8 -3 15 -11 15 -18 0 -9 -3 -9
-11 2 -8 11 -9 9 -3 -10 4 -14 7 -64 6 -112 -1 -54 2 -88 8 -88 5 0 9 -19 9
-42 -1 -40 -2 -41 -9 -13 l-8 30 -1 -27 c-1 -20 -6 -28 -19 -28 -10 0 -25 -11
-32 -25 -7 -14 -19 -25 -27 -25 -7 0 -25 -26 -40 -57 -22 -48 -27 -54 -31 -35
-2 13 4 32 12 41 9 10 16 25 16 34 0 9 3 17 8 17 4 0 13 14 21 31 12 28 12 33
-3 41 -16 9 -16 11 1 24 11 8 13 13 6 14 -18 0 -16 20 1 20 19 0 30 32 14 41
-10 6 -7 13 10 25 14 10 21 22 17 31 -3 9 0 22 7 31 11 13 8 14 -22 7 -47 -10
-45 -7 -65 -72 -10 -32 -21 -62 -25 -66 -4 -5 -6 -26 -3 -47 7 -47 -4 -110
-19 -110 -5 0 -8 6 -5 14 3 8 1 32 -5 52 -7 28 -7 39 1 42 16 5 14 22 -3 22
-12 0 -13 7 -5 38 6 20 15 47 21 59 6 13 8 26 5 30 -11 10 -57 -15 -57 -32 0
-8 -5 -15 -11 -15 -12 0 -5 -104 11 -145 7 -18 6 -25 -3 -25 -8 0 -8 -3 2 -9
8 -5 11 -16 7 -26 -3 -10 -2 -23 3 -29 9 -11 21 -76 14 -76 -15 0 -50 54 -46
70 3 11 -2 27 -11 35 -9 9 -13 21 -10 26 7 13 -24 49 -43 49 -7 0 -13 5 -13
10 0 6 3 9 8 8 4 -2 8 2 9 7 1 6 -5 9 -12 7 -10 -2 -17 10 -21 38 -5 29 -11
40 -24 40 -15 0 -18 -10 -19 -68 -1 -57 2 -70 19 -82 11 -8 20 -22 20 -32 0
-10 5 -18 12 -18 6 0 9 -3 5 -6 -5 -5 10 -27 41 -59 9 -11 9 -15 0 -21 -6 -4
-14 -2 -16 4 -2 8 -8 8 -23 -1 -15 -9 -23 -9 -39 1 -11 6 -36 12 -56 12 -31 0
-35 3 -32 23 2 14 9 21 21 21 25 -2 21 11 -10 34 -24 17 -27 27 -28 71 0 28 3
51 8 51 10 0 9 64 -3 94 -5 15 -6 26 0 26 5 0 10 17 12 38 3 34 6 38 48 52 25
8 50 18 56 22 6 4 43 14 82 23 40 9 74 21 77 26 4 5 18 9 33 9 15 0 43 9 62
19 48 27 73 26 87 -4z m623 -5 c0 -16 -4 -30 -10 -30 -5 0 -10 -6 -10 -13 0
-8 -11 -20 -25 -27 -14 -7 -25 -17 -25 -22 0 -4 -7 -8 -15 -8 -8 0 -15 -5 -15
-11 0 -5 -4 -7 -10 -4 -11 7 -51 -12 -62 -29 -7 -11 -58 -19 -58 -10 0 3 11
20 25 38 14 18 25 37 25 41 0 14 71 75 87 75 7 0 16 7 19 15 4 9 19 15 40 15
31 0 34 -3 34 -30z m311 -12 c0 -2 2 -104 5 -228 l6 -225 -44 -17 c-45 -19
-118 -24 -118 -9 0 8 -90 3 -100 -6 -3 -3 3 -10 13 -17 21 -16 22 -26 2 -26
-8 0 -15 5 -15 10 0 6 -7 10 -16 10 -10 0 -14 6 -10 15 3 9 0 15 -10 15 -8 0
-12 5 -9 10 3 6 17 10 31 10 24 0 30 2 92 33 19 9 39 17 47 17 7 0 18 7 25 15
15 18 57 20 63 3 2 -7 8 -10 12 -6 4 4 2 15 -6 24 -10 13 -24 15 -62 10 -42
-4 -47 -3 -37 9 7 8 24 15 39 16 l26 1 -25 8 c-38 11 -83 0 -108 -28 -12 -14
-25 -23 -28 -19 -9 8 15 47 30 47 7 0 19 12 26 26 13 23 19 25 63 22 44 -3 48
-1 43 17 -3 11 -6 26 -6 33 0 21 -73 15 -93 -8 -9 -11 -22 -20 -29 -20 -7 0
-21 -14 -30 -30 -17 -30 -45 -42 -34 -15 3 8 0 15 -6 15 -6 0 -2 8 10 18 11
10 24 30 27 45 5 17 14 27 26 27 14 0 19 7 19 25 0 20 6 25 35 31 38 7 48 23
15 25 -71 4 -90 1 -90 -15 0 -8 -9 -21 -20 -29 -11 -8 -27 -36 -35 -62 -7 -27
-19 -51 -25 -55 -6 -4 -12 -21 -13 -38 -4 -64 -17 -30 -16 43 1 41 5 75 9 75
12 0 21 73 9 81 -12 7 80 49 108 49 10 0 27 6 38 14 11 7 38 17 60 20 22 4 51
14 65 21 23 13 39 18 41 13z m599 -27 c0 -11 7 -27 16 -36 9 -9 14 -25 11 -35
-6 -25 8 -26 22 -2 8 13 10 13 11 3 0 -12 3 -12 12 -3 15 15 48 16 48 2 0 -6
-13 -13 -29 -16 -37 -8 -93 -59 -89 -82 5 -26 45 -28 53 -3 6 19 8 19 21 6 17
-17 39 -20 29 -5 -11 17 14 38 36 33 12 -3 24 0 29 7 5 8 10 3 14 -15 4 -15 6
-28 4 -29 -40 -17 -65 -36 -73 -53 -11 -26 -57 -35 -107 -21 l-38 11 0 76 c0
96 10 181 21 181 5 0 9 -9 9 -19z m-930 -106 c0 -8 -7 -15 -15 -15 -24 0 -37
-49 -32 -117 l5 -63 -33 28 c-18 15 -36 38 -39 51 -7 23 -29 51 -40 51 -3 0
-6 -27 -6 -61 0 -61 12 -99 32 -99 6 0 21 -11 34 -25 13 -14 27 -25 32 -25 6
0 12 -7 16 -15 7 -19 -20 -20 -56 -1 -15 8 -40 17 -57 21 -17 4 -33 11 -36 16
-10 15 -81 10 -95 -6 -7 -8 -19 -15 -26 -15 -11 0 -14 21 -14 93 l0 94 63 27
c34 14 72 26 84 26 12 0 25 5 28 10 3 6 21 10 40 10 20 0 35 6 39 15 3 9 19
15 41 15 24 0 35 -4 35 -15z m-2241 -296 c1 -24 -4 -39 -14 -42 -11 -5 -15
-31 -17 -124 l-3 -118 -20 21 c-11 12 -33 24 -50 28 -16 4 -32 11 -35 15 -7
10 -106 51 -124 51 -9 0 -16 3 -16 8 0 27 -116 43 -126 17 -4 -8 -12 -15 -19
-15 -8 0 -26 -5 -42 -12 -15 -6 -35 -10 -45 -9 -9 1 -40 -10 -70 -24 -29 -14
-75 -30 -102 -36 -28 -5 -52 -13 -55 -18 -4 -4 -22 -11 -41 -15 -19 -3 -48
-13 -63 -21 -15 -8 -45 -17 -65 -21 -20 -4 -39 -10 -42 -14 -3 -4 -22 -10 -42
-13 l-38 -6 0 53 0 53 45 1 c25 0 52 5 59 11 7 6 16 8 19 4 4 -3 7 -1 7 5 0 7
9 12 20 12 11 0 20 5 20 10 0 6 9 10 19 10 11 0 23 5 26 10 5 8 11 8 20 0 10
-8 16 -8 22 2 10 17 62 40 73 33 5 -3 10 -1 12 5 2 6 18 11 36 13 17 1 32 5
32 10 0 4 12 12 28 18 15 6 40 17 56 25 16 8 40 14 53 14 13 0 48 11 76 23 29
13 79 32 112 43 33 10 65 23 70 30 6 6 24 13 40 16 17 3 62 17 100 32 l70 25
7 -37 c4 -20 7 -53 7 -73z m488 66 c-3 -19 -1 -37 4 -41 6 -3 8 -12 5 -20 -3
-8 -1 -14 4 -14 6 0 10 -18 10 -41 0 -34 -3 -40 -16 -35 -13 5 -15 2 -10 -16
3 -13 6 -38 6 -56 0 -20 4 -31 10 -27 6 3 10 -5 10 -19 0 -48 -17 -35 -28 22
-5 31 -13 66 -17 78 -4 13 -1 27 9 37 12 12 13 16 2 20 -8 3 -12 19 -11 41 2
20 -2 39 -7 42 -6 4 -8 -41 -4 -122 2 -71 2 -123 0 -116 -3 6 -12 12 -20 12
-8 0 -14 5 -14 11 0 5 5 7 10 4 6 -3 10 -1 10 4 0 6 -4 11 -10 11 -5 0 -10 11
-10 25 0 14 5 25 10 25 6 0 10 7 10 16 0 8 -4 12 -10 9 -6 -4 -10 10 -10 34 0
39 -11 53 -25 31 -3 -5 -1 -10 4 -10 7 0 11 -29 11 -75 0 -43 -4 -75 -10 -75
-5 0 -9 6 -7 13 1 6 -5 11 -14 9 -9 -1 -22 5 -29 13 -9 11 -33 15 -92 15 -76
0 -80 -1 -112 -34 -19 -18 -37 -42 -40 -54 -4 -11 -13 -23 -21 -26 -8 -3 -15
-14 -15 -25 0 -20 -28 -32 -57 -25 -16 4 -18 18 -17 107 2 132 1 127 19 127 9
0 28 9 43 19 15 11 70 31 122 45 52 14 96 30 98 36 2 5 12 10 22 10 9 0 33 7
53 15 41 17 47 13 47 -31 0 -23 5 -33 20 -37 18 -5 20 0 20 36 0 31 3 38 10
27 5 -8 10 -10 11 -5 1 6 3 15 4 20 2 6 3 13 4 18 0 4 6 7 12 7 8 0 10 -12 6
-35z m1513 -54 c0 -5 -7 -11 -15 -15 -19 -7 -20 -56 -1 -56 10 0 15 -17 18
-57 2 -32 3 -59 2 -61 -2 -4 -55 -14 -74 -14 -8 -1 -22 -7 -31 -15 -9 -7 -20
-13 -25 -12 -5 1 -22 -3 -37 -9 -16 -7 -42 -12 -58 -12 -17 0 -32 -6 -35 -15
-8 -19 -90 -21 -97 -2 -4 7 -6 6 -6 -4 -1 -16 -48 -36 -59 -24 -3 3 -11 21
-18 40 -9 28 -9 35 2 35 7 0 16 -5 20 -11 4 -8 9 -7 15 2 6 10 9 6 9 -14 0
-28 0 -28 25 -10 13 10 24 23 25 28 0 11 -63 55 -79 55 -5 0 -11 7 -15 15 -8
22 21 19 51 -5 14 -11 30 -17 35 -14 5 3 20 -1 33 -10 13 -9 31 -16 39 -16 8
0 17 -6 19 -12 3 -8 6 -5 6 6 1 14 7 17 26 14 17 -4 25 -1 25 9 0 14 -39 34
-52 26 -5 -2 -8 0 -8 5 0 6 -15 12 -32 15 -45 7 -108 30 -108 39 0 5 11 8 24
8 14 0 28 5 31 10 9 15 95 13 96 -2 0 -10 2 -10 6 -1 3 10 9 9 20 -3 12 -12
18 -12 23 -3 4 6 13 8 19 5 6 -4 11 -2 11 3 0 6 -7 11 -16 11 -9 0 -14 7 -12
18 2 12 26 23 88 39 97 25 110 27 110 14z m-1707 -180 c9 -16 17 -40 16 -53 0
-13 -3 -17 -6 -8 -12 39 -27 58 -39 53 -8 -3 -14 -9 -14 -15 0 -19 -52 -54
-73 -49 -4 0 -21 -6 -37 -14 -38 -20 -40 -40 -2 -30 15 3 42 9 60 12 18 3 38
14 46 24 7 10 16 16 19 12 4 -3 8 5 8 18 1 13 5 4 10 -21 11 -67 11 -302 -1
-295 -5 3 -10 35 -10 71 0 48 -4 64 -14 64 -7 0 -19 7 -26 15 -7 8 -23 15 -35
15 -12 0 -28 7 -35 15 -7 8 -23 15 -35 15 -30 0 -54 27 -31 36 9 3 13 10 10
16 -9 14 16 66 46 96 38 37 56 47 94 49 26 2 35 -3 49 -26z m-1508 -19 c6 -4
11 -72 11 -163 l2 -155 -27 4 c-17 2 -32 -2 -40 -12 -8 -9 -20 -16 -27 -16 -8
0 -14 -7 -14 -15 0 -9 -6 -18 -14 -21 -8 -3 -20 -20 -26 -37 -7 -18 -14 -26
-17 -19 -8 21 4 55 29 82 13 13 24 27 24 30 9 35 18 48 30 43 14 -5 44 19 44
36 0 6 -7 11 -15 11 -8 0 -15 5 -15 10 0 6 -8 10 -18 10 -20 0 -45 -24 -55
-52 -4 -10 -11 -18 -17 -18 -5 0 -10 -13 -10 -28 0 -16 -3 -32 -7 -36 -8 -8
-10 -13 -12 -46 0 -11 -7 -20 -15 -20 -21 0 -22 145 -1 153 24 10 18 27 -10
27 -20 0 -25 -6 -31 -36 -4 -19 -13 -38 -20 -41 -8 -3 -11 -10 -7 -16 6 -11
12 -67 7 -67 -2 0 -15 5 -29 12 -25 11 -29 18 -26 51 1 9 0 17 -3 17 -11 0
-36 -33 -36 -48 0 -22 82 -112 101 -112 12 0 12 -2 -1 -10 -9 -6 -19 -5 -29 3
-8 7 -17 11 -20 11 -13 -3 -51 16 -51 25 0 6 -7 8 -15 5 -8 -4 -15 -12 -15
-19 0 -7 -9 -24 -20 -38 -11 -14 -20 -27 -20 -30 0 -12 37 -12 48 0 7 7 18 11
23 7 5 -3 17 0 26 8 13 10 17 10 20 1 3 -9 11 -8 29 4 23 15 26 15 42 0 15
-16 15 -17 -3 -17 -39 0 -104 -34 -110 -57 -3 -13 -12 -23 -20 -23 -17 0 -21
-46 -6 -69 12 -19 31 -5 31 23 0 33 96 117 113 99 3 -3 -6 -16 -21 -28 -56
-47 -93 -165 -57 -179 12 -4 15 1 13 26 -1 18 3 33 10 36 6 2 12 12 12 23 0
11 7 19 16 19 14 0 15 -7 10 -41 -6 -40 -6 -40 21 -37 19 2 27 8 25 18 -13 54
-14 83 -4 76 6 -3 13 -20 17 -36 4 -17 16 -36 27 -44 17 -12 18 -17 6 -35 -10
-16 -10 -27 -1 -50 10 -27 8 -32 -12 -45 -12 -8 -51 -18 -86 -22 -35 -4 -83
-15 -107 -26 -57 -24 -70 -23 -74 5 -3 23 -6 24 -80 26 -42 1 -47 4 -57 31 -5
17 -14 30 -18 30 -5 0 -9 9 -10 20 -1 11 2 20 6 20 5 0 11 14 13 30 3 20 0 30
-9 30 -8 0 -13 -12 -13 -30 0 -31 -6 -35 -34 -24 -10 4 -16 18 -16 40 0 31 4
35 66 64 70 32 84 36 84 20 0 -5 8 -10 18 -10 16 1 16 1 0 14 -25 18 -22 26 7
26 29 0 27 -20 26 237 -1 153 1 184 15 197 8 9 22 16 29 16 8 0 35 11 61 25
26 14 51 25 55 25 5 0 33 11 63 25 30 14 70 25 89 25 22 0 48 10 73 29 44 33
45 34 59 23z m2592 -27 c-7 -14 -15 -25 -19 -25 -5 0 -8 -24 -8 -53 l0 -53
-56 -23 c-63 -27 -144 -39 -144 -23 0 6 5 12 11 14 9 3 9 9 0 25 -6 12 -8 29
-5 37 7 18 24 22 24 5 0 -5 4 -7 10 -4 5 3 7 20 5 38 -3 18 -3 26 1 20 8 -19
31 -16 38 4 6 15 8 15 16 3 6 -10 4 -20 -6 -31 -17 -19 -18 -51 -2 -67 16 -16
28 -15 28 2 0 9 7 12 21 9 18 -5 20 -3 15 14 -4 13 -2 23 8 26 8 3 19 23 26
44 7 21 19 44 28 51 21 16 22 16 9 -13z m-2694 -564 c-2 -6 4 -11 12 -11 9 0
15 -9 15 -24 0 -13 7 -29 15 -36 9 -7 14 -19 11 -26 -3 -8 -2 -13 2 -13 20 3
32 -3 32 -16 0 -8 7 -15 15 -15 10 0 15 -10 15 -30 0 -16 0 -33 0 -37 1 -5
-14 -11 -32 -14 -18 -3 -43 -9 -55 -13 -20 -6 -23 -4 -23 18 0 32 -17 34 -23
4 -3 -17 -5 -14 -6 9 -1 25 2 31 14 27 16 -6 21 11 6 20 -16 10 -20 46 -5 46
8 0 14 -10 14 -25 0 -16 6 -25 16 -25 8 0 13 4 10 9 -4 5 -2 11 3 13 5 1 -1
24 -14 50 -12 26 -21 49 -19 51 3 2 -2 10 -11 17 -18 15 -20 44 -2 37 6 -2 11
-10 10 -16z m-953 -46 c6 13 9 -2 9 -47 1 -61 -10 -93 -22 -68 -3 6 -4 5 -2
-2 1 -7 8 -12 14 -10 6 1 11 -2 11 -8 0 -5 -6 -10 -12 -11 -10 0 -10 -2 0 -6
7 -2 12 -22 12 -44 0 -24 4 -38 10 -34 6 4 10 -6 9 -22 0 -25 -1 -26 -9 -8 -7
17 -9 16 -9 -10 -2 -47 -20 -9 -22 45 -1 28 -3 36 -6 20 -3 -14 -10 -28 -16
-32 -8 -5 -5 -13 7 -27 11 -12 15 -25 10 -33 -6 -9 -10 -6 -15 12 -6 23 -7 22
-8 -8 -1 -19 -5 -31 -11 -27 -5 3 -10 -3 -10 -14 0 -12 5 -21 10 -21 6 0 10
-5 10 -11 0 -5 -4 -7 -10 -4 -5 3 -10 -1 -10 -10 0 -9 5 -13 10 -10 6 3 10 -3
10 -14 0 -26 -17 -28 -24 -3 -9 28 -5 141 5 117 4 -12 7 12 7 60 -1 68 -2 73
-8 35 -6 -37 -7 -40 -10 -15 -4 46 0 208 5 214 3 2 5 -25 5 -60 0 -43 3 -59
10 -49 6 10 10 -2 13 -40 2 -30 4 -8 4 50 0 113 15 192 22 115 2 -32 5 -36 11
-20z m177 -64 c-3 -43 -10 -89 -17 -101 -19 -36 -6 -32 33 9 45 48 137 73 165
44 12 -12 9 -17 -10 -14 -4 0 -10 -8 -13 -19 -4 -11 -12 -20 -20 -20 -7 0 -15
-5 -17 -10 -2 -6 -14 -13 -28 -16 -22 -5 -38 -8 -87 -13 -7 0 -13 -9 -14 -18
0 -15 -2 -14 -9 3 -8 21 -46 34 -96 34 -21 0 -24 5 -24 40 0 22 4 40 9 40 10
0 34 38 47 73 3 9 10 17 15 17 15 0 10 -26 -9 -48 -13 -15 -17 -31 -14 -53 4
-30 6 -31 18 -14 8 10 14 26 14 36 0 9 7 22 15 29 8 7 15 22 15 34 0 19 16 46
28 46 2 0 1 -35 -1 -79z m93 -190 c-4 -17 -6 -47 -3 -68 5 -35 2 -40 -21 -51
-15 -7 -42 -12 -61 -12 -19 0 -35 -4 -35 -8 0 -4 -13 -9 -30 -10 -39 -3 -80
-19 -80 -32 0 -5 -16 -10 -35 -10 l-35 0 0 59 0 59 48 17 c26 9 55 21 64 26
10 5 25 9 35 9 9 0 24 7 33 15 15 14 74 32 112 34 14 1 15 -4 8 -28z m-2200
-398 c0 -83 7 -96 11 -20 5 85 20 49 18 -42 -1 -90 -19 -156 -19 -73 0 23 -2
42 -4 42 -2 0 -11 3 -20 6 -9 3 -16 1 -16 -5 0 -6 6 -11 13 -11 9 0 14 -20 15
-66 3 -63 2 -66 -18 -61 -11 3 -20 1 -20 -4 0 -6 -6 -4 -14 3 -8 7 -10 15 -6
18 4 3 11 21 14 40 5 26 4 31 -3 20 -7 -9 -11 -10 -11 -3 0 6 5 15 10 18 6 3
10 14 10 23 0 14 -2 15 -10 2 -18 -28 -23 0 -7 37 10 23 15 55 13 83 -4 46 6
70 30 70 11 0 14 -18 14 -77z m-900 -18 c0 -43 -3 -55 -16 -55 -8 0 -21 -6
-28 -12 -18 -20 -40 -78 -31 -86 4 -4 10 -1 13 7 2 7 17 28 33 45 25 27 28 29
29 11 0 -11 -8 -27 -17 -36 -10 -8 -26 -26 -35 -39 -13 -19 -19 -22 -26 -12
-7 11 -12 11 -25 -2 -23 -24 -27 -20 -27 24 0 22 -4 40 -10 40 -5 0 -7 7 -4
15 4 9 -3 24 -17 36 -17 15 -20 22 -11 31 9 9 152 83 170 87 1 1 2 -24 2 -54z
m281 23 c23 -28 24 -67 3 -83 -14 -10 -14 -15 -4 -34 6 -13 10 -23 8 -24 -2
-1 -13 -8 -25 -14 -27 -16 -53 -17 -53 -3 0 6 -8 10 -17 10 -10 0 -14 4 -8 8
6 4 11 36 12 71 1 50 5 68 19 78 26 19 43 16 65 -9z m949 -86 c0 -32 -5 -41
-25 -50 -14 -7 -37 -12 -51 -12 -13 0 -27 -7 -30 -15 -4 -8 -15 -15 -26 -15
-11 0 -34 -6 -51 -14 -18 -8 -49 -16 -69 -19 l-38 -6 0 39 c0 36 2 38 37 45
21 4 47 12 58 18 37 21 90 37 121 37 19 0 34 6 38 15 3 8 12 15 21 15 11 0 15
-11 15 -38z m-740 -400 c0 -286 3 -411 11 -419 15 -15 12 -202 -3 -220 -8 -9
-7 -13 1 -13 9 0 12 -26 10 -89 -1 -49 1 -93 4 -98 8 -12 2 -227 -7 -241 -3
-6 -1 -14 4 -17 8 -5 10 -71 9 -201 -2 -155 -5 -194 -15 -194 -9 0 -15 13 -15
38 -2 33 -2 34 -6 7 -6 -43 -23 -56 -23 -19 0 17 -3 33 -6 37 -7 7 -28 -12
-37 -33 -3 -8 -6 0 -6 18 -1 33 -21 46 -21 13 0 -10 -6 -24 -14 -30 -12 -10
-17 -7 -28 15 -20 41 -38 42 -39 2 0 -25 -2 -29 -8 -14 -7 18 -8 18 -14 3 -3
-9 -12 -17 -19 -17 -36 0 -37 25 -38 699 -1 363 -4 663 -8 665 -4 2 -5 91 -2
196 l5 193 63 33 c35 19 68 34 73 34 11 0 72 42 77 53 2 4 15 7 28 7 l24 0 0
-408z m-380 208 l0 -130 -24 0 c-13 0 -29 -6 -35 -14 -15 -18 -61 -27 -61 -11
0 6 -9 21 -20 33 -11 12 -20 26 -20 32 0 5 -4 10 -9 10 -5 0 -13 9 -16 20 -3
11 -13 20 -21 20 -8 0 -14 5 -14 10 0 14 26 12 42 -2 7 -7 22 -14 33 -16 11
-2 25 -10 31 -18 6 -8 19 -14 28 -14 9 0 16 -8 16 -21 0 -11 4 -18 8 -15 5 3
7 19 4 36 -5 32 -42 60 -81 60 -11 0 -23 5 -26 10 -3 6 -17 10 -31 10 -27 0
-34 19 -6 21 32 2 57 -3 60 -12 2 -5 13 -2 25 6 11 8 30 12 42 9 16 -4 22 -1
22 11 0 14 -11 16 -68 13 -53 -2 -65 0 -57 10 6 6 19 12 30 12 10 0 21 6 23
13 3 6 22 13 42 15 21 1 46 9 58 17 11 8 21 14 23 14 1 1 2 -57 2 -129z m-303
-58 c-10 -10 -17 -31 -17 -45 0 -15 -4 -27 -8 -27 -4 0 -6 -16 -4 -35 4 -32 6
-34 18 -18 7 10 14 37 14 61 0 23 4 42 9 42 15 0 23 -18 11 -25 -5 -3 -10 -32
-10 -63 0 -45 -4 -61 -20 -75 -11 -9 -20 -14 -20 -10 0 4 -5 2 -12 -5 -7 -7
-21 -12 -32 -12 -12 0 -33 -6 -48 -14 -24 -13 -27 -12 -31 5 -3 11 -14 19 -26
19 -12 0 -21 4 -21 9 0 6 -15 11 -32 13 l-33 4 37 17 c29 13 35 21 31 38 -3
11 -12 23 -19 26 -9 3 -14 20 -14 42 l1 36 18 -37 c10 -20 21 -52 25 -72 4
-21 13 -36 21 -36 7 0 16 -6 18 -12 3 -8 6 -4 8 7 1 11 3 25 3 30 1 6 5 16 9
23 5 7 3 12 -3 12 -12 0 -70 60 -70 72 0 5 5 8 10 8 6 0 10 -5 10 -11 0 -6 7
-9 14 -6 10 4 23 -7 36 -29 29 -46 57 -45 66 1 3 20 15 40 25 46 11 5 19 16
19 24 0 7 6 15 13 18 20 7 21 -2 4 -21z m5463 -1164 c0 -4 -4 -8 -9 -8 -14 0
0 -41 15 -47 8 -3 14 -10 14 -16 0 -6 8 -19 17 -29 14 -16 15 -21 3 -28 -10
-6 -6 -19 22 -62 20 -29 32 -56 27 -59 -5 -3 -7 -13 -3 -22 10 -26 -15 -20
-26 6 -14 34 -69 95 -70 76 0 -8 10 -26 21 -38 20 -21 20 -23 3 -19 -11 2 -22
17 -28 36 -10 35 -42 47 -33 12 3 -13 1 -18 -6 -13 -6 4 -8 -1 -5 -15 4 -15 2
-19 -8 -15 -16 6 -19 33 -3 33 6 0 8 9 4 21 -5 16 -4 19 6 14 9 -6 10 -3 4 11
-9 23 -14 83 -8 106 4 16 5 16 24 0 11 -9 27 -29 35 -44 8 -16 19 -28 24 -28
15 0 12 16 -5 34 -8 8 -15 19 -15 24 0 6 -6 12 -12 14 -8 3 -13 23 -13 51 0
40 2 45 13 30 6 -9 12 -20 12 -25z"/>
<path d="M9047 6054 c-46 -17 -56 -26 -85 -82 -18 -35 -20 -47 -11 -64 7 -14
10 -49 6 -95 l-5 -73 27 0 c37 0 61 -28 63 -76 l1 -39 6 45 c5 36 10 45 26 45
11 0 23 4 26 8 3 5 10 -11 14 -35 5 -29 9 -36 13 -23 2 11 11 24 19 28 12 8
12 12 -2 33 -14 22 -14 25 0 30 12 5 14 15 9 43 -4 20 -12 39 -18 43 -8 5 -7
8 2 8 7 0 12 7 10 16 -2 10 3 19 11 22 10 3 12 -1 8 -17 -3 -11 -2 -23 2 -25
4 -3 7 -56 7 -118 -1 -85 -4 -112 -13 -110 -14 2 -17 -26 -7 -52 5 -13 9 -14
20 -5 11 9 14 51 14 195 0 116 -4 184 -10 184 -5 0 -10 -10 -10 -22 0 -17 -3
-19 -12 -10 -12 12 -18 73 -7 82 3 3 4 22 1 43 -4 34 -7 37 -36 36 -17 -1 -48
-8 -69 -15z"/>
<path d="M10168 3538 c-1 -121 -3 -131 -7 -63 -7 100 -17 87 -20 -25 -1 -47
-6 -112 -10 -145 l-8 -60 -2 70 c-1 81 -18 78 -24 -5 -2 -30 -4 2 -5 73 -1 77
-6 127 -12 127 -6 0 -10 -46 -10 -117 -1 -100 -3 -115 -14 -101 -8 12 -12 36
-9 70 3 39 2 49 -6 38 -6 -8 -11 -32 -11 -52 0 -21 -3 -38 -7 -38 -5 0 -8 37
-7 82 1 64 0 68 -3 18 -2 -36 -6 -72 -10 -80 -3 -8 -5 -19 -4 -23 1 -5 -3 -6
-7 -3 -5 3 -8 62 -6 132 2 85 0 124 -7 122 -7 -2 -11 -40 -10 -98 0 -52 -3
-108 -7 -125 -6 -27 -7 -26 -13 20 -5 46 -6 44 -7 -25 -1 -41 2 -70 6 -63 5 8
21 8 62 -3 30 -8 62 -14 72 -14 10 0 18 -4 18 -9 0 -5 16 -15 35 -22 19 -7 35
-17 35 -21 0 -4 9 -8 21 -8 16 0 19 4 13 18 -4 9 -7 119 -6 245 2 195 0 227
-13 227 -13 0 -15 -24 -17 -142z"/>
<path d="M7725 3371 c8 -13 -6 -121 -16 -121 -4 0 -10 15 -12 33 l-4 32 -1
-32 c-2 -30 -5 -33 -36 -33 -29 0 -33 3 -29 19 3 10 0 22 -6 25 -7 5 -11 -8
-11 -38 0 -25 5 -46 10 -46 6 0 10 3 10 8 0 9 20 10 182 11 73 1 129 5 133 11
7 12 95 14 95 2 0 -12 78 -14 85 -2 5 8 11 8 21 -1 12 -10 14 -4 13 37 -2 47
-2 48 -9 14 -8 -40 -13 -31 -10 19 1 22 -2 31 -9 27 -6 -4 -11 -23 -11 -42 0
-25 -4 -34 -16 -34 -12 0 -15 7 -12 25 3 14 1 25 -3 25 -5 0 -9 -11 -9 -25 0
-45 -28 -30 -33 18 l-4 42 -1 -42 c-1 -31 -6 -43 -17 -43 -17 0 -21 40 -5 56
5 5 6 15 0 23 -6 10 -10 0 -15 -32 -11 -71 -29 -58 -22 16 3 39 3 51 -3 32 -4
-16 -8 -45 -9 -62 -1 -42 -21 -44 -21 -2 0 17 -4 28 -10 24 -5 -3 -10 -19 -10
-36 0 -26 -3 -29 -30 -29 -30 0 -30 1 -25 43 4 31 3 37 -4 22 -5 -11 -10 -30
-10 -42 -1 -14 -7 -23 -16 -23 -18 0 -20 21 -3 38 10 10 8 16 -5 29 -16 16
-17 15 -18 -27 -1 -42 -1 -43 -10 -15 -4 16 -6 39 -3 52 4 14 2 23 -5 23 -6 0
-11 -18 -11 -44 0 -31 -5 -46 -16 -50 -27 -10 -34 3 -34 65 0 35 -4 59 -11 59
-5 0 -8 -4 -4 -9z"/>
<path d="M7457 3255 c-11 -78 -13 -85 -32 -85 -9 0 -15 9 -16 23 -1 20 -2 20
-6 2 -11 -45 -23 -37 -24 16 -1 29 -3 45 -6 34 -16 -68 -25 -95 -33 -95 -5 0
-10 10 -12 22 -5 32 -28 35 -28 3 0 -20 -4 -26 -15 -22 -8 4 -17 2 -20 -3 -4
-6 -15 -10 -26 -10 -15 0 -19 7 -19 36 0 21 -4 33 -10 29 -5 -3 -10 -19 -10
-34 0 -23 -7 -32 -34 -45 -19 -9 -37 -16 -40 -16 -3 0 -7 44 -9 98 l-3 97 -2
-104 -2 -104 63 7 c34 4 82 10 107 13 25 3 48 10 52 16 4 6 10 8 14 5 4 -4 14
-3 23 1 9 5 40 12 70 15 29 3 66 15 81 26 15 11 34 20 42 20 22 0 36 20 31 41
-6 22 -23 26 -23 4 0 -8 -7 -15 -15 -15 -12 0 -14 9 -10 43 4 31 3 37 -4 22
-5 -11 -10 -32 -10 -47 -1 -20 -9 -32 -31 -43 l-29 -15 -3 62 -3 63 -8 -60z"/>
<path d="M8310 3160 c0 -5 -10 -11 -22 -11 -21 -1 -21 -2 -3 -6 29 -7 43 -23
20 -23 -17 0 -18 -2 -5 -10 20 -13 43 -13 35 0 -3 6 3 10 14 10 19 0 26 -10
22 -32 -2 -12 17 -9 21 3 4 12 58 1 58 -12 0 -5 15 -9 34 -9 18 0 52 -6 74
-14 35 -13 40 -13 35 0 -4 11 2 13 28 8 19 -4 42 -11 51 -15 10 -6 19 -5 23 1
7 11 -2 15 -55 24 -44 8 -90 28 -90 40 0 4 -7 5 -16 2 -9 -3 -30 0 -47 8 -18
8 -39 17 -47 19 -8 3 -2 6 14 6 34 1 27 13 -9 18 -24 4 -30 -4 -26 -34 2 -17
-38 -16 -69 2 l-25 14 23 1 c13 0 20 4 17 10 -3 6 -17 10 -31 10 -13 0 -24 -4
-24 -10z"/>
</g>
</svg>
