<?xml version="1.0" standalone="no"?>
<!DOCTYPE svg PUBLIC "-//W3C//DTD SVG 20010904//EN"
 "http://www.w3.org/TR/2001/REC-SVG-20010904/DTD/svg10.dtd">
<svg version="1.0" xmlns="http://www.w3.org/2000/svg"
 width="415.000000pt" height="612.000000pt" viewBox="0 0 415.000000 612.000000"
 preserveAspectRatio="xMidYMid meet">
<metadata>
Created by potrace 1.16, written by Peter Selinger 2001-2019
</metadata>
<g transform="translate(0.000000,612.000000) scale(0.100000,-0.100000)"
fill="#000000" stroke="none">
<path d="M2022 4934 c-61 -23 -86 -68 -59 -111 30 -48 11 -153 -49 -278 -57
-116 -75 -124 -217 -91 -143 33 -322 55 -514 63 -112 4 -153 3 -153 -5 0 -19
87 -77 205 -138 61 -31 176 -92 257 -137 140 -77 146 -82 137 -105 -5 -13 -6
-28 -3 -34 4 -6 2 -8 -3 -5 -10 6 -20 -12 -37 -65 -5 -17 -104 -69 -136 -72
-8 -1 -31 -12 -50 -24 -19 -12 -41 -20 -47 -17 -7 2 -16 -1 -20 -8 -5 -7 -28
-21 -53 -32 -24 -11 -55 -30 -69 -43 -13 -12 -36 -25 -49 -29 -14 -3 -40 -23
-60 -45 -25 -27 -38 -35 -47 -28 -14 12 -25 3 -25 -20 0 -8 -18 -29 -39 -46
-50 -38 -154 -151 -209 -226 -81 -110 -103 -166 -76 -192 29 -30 72 -19 184
46 59 34 310 115 380 123 111 12 140 12 235 -1 110 -15 119 -19 112 -46 -6
-23 22 -55 56 -63 21 -6 46 -41 61 -88 16 -48 -29 -97 -88 -97 -37 0 -292 -66
-394 -101 -274 -97 -398 -197 -516 -422 -64 -120 -100 -213 -158 -407 -54
-181 -82 -290 -92 -366 l-6 -49 15 40 c9 22 28 85 44 140 35 121 52 168 70
188 7 9 10 26 7 39 -3 13 -3 17 0 10 3 -6 10 -10 15 -7 5 4 6 -1 3 -9 -12 -31
6 -15 19 17 12 28 12 35 -2 57 -10 14 -11 21 -3 17 15 -10 15 -3 1 26 -8 19
-8 20 3 7 25 -28 38 -20 83 49 25 38 45 72 45 75 0 12 63 117 67 112 2 -2 -3
-18 -11 -35 -26 -49 -18 -47 17 5 25 37 30 51 20 57 -10 6 -10 13 3 33 15 22
15 24 0 18 -22 -8 -20 -1 10 49 15 25 17 32 5 17 -11 -14 -26 -32 -33 -41 -7
-8 -22 -32 -32 -52 -10 -20 -23 -34 -28 -31 -4 3 -6 10 -2 15 3 5 2 8 -3 7
-14 -5 -15 12 -3 42 11 27 30 33 30 9 0 -6 -4 -7 -10 -4 -6 4 -7 -1 -3 -11 5
-13 3 -15 -7 -9 -9 6 -11 4 -5 -4 8 -15 8 -15 60 59 42 59 55 71 66 64 4 -2
17 9 29 26 12 17 27 27 33 24 7 -4 9 -4 5 1 -4 4 -3 14 4 22 9 11 7 12 -7 6
-15 -5 -17 -3 -10 13 4 10 7 27 7 37 0 10 13 24 31 34 26 13 30 13 22 2 -5 -8
-1 -4 11 9 19 22 52 36 217 94 57 20 59 20 73 2 14 -18 15 -18 9 4 -5 18 -2
22 17 22 18 0 20 -2 8 -10 -13 -8 -12 -10 3 -10 11 0 15 -4 11 -12 -5 -7 -3
-8 5 -4 7 5 10 14 7 21 -8 21 19 25 32 4 7 -10 18 -16 26 -13 7 3 16 -2 20
-11 4 -11 12 -14 27 -10 14 5 19 3 18 -7 -3 -10 14 -51 26 -66 2 -2 14 1 27 8
22 11 22 10 4 -4 -11 -9 -30 -16 -42 -16 -12 0 -24 -5 -26 -11 -2 -7 -10 -4
-18 7 -14 16 -13 17 3 11 12 -5 16 -3 11 5 -5 8 -1 9 12 5 16 -6 16 -4 -3 12
-12 10 -20 21 -17 24 3 2 -2 7 -11 11 -9 3 -13 2 -10 -3 4 -8 -17 -20 -45 -26
-49 -10 -69 -18 -65 -25 3 -5 31 0 62 11 34 11 60 16 66 10 5 -5 -4 -12 -25
-17 -31 -7 -32 -8 -9 -13 14 -4 27 -13 29 -21 5 -13 3 -13 -13 0 -15 12 -17
12 -10 1 6 -11 2 -13 -21 -7 -19 4 -24 3 -15 -3 10 -7 2 -14 -33 -29 -25 -12
-46 -25 -46 -30 0 -5 -15 -17 -32 -26 -18 -8 -26 -16 -18 -16 8 0 -19 -21 -60
-46 -41 -26 -92 -62 -114 -80 -21 -18 -42 -32 -46 -31 -9 3 -90 -92 -90 -106
0 -6 13 4 29 24 38 46 219 178 299 218 37 19 71 30 82 26 10 -3 21 -1 25 4 3
7 0 8 -9 5 -9 -3 -16 -4 -16 -1 0 8 128 67 178 82 41 13 47 10 44 -16 -2 -10
47 -21 59 -14 5 4 7 11 4 16 -3 5 1 6 9 3 9 -3 13 -10 10 -15 -3 -5 -1 -9 5
-9 5 0 17 -3 25 -6 12 -5 15 -2 10 10 -3 8 -15 18 -26 22 -11 3 -17 8 -15 10
8 8 57 -19 51 -27 -3 -5 2 -9 11 -9 11 0 15 5 12 14 -4 10 -1 13 9 9 7 -3 14
-9 14 -13 0 -12 -90 -54 -98 -46 -3 4 -1 11 7 15 10 6 9 10 -4 15 -23 8 -27 8
-20 -4 4 -6 -1 -7 -11 -3 -12 4 -15 3 -10 -5 5 -8 1 -10 -10 -5 -13 5 -15 3
-9 -8 5 -8 1 -7 -12 4 -26 23 -36 22 -23 -3 8 -15 8 -18 -3 -14 -7 2 -13 15
-13 28 0 14 5 22 11 19 7 -2 12 3 12 12 0 10 -6 14 -14 10 -8 -3 -19 -5 -24
-5 -4 0 -6 -7 -2 -16 4 -11 -2 -23 -17 -34 -17 -13 -20 -19 -10 -25 8 -5 11
-4 7 2 -4 6 -1 13 7 16 8 3 17 0 20 -8 6 -17 -44 -31 -54 -14 -6 8 -9 8 -12
-1 -2 -7 -17 -13 -33 -14 -31 -1 -40 -19 -22 -43 6 -8 6 -13 0 -13 -5 0 -15 6
-23 13 -12 10 -12 9 0 -6 15 -21 14 -22 -51 -57 -20 -11 -39 -26 -43 -35 -3
-9 -10 -13 -16 -10 -5 3 -10 1 -10 -4 0 -6 -4 -10 -9 -9 -17 5 -99 -56 -113
-82 -6 -14 -19 -34 -27 -45 -8 -11 8 3 36 30 56 56 84 79 101 82 6 2 35 18 64
36 54 34 195 104 278 137 25 10 84 36 132 59 109 52 146 45 45 -8 -503 -264
-632 -351 -809 -551 -101 -113 -143 -167 -169 -215 -12 -22 -29 -49 -39 -60
-10 -11 -21 -31 -25 -45 -4 -14 -17 -38 -29 -55 -12 -16 -27 -43 -35 -60 -7
-16 -17 -38 -22 -47 -13 -26 -11 -32 6 -18 8 7 30 42 49 79 63 123 163 265
245 346 44 44 83 78 85 75 3 -3 43 31 88 76 46 44 92 87 102 95 19 14 19 14 0
-16 -15 -24 -15 -27 -2 -17 12 9 18 10 23 2 4 -6 4 -14 1 -17 -3 -4 -6 -1 -6
6 0 23 -19 0 -94 -112 -101 -151 -103 -153 -156 -222 -26 -33 -55 -76 -66 -95
-10 -19 -34 -56 -51 -82 -37 -54 -39 -60 -18 -52 8 4 13 10 10 14 -3 4 2 11
11 14 9 3 12 11 8 18 -4 7 -4 10 1 6 4 -4 14 -3 22 3 19 17 16 3 -10 -39 -26
-41 -67 -128 -67 -139 0 -5 19 26 41 67 23 41 57 99 75 127 39 60 39 61 20 59
-8 0 -15 2 -15 7 -1 4 2 7 7 8 4 0 16 8 27 18 11 10 28 17 37 16 10 -2 21 2
25 7 3 7 1 8 -5 4 -17 -10 -15 -1 8 44 11 22 25 40 30 40 5 0 0 -16 -11 -35
-12 -19 -18 -35 -15 -35 8 0 61 93 61 107 0 7 4 12 9 12 5 0 12 5 17 12 9 14
39 21 39 9 0 -4 -13 -38 -30 -75 -16 -36 -26 -63 -21 -61 5 3 12 -1 15 -10 3
-8 2 -12 -4 -9 -9 5 -15 -15 -11 -37 0 -5 -3 -8 -9 -8 -5 0 -19 -18 -30 -39
-11 -22 -41 -66 -68 -98 -77 -93 -131 -178 -123 -192 6 -9 10 -5 15 13 6 26
82 106 101 106 15 1 135 171 188 267 54 99 88 191 81 224 -4 17 -3 20 4 10 7
-9 14 9 26 65 28 128 35 137 29 39 -9 -151 -23 -191 -137 -391 -22 -38 -68
-113 -103 -168 -35 -54 -62 -101 -59 -104 5 -4 -53 -92 -61 -92 -6 0 6 19 35
58 13 17 22 32 19 32 -3 0 -33 -37 -67 -81 -35 -45 -56 -78 -49 -73 8 4 1 -6
-16 -24 -31 -33 -81 -115 -116 -189 -11 -23 -24 -45 -29 -48 -6 -3 -10 -16
-10 -28 1 -15 10 -4 30 35 32 61 50 80 50 51 1 -13 5 -11 16 10 18 33 27 35
20 5 -4 -15 -1 -12 9 7 8 17 14 37 15 45 0 13 1 13 10 0 5 -8 12 -11 16 -7 4
3 1 14 -7 24 -9 11 -10 14 -1 9 6 -4 12 -2 12 3 0 6 5 11 11 11 5 0 8 -4 4 -9
-3 -6 3 -9 14 -8 16 1 18 4 8 16 -9 11 -9 13 0 8 6 -4 15 -3 18 3 5 8 11 7 21
-1 12 -10 13 -9 8 5 -3 9 -1 16 6 16 6 0 8 5 5 10 -3 6 -1 10 4 10 6 0 11 7
11 15 0 8 5 15 11 15 6 0 8 -7 5 -15 -17 -42 -13 -44 6 -2 12 26 25 47 30 47
7 0 -5 -40 -32 -105 -5 -11 -13 -33 -18 -50 -6 -16 -13 -39 -18 -49 -5 -13 -4
-17 4 -12 6 4 23 42 36 86 14 44 32 95 40 114 l14 34 -29 -8 c-20 -6 -27 -5
-23 2 4 6 0 14 -7 19 -9 6 -10 9 -2 9 6 0 15 -5 18 -10 4 -7 12 -7 24 0 10 5
21 6 25 3 3 -3 6 4 6 17 0 23 0 23 -15 4 -8 -10 -15 -14 -15 -7 0 6 10 20 23
30 12 10 29 33 36 50 7 18 20 33 28 33 11 0 13 -5 8 -18 -4 -9 -7 -25 -7 -35
0 -9 -3 -15 -7 -13 -11 7 -30 -36 -37 -82 -3 -21 -9 -39 -13 -42 -3 -3 -7 -16
-9 -29 -1 -14 -1 -23 2 -20 9 9 71 175 70 187 -1 6 2 12 6 12 4 0 13 18 20 41
17 49 27 58 26 20 -1 -16 -5 -27 -9 -24 -7 4 1 -46 9 -55 1 -2 12 25 23 60 11
34 32 97 46 138 15 41 27 99 28 128 1 30 4 47 7 40 4 -12 9 -12 30 -1 14 7 19
13 11 13 -9 0 -11 7 -7 22 4 13 14 50 22 83 18 67 38 101 28 45 -4 -19 -13
-54 -20 -78 -7 -23 -8 -44 -3 -47 5 -3 12 12 15 35 4 22 10 40 15 40 5 0 8 16
7 35 -1 19 2 38 7 43 4 4 5 -3 2 -15 -8 -36 2 -27 19 17 9 22 20 40 25 40 12
0 11 -6 -6 -41 -9 -16 -13 -34 -10 -38 3 -5 0 -12 -5 -14 -6 -3 -6 -5 1 -3 6
1 21 29 33 61 l22 60 -23 2 c-45 4 -52 7 -57 19 -6 17 35 9 46 -8 6 -10 8 -10
8 0 0 9 10 12 30 8 37 -5 39 1 4 14 -20 8 -24 15 -19 31 5 15 4 19 -4 15 -6
-4 -11 -2 -11 4 0 7 7 9 16 6 9 -3 18 -6 21 -6 3 0 0 -7 -7 -15 -10 -12 -8
-16 11 -24 28 -10 39 -6 39 15 0 19 28 73 48 94 14 13 15 13 10 -5 -4 -11 -18
-49 -33 -83 -15 -35 -25 -66 -23 -68 3 -2 15 21 27 52 17 39 28 54 38 50 8 -3
29 -6 46 -7 31 0 31 -1 9 -12 -18 -8 -28 -8 -43 1 -17 11 -21 9 -30 -14 -5
-15 -8 -32 -5 -38 3 -7 5 -6 5 2 1 6 6 12 11 12 13 0 1 -52 -14 -62 -8 -5 -7
-8 2 -8 6 0 12 -5 12 -11 0 -6 -7 -9 -15 -5 -8 3 -15 1 -15 -4 0 -6 11 -10 24
-10 19 0 30 12 55 62 17 34 31 57 31 50 0 -7 5 -10 11 -7 6 4 8 13 5 21 -3 7
0 16 6 20 7 5 8 2 3 -6 -6 -9 -4 -11 4 -5 7 4 11 16 8 26 -3 12 -1 17 6 12 6
-4 8 -1 5 8 -9 24 9 59 27 53 10 -4 14 -13 11 -23 -5 -14 -5 -14 6 0 14 16 48
33 48 22 0 -3 -14 -30 -31 -59 -17 -30 -27 -59 -23 -65 4 -8 3 -9 -4 -5 -6 4
-18 -6 -26 -23 -12 -23 -13 -31 -3 -34 8 -4 6 -6 -4 -6 -8 -1 -26 -20 -39 -43
-12 -22 -18 -38 -13 -35 15 9 26 -24 13 -37 -8 -8 -9 -6 -5 6 8 21 -19 26 -31
6 -5 -7 -3 -8 6 -3 8 5 11 3 9 -4 -3 -7 -8 -12 -13 -11 -15 3 -26 -24 -13 -32
9 -6 7 -12 -5 -22 -10 -7 -15 -16 -11 -19 3 -4 12 1 19 11 7 9 14 12 14 5 0
-6 -12 -21 -27 -33 -16 -12 -22 -19 -15 -15 13 7 12 -20 -1 -42 -5 -7 -4 -13
1 -13 4 0 30 43 56 95 44 87 80 138 63 89 -7 -18 -6 -18 7 -1 14 18 76 24 76
7 0 -5 -4 -10 -9 -10 -5 0 -12 -11 -15 -25 -4 -14 -10 -25 -15 -25 -11 0 -9
19 2 37 5 8 3 13 -7 13 -9 0 -16 -5 -16 -12 0 -6 -14 -40 -30 -75 -31 -66 -64
-173 -55 -181 3 -3 8 9 11 26 4 18 11 32 16 32 5 0 6 -10 2 -22 -15 -51 -13
-51 11 -1 21 45 28 52 50 51 16 -2 24 -7 21 -15 -3 -7 1 -13 9 -13 8 0 15 -9
15 -20 0 -11 -5 -20 -11 -20 -6 0 -9 7 -5 15 3 8 2 15 -3 15 -8 0 -18 -27 -27
-79 -6 -31 -12 -41 -25 -41 -6 0 -8 13 -5 33 5 29 5 29 -9 -8 -19 -48 -14 -65
20 -65 28 0 29 -3 15 -31 -8 -15 -7 -19 4 -19 7 0 13 7 12 16 0 9 4 18 9 20 6
2 10 -15 10 -40 0 -24 -4 -42 -9 -39 -5 4 -6 -6 -2 -21 5 -20 3 -26 -9 -26 -9
0 -13 -4 -10 -10 4 -6 -5 -10 -19 -10 -21 0 -26 -5 -25 -22 1 -17 2 -19 6 -5
6 23 33 22 33 -3 0 -13 5 -18 15 -14 8 4 15 1 15 -5 0 -6 -17 -11 -40 -11 -22
0 -40 -4 -40 -10 0 -5 7 -7 16 -3 9 3 20 0 25 -8 6 -10 9 -10 9 -1 0 6 5 12
10 12 6 0 10 -11 10 -25 0 -14 -4 -25 -9 -25 -5 0 -7 -9 -4 -20 8 -29 15 -18
20 32 10 82 23 76 21 -9 -2 -46 -5 -83 -8 -83 -3 0 -6 -42 -7 -94 -1 -52 -9
-125 -18 -164 -10 -39 -15 -76 -12 -84 3 -7 6 0 6 15 1 16 5 26 10 23 5 -3 8
0 8 7 -1 6 3 39 8 72 7 47 10 55 15 35 3 -14 10 61 14 165 13 350 26 581 36
630 7 37 8 38 9 9 2 -53 56 -84 115 -64 26 8 38 21 50 51 20 48 13 103 -15
123 -21 14 -15 26 13 26 11 0 18 7 18 20 0 11 -4 20 -10 20 -5 0 -7 -7 -4 -15
4 -8 1 -15 -5 -15 -6 0 -11 5 -11 10 0 6 -10 10 -22 10 -19 0 -20 2 -8 10 17
10 23 50 8 50 -5 0 -7 -8 -3 -18 4 -15 0 -19 -24 -20 -22 0 -30 5 -35 21 -8
32 -7 37 7 31 10 -4 12 3 9 26 -6 40 17 40 25 -1 4 -24 10 -29 24 -26 14 4 21
-3 29 -26 9 -29 9 -28 4 11 -5 36 -3 42 13 43 16 0 16 1 -2 9 -18 8 -18 9 -2
9 21 1 35 -28 18 -39 -17 -10 -4 -100 15 -100 7 0 15 -14 17 -32 4 -32 4 -32
5 5 2 28 6 37 20 36 10 0 12 -3 5 -6 -7 -2 -13 -12 -13 -21 0 -15 2 -15 11 -2
8 11 12 12 16 3 3 -10 8 -10 19 1 8 8 14 19 14 25 0 6 6 11 13 11 8 0 7 3 -3
9 -18 12 -31 5 -23 -14 3 -8 0 -15 -6 -15 -6 0 -11 7 -11 15 0 9 -6 12 -15 9
-20 -8 -19 3 2 24 16 16 15 17 -5 20 -25 4 -30 22 -6 22 8 0 12 5 8 11 -4 8 6
9 37 5 24 -3 37 -3 29 2 -9 4 -16 15 -16 25 -2 32 -4 37 -14 37 -6 0 -6 -9 0
-24 8 -22 6 -24 -26 -28 -19 -2 -34 0 -34 4 0 4 6 8 13 8 8 0 7 4 -3 10 -8 5
-10 10 -3 10 6 0 9 8 6 19 -3 13 -12 18 -25 16 -24 -5 -37 -15 -20 -15 7 0 12
-6 12 -14 0 -9 -7 -12 -18 -9 -17 4 -17 8 -3 69 9 38 20 64 28 64 7 0 13 -5
13 -11 0 -5 -4 -8 -9 -5 -9 6 -21 -25 -21 -56 0 -15 4 -16 25 -8 20 7 25 6 25
-5 0 -8 4 -15 10 -15 5 0 7 7 4 15 -4 8 -1 15 5 15 6 0 11 -7 11 -15 0 -8 9
-15 21 -15 11 0 18 -4 15 -8 -2 -4 0 -14 5 -22 7 -11 8 -7 5 13 -3 15 0 27 5
27 5 0 9 -13 9 -30 0 -16 -5 -30 -11 -30 -6 0 -3 -7 5 -16 14 -13 33 -87 29
-105 -1 -3 10 -4 25 -1 23 4 25 3 15 -9 -16 -19 -6 -59 13 -52 8 3 14 0 14 -6
0 -6 -8 -11 -17 -12 -15 0 -15 -2 2 -9 18 -7 18 -8 -7 -15 -24 -6 -25 -9 -13
-21 15 -15 75 -19 75 -5 0 5 9 7 20 4 11 -3 17 -9 14 -14 -3 -5 0 -9 5 -9 6 0
11 14 11 30 0 17 5 30 12 30 9 0 9 3 0 12 -7 7 -12 20 -12 30 0 12 -5 16 -17
12 -14 -5 -15 -4 -4 4 11 8 11 10 0 15 -10 4 -9 6 3 6 9 1 20 -9 23 -20 6 -16
9 -18 15 -8 5 7 6 17 3 22 -3 5 0 8 8 5 8 -2 15 -17 17 -31 2 -15 7 -27 12
-27 4 0 6 9 3 20 -3 11 0 20 6 20 6 0 10 -3 10 -7 -1 -5 -1 -17 1 -28 l1 -20
9 20 c8 19 9 19 9 -1 1 -25 -29 -41 -41 -22 -5 9 -8 3 -8 -15 0 -20 4 -26 13
-20 21 13 37 12 37 -3 0 -8 -8 -14 -17 -15 -14 0 -13 -2 5 -9 12 -5 22 -15 21
-22 0 -10 -2 -10 -6 0 -11 28 -20 9 -16 -38 2 -29 -1 -50 -7 -50 -6 0 -10 -5
-10 -11 0 -5 5 -7 10 -4 6 3 10 1 10 -4 0 -6 -4 -11 -10 -11 -5 0 -10 -5 -10
-11 0 -5 5 -7 11 -3 7 4 10 -14 7 -60 -1 -36 0 -66 3 -66 3 0 6 -44 8 -97 1
-54 4 -100 7 -102 2 -2 4 47 4 109 0 62 3 110 7 106 4 -4 6 -35 5 -69 -1 -34
1 -68 6 -74 10 -15 16 118 15 334 0 140 5 175 21 141 5 -10 7 -10 12 0 12 25
22 11 29 -40 9 -59 8 -55 19 -87 6 -16 4 -26 -5 -32 -9 -6 -2 -9 23 -9 31 0
35 3 31 20 -4 16 0 20 21 20 29 0 37 -20 9 -21 -14 0 -13 -2 5 -9 32 -13 28
-17 -25 -19 -26 -1 -48 -3 -49 -4 -2 -2 1 -16 5 -33 9 -29 9 -29 10 -3 1 23 5
26 41 26 26 0 40 -5 40 -13 0 -7 3 -19 6 -28 3 -9 1 -16 -5 -16 -6 0 -11 10
-11 23 0 21 -4 23 -32 19 -18 -3 -27 -7 -20 -9 17 -6 15 -33 -3 -33 -18 0 -19
-35 -5 -130 16 -100 21 -170 11 -140 -8 23 -9 24 -10 3 -1 -24 -23 -43 -29
-25 -5 16 -32 -11 -32 -32 0 -9 -8 -16 -17 -17 -15 0 -15 -2 2 -9 11 -5 14 -9
8 -9 -10 -1 -13 -30 -11 -118 l2 -118 6 115 c4 73 7 95 9 60 2 -49 4 -52 11
-26 5 16 7 33 4 38 -3 5 16 8 43 6 48 -3 48 -3 47 27 -1 33 -8 88 -30 239 -8
55 -14 105 -14 113 0 19 28 16 33 -5 4 -14 5 -14 6 3 1 17 3 18 11 5 6 -10 10
-11 10 -2 0 19 20 14 21 -5 0 -14 2 -13 9 5 11 26 22 29 18 5 -2 -12 3 -18 15
-17 9 1 17 -2 17 -7 0 -5 -13 -9 -30 -9 -16 0 -30 -4 -30 -9 0 -5 9 -7 19 -4
14 4 21 -1 24 -19 4 -23 4 -23 6 0 0 12 6 22 12 22 6 0 8 -9 4 -21 -5 -14 -3
-19 3 -15 6 3 13 2 16 -3 4 -5 -4 -12 -16 -14 -13 -2 -4 -5 20 -6 40 -1 56
-14 30 -24 -10 -4 -10 -6 0 -6 17 -1 15 -31 -2 -31 -8 0 -17 6 -19 13 -4 9 -6
9 -6 0 -1 -8 -14 -13 -33 -13 -22 0 -29 3 -20 9 11 7 11 9 -2 14 -9 4 -16 2
-16 -4 0 -6 -4 -7 -10 -4 -5 3 -10 15 -10 26 0 11 -5 17 -10 14 -7 -4 -7 -12
0 -24 5 -10 6 -22 2 -26 -4 -5 -2 -5 5 -1 18 10 33 -26 34 -81 1 -28 4 -37 6
-21 4 22 9 26 33 26 26 -1 31 -6 36 -36 4 -20 7 -61 8 -93 1 -31 5 -55 10 -52
4 3 5 -3 2 -13 -3 -11 5 -62 19 -114 13 -52 22 -77 19 -55 -3 22 -6 54 -7 72
-1 17 -5 35 -9 39 -5 4 -8 24 -8 44 0 20 -4 61 -10 91 -5 30 -11 74 -14 97 -5
46 -16 66 -23 45 -3 -7 -15 -13 -28 -13 -16 0 -24 7 -27 25 -4 17 -1 25 8 25
8 0 14 -6 14 -12 0 -9 3 -9 8 -2 4 5 28 11 55 11 36 1 47 -2 47 -14 0 -10 -6
-14 -20 -10 -12 3 -20 0 -20 -7 0 -7 10 -12 21 -12 12 1 24 -5 26 -11 3 -7 -3
-13 -14 -13 -17 -1 -17 -1 0 -11 20 -12 22 -26 5 -32 -7 -2 -3 -2 10 0 12 2
22 -2 22 -8 0 -7 3 -9 6 -6 4 4 1 13 -5 21 -7 8 -8 17 -3 20 13 8 22 -4 22
-31 0 -18 -6 -23 -27 -24 -16 0 -21 -3 -13 -6 8 -2 22 -7 30 -10 8 -4 18 -6
22 -5 8 2 30 -89 31 -133 1 -19 4 -30 7 -25 3 5 12 -12 19 -38 64 -226 65
-171 2 74 -103 396 -164 569 -272 761 -63 112 -193 238 -345 335 -65 42 -158
104 -206 139 -48 35 -109 79 -135 98 -27 19 -56 45 -66 57 -17 23 -17 24 4 24
12 0 37 -14 56 -31 19 -17 41 -28 49 -25 7 3 16 0 20 -6 5 -7 2 -8 -6 -3 -9 5
-11 4 -6 -4 11 -17 90 -56 81 -39 -6 10 -5 11 6 1 18 -18 30 -16 23 2 -4 8
-13 15 -21 15 -18 0 -65 35 -57 43 5 5 -54 22 -67 19 -3 0 -6 5 -6 13 0 8 3
13 6 11 3 -1 23 -10 44 -20 20 -9 37 -20 37 -24 0 -4 12 -13 28 -20 45 -20 78
-42 63 -42 -7 0 -11 -6 -8 -14 3 -8 1 -17 -6 -20 -7 -3 -3 -4 8 -3 11 1 20 -4
20 -11 0 -7 14 -22 32 -33 l32 -20 -12 24 c-8 17 -17 23 -32 20 -16 -4 -17 -3
-5 6 23 16 35 14 84 -19 30 -21 53 -29 68 -25 16 3 32 -3 53 -21 l30 -26 -35
20 c-22 13 -45 18 -61 15 -15 -3 -30 0 -33 6 -4 6 -12 11 -18 11 -7 0 -6 -6 2
-15 15 -18 -1 -20 -19 -2 -11 9 -12 9 -7 0 4 -7 16 -18 28 -24 15 -8 19 -8 14
0 -10 15 0 14 32 -5 25 -15 25 -15 8 0 -19 16 -19 16 6 16 27 0 43 -12 31 -24
-11 -10 -12 -37 -2 -30 5 3 6 10 3 16 -5 7 3 9 21 5 16 -2 39 0 52 6 19 8 27
7 41 -6 17 -18 7 -23 -17 -8 -9 6 -22 6 -34 -1 -18 -9 -17 -11 12 -25 17 -9
29 -19 26 -23 -3 -4 3 -7 13 -6 11 1 16 -5 14 -16 -1 -9 12 -27 30 -40 18 -13
51 -37 73 -54 22 -16 46 -28 53 -26 7 2 11 -3 10 -10 -2 -7 2 -12 8 -11 11 2
140 -116 138 -126 -3 -11 8 -31 15 -27 3 2 19 -22 35 -54 17 -33 33 -57 37
-54 7 4 42 -54 123 -211 26 -49 56 -98 67 -107 11 -10 18 -22 15 -27 -9 -14
15 -62 27 -54 5 3 7 -3 3 -13 -3 -11 4 -44 14 -74 12 -32 18 -41 14 -23 -3 20
-1 33 5 33 6 0 8 12 4 32 -4 22 -3 29 5 24 7 -4 12 -13 12 -19 1 -7 16 -43 35
-82 19 -38 32 -56 28 -40 -4 17 -7 58 -7 92 -1 34 -3 60 -6 58 -3 -2 -5 7 -6
18 0 12 -4 39 -8 60 -5 23 -5 37 2 37 6 0 8 -10 6 -22 -4 -23 -4 -23 6 0 5 13
7 29 3 35 -4 7 -8 17 -8 22 -2 31 -18 74 -26 69 -5 -3 -9 -2 -7 3 2 10 -18 83
-41 148 -10 28 -21 64 -25 80 l-6 30 15 -25 16 -25 -7 25 c-7 26 -136 309
-167 368 -10 18 -34 51 -53 72 -20 22 -33 44 -30 49 4 5 1 13 -5 17 -8 4 -9 3
-5 -4 13 -21 -5 -13 -47 22 -53 43 -240 156 -267 161 -26 5 -80 37 -80 47 0
12 35 9 48 -4 7 -7 12 -8 12 -4 0 5 10 2 23 -6 31 -20 59 -30 52 -18 -3 6 -13
10 -21 10 -8 0 -13 4 -9 10 7 11 29 4 78 -28 20 -14 40 -22 44 -18 3 3 0 6 -8
6 -10 1 -8 4 4 11 14 8 27 5 60 -16 l42 -26 -30 26 c-16 14 -38 28 -47 31 -10
3 -18 10 -18 15 0 5 -9 9 -19 9 -11 0 -27 7 -35 16 -9 8 -16 12 -16 8 0 -3 -6
-2 -12 4 -7 6 -17 11 -23 12 -34 7 -48 17 -36 25 7 4 16 3 20 -2 3 -5 22 -14
41 -19 28 -9 42 -7 73 8 32 16 43 17 77 7 22 -7 40 -16 40 -21 0 -5 5 -6 10
-3 6 3 10 1 10 -4 0 -6 9 -11 20 -11 27 0 90 -31 84 -42 -3 -4 -10 -8 -15 -8
-6 0 -7 5 -3 12 5 7 2 9 -9 5 -8 -3 -21 1 -27 9 -7 8 -20 14 -29 14 -9 0 -31
9 -50 21 -18 11 -38 18 -44 16 -7 -2 19 -18 57 -36 47 -23 64 -36 55 -41 -7
-5 -17 -6 -23 -3 -5 3 -6 1 -2 -5 5 -9 13 -9 26 -2 23 12 43 13 36 1 -9 -14
28 -8 37 6 4 7 14 10 23 6 11 -4 12 -8 3 -19 -9 -12 -9 -13 4 -8 23 8 43 -6
26 -18 -11 -7 -9 -8 5 -4 13 4 26 -2 41 -20 21 -24 22 -29 8 -42 -13 -13 -19
-13 -37 -3 -17 11 -19 11 -8 0 14 -16 16 -33 2 -24 -5 3 -10 1 -10 -4 0 -15
12 -14 36 3 18 13 22 13 37 -4 11 -13 13 -22 5 -26 -5 -4 -14 0 -19 7 -6 9 -9
10 -9 2 0 -6 5 -15 10 -18 6 -3 10 -11 10 -17 0 -6 -6 -5 -16 3 -10 8 -8 -1 7
-25 25 -42 45 -54 62 -37 8 8 8 11 -1 11 -7 0 -12 5 -12 10 0 16 17 12 24 -6
4 -10 -2 -24 -15 -35 -24 -21 -19 -25 11 -9 25 13 38 -7 15 -23 -22 -17 -10
-46 16 -40 10 3 19 1 20 -3 0 -5 2 -20 5 -33 l4 -24 -21 24 c-11 13 -18 19
-15 12 9 -17 -15 -28 -25 -12 -5 8 -6 21 -3 29 3 8 2 11 -2 8 -8 -8 -32 22
-59 74 -10 21 -21 36 -23 33 -5 -5 97 -193 110 -201 6 -4 6 2 -1 14 -8 16 -8
23 1 28 6 4 14 2 16 -4 2 -7 11 -12 19 -12 10 0 14 -6 10 -20 -3 -10 -1 -20 3
-22 5 -2 11 -20 14 -42 4 -21 9 -42 12 -47 3 -5 0 -9 -6 -9 -7 0 -5 -7 4 -16
17 -16 22 -54 8 -54 -5 0 -44 70 -86 156 -43 85 -90 170 -105 187 -16 18 -40
51 -55 75 -14 23 -31 42 -38 42 -7 0 -5 -7 5 -18 29 -31 186 -359 216 -449 16
-48 39 -137 52 -198 12 -60 28 -127 35 -149 8 -21 14 -53 14 -70 0 -17 5 -38
11 -46 7 -11 8 2 3 44 -5 43 -4 57 5 52 13 -9 15 6 2 20 -5 5 -12 47 -16 94
-3 49 -2 81 3 75 12 -14 65 -282 64 -325 -1 -32 0 -33 9 -11 6 16 5 53 -5 115
-8 50 -25 154 -36 231 -23 144 -123 516 -166 612 -50 115 -145 221 -230 259
-30 13 -96 33 -147 44 -51 11 -110 27 -131 36 -42 16 -146 110 -146 132 0 22
-48 89 -87 121 -37 30 -52 53 -93 139 l-20 44 26 31 c25 30 26 36 20 104 -3
40 -2 73 2 73 11 0 40 59 47 96 3 17 17 42 31 55 l24 23 138 -43 c75 -24 166
-54 200 -67 114 -44 252 -68 252 -45 0 28 -218 267 -370 406 l-55 50 0 95 c1
109 9 130 115 291 56 84 60 95 54 133 -8 60 -27 88 -86 133 -66 50 -99 67
-168 89 -30 9 -84 30 -120 47 -150 68 -147 68 -315 78 -88 5 -176 11 -195 14
-19 2 -54 -3 -78 -11z m133 -35 c5 -5 27 -9 50 -8 35 1 37 2 15 9 -46 15 83
11 164 -5 42 -8 84 -12 94 -9 13 5 14 4 3 -4 -14 -10 26 -28 182 -80 42 -14
77 -30 77 -37 0 -6 7 -20 16 -31 15 -18 15 -18 5 3 -18 36 22 41 70 8 53 -37
49 -43 -7 -10 -25 15 -48 24 -51 21 -3 -3 5 -10 18 -15 22 -8 149 -97 149
-104 0 -1 -9 -3 -19 -3 -11 0 -18 3 -15 7 7 12 -37 22 -48 11 -6 -6 5 -16 31
-29 23 -11 41 -16 41 -11 0 5 9 4 21 -3 15 -8 18 -14 10 -22 -7 -7 -7 -15 2
-25 10 -13 8 -14 -18 -9 l-30 7 25 -15 c22 -13 21 -20 -3 -16 -5 1 -6 -3 -2
-9 3 -5 -1 -13 -10 -16 -10 -4 -13 -9 -6 -13 6 -4 1 -12 -12 -20 -20 -13 -21
-13 -9 2 17 20 -1 32 -25 17 -16 -10 -16 -11 2 -6 18 5 18 4 3 -6 -15 -11 -15
-13 0 -25 9 -7 13 -13 7 -12 -17 3 -45 -13 -39 -22 7 -12 -3 -11 -28 2 -12 7
-18 7 -14 1 3 -6 0 -13 -6 -16 -7 -2 -3 -4 9 -3 12 1 22 -2 21 -8 0 -5 -4 -9
-9 -8 -13 4 -11 -11 4 -26 10 -10 6 -10 -17 -1 -16 6 -31 8 -34 5 -3 -3 0 -5
7 -5 8 0 11 -6 7 -15 -3 -8 -9 -23 -12 -32 -6 -17 -6 -17 7 -1 10 13 18 15 29
8 12 -8 12 -10 -5 -10 -17 0 -17 -2 -5 -10 12 -8 10 -10 -9 -10 -20 0 -22 -2
-10 -16 12 -15 10 -15 -21 -1 -56 23 -107 57 -87 57 9 0 17 5 17 10 0 7 -7 7
-20 0 -12 -6 -31 -8 -43 -4 -12 5 -27 7 -33 6 -14 -3 -157 48 -164 58 -10 15
-48 30 -52 20 -2 -5 -29 3 -61 18 -32 15 -55 31 -51 34 3 4 -5 10 -20 14 -14
3 -23 10 -20 15 3 5 -3 6 -12 2 -10 -3 -15 -2 -12 3 3 5 -6 10 -20 10 -23 1
-57 14 -116 42 -5 3 -5 -1 -1 -8 8 -13 -13 -9 -74 16 -40 17 -37 29 3 14 20
-7 25 -7 20 1 -4 7 -1 10 7 7 8 -3 13 -11 12 -17 -4 -17 17 -13 23 4 4 8 10
15 16 15 5 0 6 -5 2 -12 -5 -7 -3 -8 5 -4 7 5 19 0 27 -10 9 -11 13 -14 10 -7
-4 6 3 15 15 18 17 6 19 9 8 16 -19 12 -32 11 -24 -1 3 -6 -1 -7 -9 -4 -9 3
-14 10 -11 14 6 9 -23 22 -35 15 -4 -3 -10 2 -13 9 -3 8 -1 17 6 20 9 5 9 7
-1 12 -6 3 -10 10 -6 15 3 5 -1 9 -8 9 -10 0 -9 3 2 11 12 8 11 9 -5 5 -16 -5
-21 -1 -22 14 -2 17 2 20 20 15 15 -4 18 -3 9 3 -10 7 -5 11 20 17 l33 7 -32
11 c-18 5 -33 14 -33 19 0 5 4 7 9 3 6 -3 15 3 21 12 10 15 11 15 6 1 -3 -11
3 -18 22 -23 15 -3 36 -8 47 -11 14 -3 12 0 -6 10 -15 9 -29 22 -33 31 -7 19
-2 19 18 -1 15 -14 16 -14 17 3 0 16 1 16 9 -2 8 -19 9 -19 9 2 1 22 5 21
-142 49 -33 7 -28 18 19 42 35 18 110 19 129 1z m-169 -397 c23 -11 57 -18 84
-17 61 3 142 -20 217 -61 39 -21 68 -32 79 -27 10 4 15 2 11 -3 -10 -18 10
-37 29 -29 18 7 18 8 -1 15 -11 5 -15 9 -8 9 20 2 124 -42 115 -48 -5 -3 -8
-14 -7 -23 2 -9 -4 -25 -12 -35 -14 -17 -14 -17 -9 0 4 11 2 16 -5 12 -6 -4
-8 -13 -5 -20 2 -7 -1 -18 -7 -25 -9 -10 -9 -11 3 -4 20 12 70 13 63 1 -3 -6
-1 -7 5 -3 6 3 13 2 17 -4 3 -5 11 -10 18 -10 6 0 3 6 -8 13 -21 16 -15 32 15
40 13 3 18 1 13 -6 -4 -6 2 -8 16 -4 14 3 24 0 28 -9 6 -17 24 -19 21 -2 -2 7
-25 22 -51 35 -51 24 -88 31 -49 10 l23 -13 -26 -12 c-20 -9 -25 -9 -19 0 5 8
1 9 -12 5 -17 -6 -17 -6 -3 5 9 7 15 21 13 30 -2 20 0 19 115 -34 46 -21 81
-41 78 -45 -4 -3 -13 0 -22 7 -10 9 -15 9 -16 1 -1 -6 -2 -17 -3 -23 -1 -9
-14 -12 -39 -10 -25 3 -37 0 -35 -8 2 -7 -3 -15 -11 -18 -8 -2 -11 0 -8 5 4 6
-18 19 -48 31 -31 11 -57 16 -60 12 -4 -6 72 -37 85 -34 3 1 13 -8 23 -18 19
-20 18 -20 -3 -13 -13 4 -45 18 -73 30 -27 13 -56 21 -65 18 -11 -5 -13 -3 -7
7 6 10 3 12 -13 8 -14 -4 -20 -2 -15 5 4 7 0 8 -11 4 -10 -4 -77 15 -164 47
-81 30 -194 71 -252 91 -118 42 -145 54 -118 55 9 0 24 3 34 7 11 4 15 3 11
-4 -7 -11 22 -28 31 -18 3 3 0 5 -7 5 -8 0 -9 5 -2 18 13 25 9 56 -9 64 -13 6
-13 7 1 7 8 1 33 -7 55 -17z m-631 -28 c65 -19 99 -22 130 -10 13 5 12 2 -5
-9 l-25 -16 25 8 c38 12 94 7 134 -12 21 -10 51 -18 67 -17 16 0 31 -3 34 -8
3 -4 -3 -6 -14 -3 -10 3 -21 1 -24 -4 -7 -11 44 -13 65 -2 11 6 18 5 21 -4 3
-9 7 -9 20 1 12 10 20 11 34 2 16 -10 16 -10 -4 -5 -12 3 -24 1 -28 -5 -3 -5
-1 -10 5 -10 6 0 8 -4 5 -10 -3 -5 -11 -10 -16 -10 -6 0 -8 3 -6 8 3 4 -5 8
-18 8 -16 1 -22 -3 -18 -11 2 -8 12 -11 20 -8 10 4 14 2 10 -4 -5 -8 5 -10 28
-9 19 2 35 -1 35 -5 0 -5 7 -5 17 -2 11 4 14 3 9 -5 -5 -8 -1 -10 10 -5 12 4
15 3 10 -5 -12 -19 -1 -14 20 9 19 22 19 22 -8 15 -28 -6 -39 7 -15 18 6 3 -1
4 -18 1 -16 -2 -24 -2 -17 1 6 3 10 9 7 13 -2 5 13 3 35 -3 22 -5 40 -16 40
-23 0 -10 8 -11 28 -7 24 7 26 6 13 -9 -7 -10 -11 -18 -7 -18 23 -5 34 -4 53
2 21 8 21 6 11 -16 -6 -14 -15 -25 -20 -25 -4 0 -8 -6 -8 -12 1 -7 9 -3 19 9
10 12 21 19 25 16 3 -3 13 0 23 8 11 9 14 10 9 2 -4 -7 -2 -13 3 -13 6 0 11
-5 11 -11 0 -6 -6 -9 -13 -6 -7 3 -13 -3 -13 -14 0 -15 3 -16 16 -5 32 28 41
29 39 4 -5 -58 13 -82 25 -33 6 22 12 25 41 23 19 -1 35 -2 35 -3 0 0 -4 -15
-9 -33 -6 -20 -6 -32 0 -32 5 0 9 6 9 13 0 9 3 8 9 -2 5 -8 11 -9 15 -3 6 10
33 5 79 -13 19 -8 22 -41 7 -65 -9 -13 -10 -13 -10 0 0 13 -1 13 -10 0 -8 -12
-10 -12 -15 2 -4 10 -14 14 -26 11 -15 -4 -19 0 -20 18 0 13 -3 18 -6 12 -2
-7 -10 -13 -16 -13 -18 0 -167 74 -167 83 0 4 -4 5 -10 2 -15 -9 -81 25 -73
39 5 7 2 7 -8 -1 -11 -9 -21 -9 -44 1 -17 8 -68 26 -115 41 -137 45 -190 66
-190 76 0 6 -5 7 -10 4 -6 -4 -59 7 -118 23 -59 17 -154 40 -212 51 -58 12
-118 25 -135 31 -55 18 155 3 220 -16z m560 -286 c5 4 5 -2 1 -12 -5 -15 -4
-17 7 -8 8 7 17 9 20 5 13 -12 7 13 -5 26 -11 11 -9 11 9 2 15 -8 20 -17 16
-33 -4 -19 -3 -20 6 -8 10 13 11 13 11 0 0 -13 1 -13 10 0 9 13 10 13 10 0 1
-12 3 -12 14 3 7 9 17 17 21 17 4 0 2 -7 -5 -15 -7 -8 -10 -22 -6 -30 7 -20
46 -20 46 1 0 9 6 14 13 11 13 -5 13 -10 1 -42 -7 -18 -6 -18 9 -6 14 11 18
11 22 -1 6 -16 55 -23 55 -7 0 6 6 9 14 6 8 -3 16 -1 19 6 2 6 6 2 9 -10 4
-16 2 -20 -9 -16 -18 7 -33 -14 -26 -34 4 -11 8 -10 19 4 11 16 13 7 10 -57
-4 -72 -54 -246 -75 -259 -5 -4 -12 -22 -16 -41 -4 -19 -11 -39 -15 -45 -5 -5
-8 -12 -8 -15 3 -18 -25 -79 -34 -74 -7 4 -8 2 -4 -5 10 -15 -13 -43 -27 -34
-6 3 -7 1 -3 -5 10 -16 9 -16 -129 14 -66 14 -145 26 -175 27 -58 2 -301 -10
-335 -17 -11 -2 -40 -7 -65 -11 -25 -3 -90 -17 -145 -30 -239 -56 -235 -56
-235 -3 0 35 31 111 49 122 6 4 11 12 11 17 0 22 -22 -5 -50 -61 -35 -69 -37
-93 -11 -119 19 -19 21 -19 123 6 267 64 295 68 538 79 132 5 156 4 275 -21
72 -14 134 -30 138 -34 13 -13 -21 -34 -40 -26 -30 13 -43 14 -50 3 -3 -7 -1
-8 5 -4 7 4 12 3 12 -2 0 -5 -9 -12 -20 -15 -12 -3 -20 -1 -19 6 3 25 -1 38
-11 32 -5 -3 -10 -11 -10 -16 0 -6 4 -7 10 -4 6 3 7 -1 4 -10 -6 -14 -8 -14
-19 1 -11 16 -13 16 -23 -2 -7 -11 -12 -13 -12 -6 0 7 -5 10 -12 6 -7 -4 -8
-3 -4 5 4 6 11 9 16 6 9 -5 23 25 15 33 -2 3 -11 0 -18 -6 -16 -14 -28 -6 -20
14 10 26 -5 14 -26 -22 -27 -45 -27 -59 -1 -19 20 31 25 26 11 -10 -6 -14 -18
-20 -43 -21 -21 0 -35 4 -35 12 0 7 8 11 17 9 11 -2 23 8 33 29 12 26 12 33 2
33 -7 0 -11 -6 -8 -14 4 -11 -7 -17 -29 -15 -10 2 -29 -25 -33 -45 -2 -10 -4
-20 -4 -22 -1 -2 -9 3 -18 10 -15 12 -16 12 -8 -1 7 -12 6 -13 -6 -4 -8 6 -24
10 -36 9 -13 -1 -23 2 -23 7 0 4 -11 8 -25 8 -22 0 -23 3 -16 23 6 14 6 30 0
38 -9 15 -10 12 -13 -33 -1 -18 -9 -20 -35 -10 -7 3 -17 -1 -22 -9 -5 -8 -9
-9 -9 -4 0 6 -28 10 -64 9 -36 0 -63 3 -60 8 3 4 0 8 -5 8 -6 0 -11 -5 -11
-12 0 -6 -2 -9 -5 -6 -10 10 7 38 19 31 6 -3 5 0 -3 8 -10 11 -15 11 -18 1 -3
-6 -9 -10 -13 -7 -5 3 -12 0 -16 -6 -4 -8 -3 -9 4 -5 7 4 12 1 12 -7 0 -8 -9
-17 -20 -20 -17 -4 -19 -1 -15 21 5 23 4 24 -4 7 -5 -11 -10 -15 -11 -10 0 6
-7 1 -15 -9 -15 -19 -15 -19 -15 2 0 30 -37 24 -57 -9 l-14 -24 5 25 5 25 -18
-24 c-18 -23 -19 -23 -29 -5 -6 10 -12 13 -12 7 0 -7 -8 -13 -17 -14 -16 0
-15 -1 1 -8 18 -7 18 -8 -5 -14 -17 -5 -28 -1 -38 11 -12 15 -12 14 -6 -8 7
-22 6 -23 -9 -11 -9 7 -16 10 -16 5 0 -5 -5 -2 -10 6 -8 11 -9 7 -4 -15 5 -25
4 -28 -7 -17 -19 18 -40 15 -32 -5 4 -11 3 -14 -5 -9 -7 4 -12 2 -12 -3 0 -6
-16 -11 -35 -11 -28 0 -33 -3 -28 -17 4 -11 3 -14 -5 -9 -7 4 -12 2 -12 -4 0
-6 -4 -8 -10 -5 -5 3 -10 0 -10 -7 0 -10 -3 -9 -10 2 -6 9 -5 17 3 23 8 6 7 7
-3 4 -8 -2 -14 -12 -14 -21 1 -9 -4 -16 -11 -16 -7 0 -16 -6 -18 -12 -5 -13
-11 16 -8 39 2 18 -19 27 -32 13 -9 -10 -9 -11 1 -6 6 4 12 2 12 -3 0 -6 -7
-11 -16 -11 -8 0 -13 -4 -9 -10 3 -5 12 -7 20 -3 8 3 15 0 15 -6 0 -6 -4 -11
-10 -11 -5 0 -7 -8 -4 -17 5 -17 5 -17 -9 0 -8 9 -17 17 -21 17 -3 0 -6 -8 -7
-17 0 -14 -2 -15 -6 -3 -3 8 -11 18 -17 22 -12 8 18 67 74 143 57 77 186 209
198 201 6 -4 16 3 23 15 l11 22 18 -23 c10 -13 22 -20 29 -16 18 12 13 34 -11
42 -22 6 -21 8 17 41 32 28 40 31 47 18 5 -8 17 -19 28 -25 28 -15 34 5 9 29
-25 23 -19 35 29 64 l30 17 7 -30 c7 -30 28 -40 41 -19 4 7 -1 16 -10 21 -29
16 -19 46 20 63 42 17 54 13 54 -21 0 -26 9 -31 28 -12 16 16 15 28 -3 28 -28
0 -17 37 14 48 27 10 30 8 41 -19 13 -30 33 -38 46 -18 3 6 -1 18 -10 27 -13
14 -16 14 -16 2 0 -13 -2 -13 -10 0 -13 20 -13 33 0 25 6 -3 10 -2 10 3 0 9
52 32 71 32 5 0 9 -13 9 -30 0 -16 4 -30 9 -30 13 0 33 28 22 32 -23 8 -15 42
14 59 l30 18 2 -26 c2 -35 18 -50 38 -33 14 12 14 15 -5 32 -25 24 -25 24 5
60 14 16 30 50 36 74 8 32 16 44 30 44 11 0 19 6 19 13 0 6 5 4 11 -6 11 -19
-3 -47 -25 -47 -6 0 -5 4 3 9 9 6 10 11 2 15 -10 7 -16 -7 -12 -28 1 -5 -3
-12 -10 -16 -8 -5 -8 -13 -1 -26 9 -16 11 -16 23 4 8 12 17 22 22 22 4 0 5 -5
1 -12 -4 -7 -3 -8 4 -4 7 4 17 17 23 28 9 17 9 20 -4 15 -11 -4 -13 0 -9 16 7
29 32 66 32 48 0 -8 3 -11 7 -8 3 4 12 2 19 -4 8 -7 14 -7 19 1 12 19 26 10
20 -12 -7 -23 -7 -23 9 -3 10 13 15 15 13 5 -2 -8 -2 -12 0 -8 2 4 11 4 19 1
8 -3 14 0 14 7 0 6 -3 9 -7 7 -5 -3 -13 1 -20 8 -10 11 -10 15 0 18 7 3 17 -1
23 -9 6 -8 15 -10 19 -6z m463 -52 c-4 -17 -1 -23 9 -19 8 3 12 0 10 -8 -2 -8
-2 -11 0 -6 7 11 20 8 37 -9 10 -9 16 -11 16 -4 0 7 9 9 23 5 15 -4 18 -3 8 3
-9 7 -10 12 -2 16 6 4 9 12 6 17 -4 5 -1 9 4 9 6 0 11 -7 11 -15 0 -8 7 -15
15 -15 8 0 15 -8 15 -17 0 -12 3 -14 8 -6 4 6 19 9 33 6 20 -4 27 -11 27 -29
0 -13 -4 -24 -9 -24 -5 0 -9 5 -9 11 0 5 -4 7 -10 4 -5 -3 -10 -2 -10 4 0 5 5
11 12 13 8 3 6 7 -5 11 -10 4 -16 2 -14 -5 4 -18 -20 -20 -37 -3 -15 15 -16
14 -15 -17 1 -18 3 -26 6 -17 5 19 43 14 42 -5 -1 -16 -17 -53 -18 -40 -1 6
-7 11 -14 11 -8 0 -35 10 -60 22 -34 16 -44 27 -41 39 4 12 3 13 -3 4 -7 -10
-17 -10 -44 -1 -44 15 -41 11 -34 53 6 27 12 36 27 36 16 0 19 -5 16 -24z
m257 -66 c3 -5 0 -10 -7 -10 -42 -1 79 -39 137 -43 18 -1 29 -7 28 -14 -2 -7
2 -13 8 -13 6 0 9 -7 5 -15 -3 -8 -1 -15 3 -15 5 0 12 6 14 13 3 7 6 5 6 -5 1
-10 16 -24 36 -32 21 -9 35 -22 35 -33 1 -10 7 -31 16 -48 10 -21 13 -23 10
-8 -2 13 1 20 8 19 6 -2 8 -1 4 1 -5 3 -8 12 -8 21 0 15 -2 15 -10 2 -8 -13
-10 -12 -10 3 0 18 8 21 34 11 9 -3 13 -10 10 -15 -3 -5 2 -9 10 -9 19 0 22
-20 4 -20 -7 0 2 -8 21 -17 29 -15 31 -18 15 -24 -17 -6 -15 -8 9 -14 15 -4
27 -11 27 -16 0 -6 -9 -5 -21 1 -11 7 -23 10 -25 7 -3 -2 21 -17 53 -32 46
-23 143 -106 143 -123 0 -6 -54 29 -65 42 -5 7 -18 15 -28 19 -11 4 -21 16
-24 28 -4 16 -8 17 -14 7 -6 -9 -9 -10 -9 -1 0 7 -7 10 -15 7 -10 -4 -15 0
-15 11 0 9 -4 14 -9 11 -13 -8 -34 21 -26 35 5 8 1 9 -13 5 -11 -4 -23 -2 -27
3 -4 7 0 8 10 4 15 -5 15 -3 4 15 -12 19 -14 19 -26 4 -12 -16 -14 -16 -28 3
-9 11 -19 20 -23 19 -15 -2 -42 9 -42 17 0 5 -5 8 -11 6 -6 -1 -14 4 -16 11
-3 7 1 10 10 6 11 -4 13 1 9 23 -4 20 -7 23 -10 10 -3 -13 -10 -16 -25 -12
-17 5 -19 4 -7 -4 33 -23 -1 -18 -78 11 -72 28 -82 35 -83 57 -2 24 -2 24 -6
4 -4 -23 -23 -33 -23 -12 0 5 -4 8 -9 5 -4 -3 -16 0 -25 7 -13 10 -15 18 -7
37 l10 25 2 -25 c1 -17 3 -20 6 -7 2 9 9 17 14 17 5 0 9 -8 10 -17 0 -10 3
-13 5 -6 4 9 17 7 49 -7 25 -11 47 -15 50 -10 3 5 -5 11 -17 15 -62 17 -78 28
-78 51 0 24 14 32 25 14z m-186 -340 c-17 -63 -33 -129 -36 -147 -3 -18 -12
-38 -21 -45 -14 -11 -15 -10 -8 7 4 11 -8 2 -26 -20 -18 -21 -33 -42 -33 -46
0 -9 -100 -132 -122 -150 -15 -13 -15 -11 1 19 9 18 24 36 32 39 7 3 14 9 14
14 0 5 26 44 58 87 64 84 76 102 68 102 -3 0 -16 -16 -29 -35 -13 -20 -45 -57
-70 -84 -25 -27 -44 -51 -41 -53 2 -3 -14 -24 -37 -48 -23 -24 -37 -40 -30
-36 19 12 12 0 -11 -20 -19 -15 -20 -16 -9 -1 12 15 11 17 -5 17 -12 0 -4 12
29 43 48 44 59 61 32 51 -9 -4 -15 0 -15 10 0 9 7 16 15 16 8 0 15 5 15 10 0
6 5 10 11 10 5 0 7 -5 3 -12 -4 -7 -3 -8 5 -4 6 4 9 11 6 16 -6 9 35 63 43 56
2 -3 -1 -14 -9 -23 -13 -16 -12 -17 4 -4 10 8 16 20 13 26 -6 16 42 87 54 80
5 -3 11 -1 15 5 3 5 11 10 16 10 6 0 8 -4 4 -9 -3 -5 -1 -12 5 -16 11 -7 14
28 3 38 -3 4 -15 0 -25 -10 -18 -16 -23 -8 -12 21 3 9 12 16 19 16 7 0 16 7
19 16 6 14 4 15 -9 4 -14 -12 -14 -8 1 23 12 26 20 33 26 25 4 -7 8 -17 8 -23
0 -5 -4 -4 -9 4 -5 8 -8 -1 -7 -27 0 -22 3 -39 7 -36 13 7 18 61 9 98 -7 31
-6 35 6 25 18 -15 23 -10 29 32 5 31 5 32 -5 9 -9 -20 -13 -22 -20 -10 -13 20
-13 33 0 25 6 -3 10 -1 10 5 0 7 7 10 15 6 8 -3 15 0 15 6 0 6 2 9 4 7 3 -3
-9 -56 -25 -119z m50 -139 c30 -119 28 -146 -11 -183 -33 -30 -123 -76 -217
-109 -67 -23 -65 -23 -41 1 11 11 31 21 44 22 14 1 22 6 20 10 -3 5 -11 5 -17
1 -7 -4 -6 0 2 10 9 12 24 16 47 13 22 -3 31 -1 28 7 -2 7 7 13 22 14 14 0 34
9 43 18 10 12 11 15 2 10 -10 -6 -12 -4 -7 4 5 7 15 10 23 6 10 -3 22 3 32 17
18 26 22 68 6 69 -5 0 -1 4 10 9 13 6 15 9 5 9 -12 1 -15 17 -16 81 -1 44 0
79 1 78 2 -2 12 -41 24 -87z m-85 -263 c-5 -7 -2 -9 9 -5 11 4 14 2 10 -9 -6
-17 -20 -18 -25 -2 -2 6 -10 8 -17 4 -9 -6 -8 -11 5 -20 16 -12 15 -14 -7 -29
-26 -19 -43 -22 -34 -7 3 6 2 10 -3 10 -16 0 -22 -13 -11 -27 14 -16 43 -18
33 -2 -4 8 1 9 17 4 19 -5 21 -4 9 5 -12 9 -12 11 -1 8 21 -6 26 -28 6 -28 -9
0 -14 -4 -10 -10 10 -16 -165 -59 -223 -55 -12 1 -22 -2 -22 -7 0 -5 -4 -7 -9
-4 -4 3 -16 0 -25 -7 -13 -10 -2 -12 61 -12 43 1 90 6 104 12 15 7 35 9 46 7
11 -3 44 4 74 16 30 12 70 23 89 25 19 1 29 1 22 -2 -6 -3 -10 -9 -7 -14 4 -5
0 -6 -8 -3 -8 3 -18 0 -23 -7 -4 -8 -3 -10 4 -5 7 4 12 2 12 -4 0 -6 5 -8 10
-5 6 3 10 1 10 -4 0 -6 -5 -11 -11 -11 -5 0 -7 -5 -3 -12 4 -7 3 -8 -5 -4 -6
4 -9 12 -6 17 11 16 -5 10 -83 -36 -42 -25 -73 -45 -68 -45 5 0 33 14 62 31
54 30 93 32 57 2 -15 -12 -13 -12 9 1 22 13 28 13 38 1 6 -7 12 -23 13 -34 1
-16 6 -20 20 -15 14 4 17 3 12 -6 -4 -7 6 -5 23 5 17 10 28 23 25 29 -3 6 -3
8 2 4 4 -4 14 -3 22 3 10 9 13 8 13 -5 0 -11 4 -14 13 -10 9 6 8 3 -1 -8 -8
-10 -20 -14 -29 -11 -11 4 -14 2 -9 -5 8 -14 -30 -36 -50 -28 -8 3 -13 2 -9
-3 5 -9 -28 -22 -86 -35 -15 -3 -33 0 -45 9 -19 15 -19 15 0 8 14 -4 17 -3 12
6 -5 7 -15 9 -25 6 -9 -4 -38 -16 -66 -27 -27 -10 -39 -17 -25 -15 14 3 41 8
60 11 19 3 29 3 21 0 -11 -5 -11 -8 0 -15 10 -6 4 -8 -16 -8 -31 1 -174 -27
-182 -35 -3 -3 14 -5 36 -4 23 0 45 -2 48 -6 4 -3 -16 -6 -43 -6 -30 0 -72
-10 -109 -26 -112 -48 -127 -49 -174 -19 -22 15 -41 32 -41 36 0 5 -24 25 -52
43 -59 38 -169 146 -150 146 7 0 22 -9 34 -20 20 -18 22 -18 34 -2 12 15 13
15 9 -6 -3 -17 0 -22 10 -18 9 3 12 0 8 -10 -3 -8 -2 -14 3 -13 22 4 34 -2 34
-16 0 -8 7 -15 15 -15 8 0 15 -7 15 -15 0 -9 12 -18 30 -21 16 -4 28 -10 25
-14 -2 -4 7 -12 21 -19 14 -6 22 -15 19 -21 -6 -10 57 -25 77 -17 7 3 1 6 -14
6 -17 1 -28 7 -28 15 0 7 -13 16 -30 20 -18 3 -30 12 -30 21 0 8 -8 16 -17 17
-10 0 2 4 27 9 45 7 45 7 -13 6 -31 -1 -57 -1 -57 0 0 1 7 9 16 17 14 15 14
16 0 16 -9 0 -16 -5 -16 -12 0 -15 -13 -1 -16 16 -2 11 9 13 51 9 50 -5 168
10 192 25 6 4 -28 7 -75 7 -101 0 -214 24 -172 36 24 7 23 7 -7 9 -18 1 -37 4
-43 5 -5 1 -14 3 -20 4 -15 2 -12 18 6 25 8 3 13 2 10 -3 -13 -20 58 -28 84
-10 12 9 11 10 -7 6 -13 -3 -23 -1 -23 4 0 5 15 10 33 10 l32 2 -30 4 c-16 3
-35 13 -43 24 -7 10 -19 19 -26 19 -8 0 -20 7 -27 17 -13 15 -12 15 8 5 38
-21 91 -14 258 32 60 17 148 21 125 6 -17 -11 -10 -13 14 -4 9 3 13 10 10 15
-3 5 1 6 9 3 8 -3 38 7 67 21 29 14 59 24 67 21 8 -3 11 -2 8 4 -3 5 7 16 22
24 34 19 36 19 27 4z m425 -404 c65 -26 96 -42 56 -30 -45 13 -88 12 -157 -4
-40 -10 -125 -21 -188 -24 -63 -4 -158 -16 -210 -27 -52 -10 -105 -19 -116
-19 -22 0 -41 27 -28 39 4 3 9 0 11 -6 3 -7 9 -13 14 -13 4 0 6 8 2 18 -6 16
-5 16 13 1 23 -19 58 -14 50 7 -4 11 -2 12 14 4 13 -7 21 -7 26 1 4 8 9 7 15
-2 7 -11 9 -10 9 5 0 15 3 16 14 7 15 -13 66 -13 111 0 17 5 45 10 63 11 22 2
31 7 28 15 -6 15 10 18 19 3 3 -5 11 -10 16 -10 6 0 8 4 5 9 -10 16 42 18 58
2 12 -11 16 -12 16 -2 0 7 6 11 13 8 8 -3 20 -1 28 3 8 5 19 4 26 -2 10 -8 13
-5 13 11 0 26 0 26 79 -5z m53 -273 c-1 -7 7 -9 21 -6 26 7 86 -33 165 -109
66 -63 85 -98 71 -130 -15 -33 -21 -33 -42 2 -31 48 -101 129 -144 167 -24 20
-41 41 -38 45 8 13 -9 20 -25 10 -9 -5 -20 -4 -29 3 -12 9 -13 9 -7 0 4 -8 1
-13 -8 -13 -9 0 -16 8 -16 19 0 21 -26 36 -35 20 -4 -5 -11 -6 -17 -3 -17 10
31 26 55 18 15 -5 17 -3 11 7 -5 10 0 8 16 -3 14 -9 24 -21 22 -27z m-206 -2
c38 -17 80 -40 93 -50 13 -10 26 -17 30 -14 4 2 18 -6 32 -18 14 -12 19 -18
12 -13 -21 14 -15 1 9 -20 12 -10 18 -13 14 -6 -13 23 10 12 39 -18 16 -16 25
-30 20 -30 -5 0 7 -17 27 -37 30 -33 138 -211 138 -229 0 -3 47 -103 105 -221
58 -119 104 -217 103 -218 -3 -3 -72 105 -230 356 -21 33 -38 61 -38 64 -1 12
-132 125 -207 179 -45 32 -80 62 -78 66 3 4 -9 10 -26 14 -17 3 -28 10 -24 16
3 6 -1 13 -9 16 -9 3 -13 10 -10 16 3 5 15 2 27 -8 12 -10 6 -2 -14 18 -40 38
-69 54 -69 36 0 -7 -5 -6 -15 2 -8 7 -12 17 -9 22 3 5 -1 8 -9 6 -9 -2 -16 2
-16 7 -1 6 10 10 23 10 21 1 23 -2 14 -19 -9 -16 -8 -18 7 -12 10 3 28 0 41
-9 76 -49 71 -46 71 -29 0 8 -13 22 -29 30 -16 8 -27 21 -25 27 4 13 -21 36
-38 36 -5 0 -2 -4 8 -10 9 -5 17 -18 16 -27 0 -11 -3 -12 -6 -4 -2 6 -10 9
-15 6 -7 -4 -8 -2 -4 4 3 6 -2 15 -11 21 -11 6 -13 11 -5 11 7 0 10 4 7 10
-10 17 43 -7 100 -45 57 -38 85 -65 67 -65 -6 0 -14 5 -17 10 -3 6 -11 10 -17
10 -5 0 10 -18 34 -39 23 -22 77 -70 118 -108 41 -37 67 -59 57 -47 -9 11 -15
23 -12 25 2 3 -20 27 -50 53 -30 26 -53 51 -50 56 7 11 -85 88 -158 132 -34
21 -67 41 -72 46 -6 5 -17 12 -25 15 -8 3 -10 6 -4 6 6 1 42 -13 80 -30z"/>
<path d="M1828 4124 c-26 -8 -57 -26 -70 -42 -13 -16 -30 -26 -37 -24 -9 3
-11 0 -6 -7 4 -7 8 -38 8 -69 3 -77 29 -114 103 -141 30 -12 61 -21 69 -21 8
0 15 -4 15 -10 0 -5 8 -10 18 -9 10 0 12 3 4 6 -19 7 -4 23 23 23 44 0 74 22
102 76 15 29 30 51 33 49 3 -2 6 5 6 16 0 10 -3 19 -7 19 -4 0 -5 9 -2 20 3
11 0 27 -7 35 -10 12 -9 15 4 15 9 0 16 6 16 13 0 6 5 4 11 -5 11 -20 29 -24
29 -7 0 5 -4 8 -9 4 -5 -3 -13 4 -16 16 -4 12 -10 17 -14 12 -9 -14 -43 -13
-61 2 -21 18 -106 45 -138 44 -15 0 -48 -7 -74 -15z m142 -17 c13 -7 35 -28
48 -47 31 -46 27 -127 -8 -165 -44 -46 -144 -59 -208 -26 -45 23 -61 48 -68
104 -5 38 -2 47 27 84 19 22 48 45 64 51 43 14 116 14 145 -1z"/>
<path d="M1929 4093 c-1 -4 -1 -11 0 -15 0 -5 -13 -8 -29 -8 -39 0 -86 -24
-100 -51 -6 -11 -8 -34 -5 -51 5 -21 3 -33 -6 -39 -12 -7 -11 -9 1 -9 13 0 13
-1 0 -11 -13 -9 -13 -10 0 -6 8 2 14 9 13 15 -2 6 4 9 12 6 8 -4 15 -10 15
-15 0 -15 94 -10 116 6 30 20 37 68 17 113 -9 20 -15 42 -14 49 1 6 -3 14 -9
18 -5 3 -11 3 -11 -2z"/>
<path d="M1075 2703 c-34 -42 -34 -44 -7 -19 41 38 41 24 0 -23 -35 -41 -74
-69 -48 -35 8 10 -9 -3 -38 -31 -28 -27 -55 -50 -59 -50 -4 0 -28 -21 -52 -47
-24 -26 -47 -45 -52 -42 -5 3 -23 -25 -40 -62 -16 -37 -45 -93 -64 -125 -19
-31 -35 -64 -35 -73 0 -24 -53 -126 -62 -120 -10 7 0 46 14 55 7 4 7 9 0 12
-5 4 -16 -11 -25 -33 -10 -27 -11 -39 -4 -37 7 1 12 -8 11 -20 0 -12 4 -19 9
-16 5 3 7 -4 3 -16 -3 -11 -9 -31 -12 -43 -3 -13 -24 -72 -46 -131 -22 -59
-38 -110 -36 -113 3 -2 13 17 23 43 22 61 38 78 29 34 -5 -24 -4 -32 4 -27 6
4 8 14 5 23 -4 9 -2 14 3 10 5 -3 10 11 11 31 1 42 74 222 108 267 12 17 37
59 55 95 18 36 48 86 66 113 19 26 35 53 37 59 1 7 11 20 22 30 13 11 15 17 7
18 -7 0 -10 5 -7 10 4 6 10 8 15 5 4 -3 16 8 26 23 9 15 51 64 92 110 41 45
69 82 63 82 -7 0 1 17 16 38 15 20 20 31 10 23 -19 -15 -24 -2 -5 17 7 7 10
12 7 12 -3 0 -22 -21 -44 -47z"/>
</g>
</svg>
