<?xml version="1.0" standalone="no"?>
<!DOCTYPE svg PUBLIC "-//W3C//DTD SVG 20010904//EN"
 "http://www.w3.org/TR/2001/REC-SVG-20010904/DTD/svg10.dtd">
<svg version="1.0" xmlns="http://www.w3.org/2000/svg"
 width="485.000000pt" height="900.000000pt" viewBox="0 0 485.000000 900.000000"
 preserveAspectRatio="xMidYMid meet">
<metadata>
Created by potrace 1.16, written by Peter Selinger 2001-2019
</metadata>
<g transform="translate(0.000000,900.000000) scale(0.100000,-0.100000)"
fill="#000000" stroke="none">
<path d="M3855 8581 c-14 -29 -23 -56 -20 -61 3 -5 1 -37 -5 -70 -6 -33 -13
-76 -15 -94 -3 -18 -14 -73 -25 -122 -12 -49 -22 -110 -23 -135 -1 -26 -5 -45
-8 -43 -4 2 -7 -6 -7 -19 0 -40 -49 -211 -63 -219 -8 -5 -30 -15 -50 -22 l-35
-15 -96 -293 c-53 -161 -112 -347 -132 -413 -42 -139 -141 -443 -272 -840
-153 -466 -244 -744 -244 -750 0 -4 5 -3 10 0 27 17 252 -196 362 -342 53 -71
168 -262 194 -323 6 -14 21 -47 33 -74 32 -70 68 -184 87 -274 9 -42 17 -84
19 -92 2 -8 4 -32 4 -52 1 -27 5 -38 16 -38 18 0 18 4 0 107 -18 104 -49 223
-74 288 -21 54 -103 227 -124 260 -6 11 -24 39 -39 63 -16 24 -28 45 -28 47 0
7 -43 68 -85 121 -56 70 -274 287 -313 309 -19 11 -32 27 -32 39 0 18 68 230
90 281 5 11 12 34 16 50 9 35 9 35 17 55 10 23 161 480 312 945 217 665 237
730 261 808 14 46 25 63 58 87 90 65 94 70 101 113 3 23 13 78 21 122 8 44 19
107 25 140 6 33 17 88 26 122 9 34 13 69 10 77 -4 9 -3 16 2 16 4 0 12 35 18
78 6 42 18 106 26 142 8 36 13 67 12 68 -2 2 -15 -19 -30 -47z"/>
<path d="M1785 7639 c-27 -4 -86 -26 -131 -48 -128 -64 -224 -180 -260 -316
-18 -65 -17 -117 1 -190 18 -73 75 -195 91 -195 6 0 47 20 90 44 l79 43 1 64
c1 84 0 83 29 117 28 34 88 50 111 31 8 -7 14 -7 14 -1 0 5 -7 15 -15 22 -24
20 -84 5 -120 -30 -17 -16 -35 -30 -39 -30 -5 0 -6 24 -2 53 4 28 8 65 10 80
5 45 79 113 150 137 105 35 191 25 274 -33 62 -44 109 -136 70 -137 -7 0 -4
-7 7 -16 23 -18 88 -13 173 13 70 21 75 43 32 126 -18 34 -39 71 -46 82 -38
53 -119 124 -178 154 -63 32 -73 34 -179 36 -62 2 -134 -1 -162 -6z m247 -20
c73 -16 108 -32 164 -79 27 -22 52 -40 56 -40 4 0 5 -6 2 -13 -2 -7 4 -22 16
-32 31 -28 25 -50 -20 -70 -22 -10 -38 -20 -36 -22 2 -3 23 5 46 17 23 12 46
18 50 13 9 -11 43 -104 39 -107 -6 -4 -134 -26 -153 -26 -9 0 -21 12 -27 27
-18 47 -75 107 -130 138 -50 28 -61 30 -150 29 -59 -1 -105 -6 -120 -15 -13
-7 -30 -14 -38 -15 -24 -4 -100 -86 -122 -131 -28 -57 -27 -174 2 -250 5 -13
9 -28 9 -33 0 -9 -120 -80 -136 -80 -19 0 -52 68 -74 153 -22 82 -22 92 -10
160 16 83 61 168 128 239 46 49 125 102 152 101 8 0 22 6 30 13 35 30 223 44
322 23z"/>
<path d="M1969 7326 c-29 -14 -53 -61 -43 -84 9 -22 11 -29 13 -48 3 -41 101
-103 236 -149 44 -14 104 -38 134 -53 90 -43 232 -198 217 -237 -3 -9 -19 -15
-43 -16 -21 -1 -51 -5 -68 -10 -35 -10 73 -2 114 8 20 5 23 3 18 -11 -4 -10
-1 -19 8 -22 8 -4 15 -17 15 -29 0 -13 6 -26 13 -29 23 -9 -21 -33 -86 -45
-176 -33 -404 -129 -642 -270 -38 -22 -78 -41 -89 -41 -18 0 -18 1 -2 19 17
19 17 19 -3 14 -12 -3 -21 -12 -21 -19 0 -8 0 -17 -1 -21 -1 -13 -32 -43 -44
-43 -14 0 -55 -42 -55 -56 0 -5 -20 -30 -45 -54 -25 -24 -45 -49 -45 -55 0 -5
5 -2 11 8 8 14 14 15 30 6 17 -8 18 -13 8 -25 -7 -8 -24 -14 -38 -12 -34 4
-44 -37 -11 -47 27 -8 21 -27 -11 -36 -16 -5 -18 -7 -6 -8 17 -1 23 -16 9 -25
-19 -12 -35 13 -29 45 6 32 6 33 -8 15 -8 -11 -15 -25 -15 -32 0 -21 43 -66
77 -80 18 -8 33 -19 33 -24 0 -5 -18 -19 -40 -30 -43 -22 -90 -67 -90 -87 0
-7 -19 -17 -42 -23 -93 -23 -147 -44 -241 -90 -123 -62 -332 -201 -420 -280
-64 -59 -232 -258 -245 -290 -3 -8 -16 -28 -28 -45 -12 -16 -49 -82 -81 -145
-102 -199 -182 -535 -171 -720 4 -62 4 -62 6 20 3 144 39 327 99 514 30 90
126 282 178 355 19 27 35 52 35 55 0 16 167 205 229 259 149 130 440 299 582
338 38 10 71 19 75 19 3 0 -6 -14 -20 -31 -15 -17 -34 -45 -43 -63 -16 -31
-53 -228 -52 -276 1 -14 11 32 24 102 12 70 33 148 45 173 21 44 60 95 73 95
3 0 16 -19 30 -42 40 -68 195 -254 301 -363 47 -48 27 -16 -23 38 -26 27 -32
40 -23 46 9 5 5 14 -15 32 -25 22 -26 22 -9 1 27 -32 14 -37 -15 -6 -18 20
-20 28 -11 32 10 3 2 16 -24 43 -20 21 -41 36 -45 34 -7 -5 -109 116 -109 129
0 3 16 -11 36 -32 l36 -37 -32 43 c-18 24 -35 41 -38 38 -7 -7 -32 14 -32 26
0 6 7 5 16 -3 13 -11 13 -7 -2 24 -16 34 -16 37 0 61 24 37 44 32 56 -14 14
-54 168 -258 278 -368 43 -44 43 -44 28 -75 -10 -21 -12 -37 -5 -48 14 -27 11
-33 -8 -18 -11 9 -9 2 6 -19 13 -18 26 -30 29 -27 4 3 0 10 -8 15 -19 12 -8
22 14 14 13 -5 16 -14 12 -33 -3 -14 5 -3 18 24 81 169 334 139 366 -43 10
-61 -8 -112 -56 -159 -37 -35 -52 -43 -99 -48 -30 -4 -70 -4 -88 -1 -44 8
-103 59 -118 101 -7 19 -17 35 -22 35 -5 0 -6 -7 -3 -15 3 -8 9 -21 12 -29 3
-7 -7 -27 -21 -42 -127 -139 -156 -167 -165 -158 -7 7 -3 30 10 69 30 88 28
215 -6 328 -33 105 -49 116 -23 15 27 -102 31 -252 9 -348 -10 -41 -22 -93
-26 -115 -9 -38 -11 -40 -59 -49 -60 -10 -133 -35 -141 -48 -12 -19 6 -20 38
-1 76 45 214 36 413 -27 114 -36 143 -41 236 -43 l107 -2 83 57 c85 57 126 80
166 92 22 7 22 7 6 -39 -12 -37 -21 -47 -44 -52 -16 -3 -34 -12 -40 -20 -10
-11 -8 -12 13 -4 18 7 39 4 79 -10 30 -10 75 -18 102 -19 40 0 47 -3 47 -20 0
-21 -27 -40 -59 -40 -31 0 -26 -18 6 -22 50 -6 35 -52 -18 -53 -18 0 -34 -6
-36 -12 -3 -8 4 -13 16 -13 46 0 31 -38 -20 -50 l-34 -8 38 -1 c39 -1 46 -11
23 -30 -20 -17 -148 -2 -231 27 -38 14 -83 25 -100 25 -16 0 -91 -16 -165 -35
-199 -52 -349 -72 -499 -65 -71 3 -145 2 -172 -4 -54 -12 -114 7 -126 38 -3
10 -16 30 -29 45 -22 27 -26 46 -40 218 -9 108 -15 100 -13 -17 3 -185 34
-275 107 -312 34 -17 60 -19 312 -17 305 3 323 5 525 81 l97 37 87 -21 c146
-36 203 -41 239 -22 22 12 81 122 88 166 2 11 7 31 10 45 7 24 7 23 16 -10 18
-75 19 -224 3 -340 -9 -63 -19 -132 -21 -153 -2 -21 -9 -47 -14 -57 -6 -10
-10 -37 -10 -59 0 -22 -4 -51 -10 -65 -7 -19 -6 -26 2 -26 7 0 3 -6 -7 -14
-11 -8 -24 -12 -30 -11 -5 2 -30 6 -55 9 -25 3 -78 10 -119 16 -69 10 -92 8
-79 -6 7 -7 167 -32 228 -36 54 -4 70 -27 70 -105 0 -28 7 -109 15 -180 8 -70
17 -159 20 -198 7 -70 12 -111 39 -305 8 -58 17 -139 21 -180 3 -41 10 -100
15 -130 11 -60 28 -182 36 -246 l5 -41 -148 -7 c-81 -4 -186 -9 -233 -11 -47
-3 -164 -8 -260 -11 -96 -3 -197 -10 -225 -14 -70 -12 404 3 791 25 l72 4 11
-45 c7 -25 16 -78 21 -119 5 -40 10 -77 11 -81 5 -29 -3 -63 -17 -68 -9 -4
-112 -9 -228 -12 -116 -3 -238 -7 -271 -9 -33 -3 -121 -8 -195 -11 -74 -3
-205 -9 -290 -13 -85 -4 -255 -8 -377 -10 l-223 -2 0 38 c1 21 10 85 21 143
21 111 44 553 54 1040 4 172 10 263 20 305 24 93 98 232 162 306 32 36 63 75
69 85 10 18 13 18 65 2 141 -44 583 -107 603 -87 3 3 -77 17 -177 33 -256 40
-447 77 -447 87 0 5 8 9 18 9 10 0 13 3 6 8 -8 5 -6 29 7 82 10 41 17 80 15
85 -5 12 -10 -5 -27 -77 -6 -32 -16 -58 -20 -58 -4 0 -1 21 7 47 8 25 13 65
13 87 -1 35 -3 31 -14 -29 -20 -117 -49 -176 -134 -276 -145 -169 -172 -257
-176 -569 -1 -118 -6 -258 -10 -310 -6 -87 -13 -205 -14 -272 -1 -16 -6 -28
-12 -28 -7 0 -10 59 -8 190 2 104 0 192 -4 196 -4 4 -7 -79 -7 -185 l0 -192
-22 6 c-73 21 -243 119 -233 135 3 6 -2 10 -12 10 -22 0 -188 140 -176 149 4
3 6 89 3 191 l-6 185 -2 -190 -2 -189 -51 49 c-127 125 -291 384 -338 535 -33
107 -39 124 -40 102 -2 -59 98 -277 201 -437 47 -73 194 -242 269 -309 129
-115 268 -205 374 -241 l60 -21 3 -61 3 -62 -144 72 c-79 40 -184 100 -232
132 -315 212 -582 614 -664 1003 -11 48 -19 75 -20 61 -1 -34 38 -230 48 -244
5 -5 14 -28 21 -50 25 -81 107 -249 147 -301 13 -17 23 -34 23 -39 0 -4 17
-30 37 -59 109 -151 243 -291 367 -381 57 -41 253 -151 311 -174 105 -41 105
-42 99 -114 -7 -85 -11 -114 -23 -172 -14 -65 -30 -235 -24 -251 3 -7 -21 -32
-54 -56 -108 -80 -158 -139 -213 -250 -54 -111 -96 -271 -101 -383 -2 -33 -6
-64 -10 -70 -4 -5 -19 -53 -34 -105 -62 -219 -144 -430 -204 -524 -92 -147
-91 -173 9 -223 36 -18 71 -32 78 -32 7 -1 38 -17 68 -36 30 -19 58 -35 62
-35 5 0 30 -21 56 -46 53 -50 161 -124 183 -124 7 0 13 -4 13 -9 0 -14 -279
-22 -561 -15 -262 6 -338 0 -355 -27 -4 -7 0 -9 12 -5 23 7 1124 9 1174 3 19
-3 188 -6 375 -7 187 -1 373 -5 413 -9 39 -4 72 -4 72 -1 0 6 839 4 1353 -3
264 -3 325 -2 317 9 -7 8 -37 12 -83 13 -260 1 -242 -1 -217 19 16 13 23 30
24 57 1 45 -7 48 -139 66 -151 20 -248 63 -352 156 -98 87 -117 138 -138 363
-9 91 -18 181 -20 200 -27 215 -38 289 -50 313 -8 15 -9 24 -3 21 12 -7 4 69
-9 90 -4 6 -8 29 -10 51 -3 39 -13 97 -34 185 -6 25 -17 79 -26 120 -9 41 -18
82 -20 90 -4 13 -7 156 -4 203 0 9 7 17 15 17 17 0 66 70 66 95 0 11 -14 96
-30 190 -52 293 -59 338 -64 418 l-4 77 61 42 c86 58 127 98 221 213 108 132
140 174 134 181 -3 2 -33 -33 -67 -80 -93 -127 -89 -128 -91 31 -1 76 -2 171
-2 211 0 39 -4 75 -9 78 -5 3 -9 -60 -9 -145 l0 -151 -57 -1 c-44 -1 -52 -3
-33 -9 14 -4 43 -5 64 -2 37 5 39 4 33 -19 -3 -13 -2 -44 3 -68 8 -43 7 -43
-52 -107 -34 -35 -65 -64 -69 -64 -5 0 -9 25 -9 55 0 31 -4 55 -10 55 -7 0 -8
-23 -4 -64 l7 -64 -54 -36 c-38 -25 -55 -32 -60 -23 -13 25 -50 291 -69 502
-5 55 -14 141 -20 190 -33 299 -33 290 -5 427 14 70 25 138 25 151 0 13 3 26
6 30 22 22 22 351 0 422 -20 63 -20 96 -1 121 20 27 18 59 -5 75 -15 10 -21
26 -22 62 -1 26 -4 47 -5 47 -12 0 -21 -54 -13 -74 7 -20 5 -25 -11 -29 -10
-3 -19 -13 -19 -22 0 -13 6 -15 30 -10 26 6 30 4 30 -14 0 -23 -14 -34 -49
-36 -13 0 -26 -6 -29 -13 -3 -9 7 -11 32 -8 30 4 36 1 36 -14 0 -24 -18 -35
-50 -31 -38 4 -41 12 -23 76 9 33 17 67 18 75 1 8 11 44 22 80 11 36 31 99 43
140 12 41 34 118 50 170 16 52 32 107 36 123 3 15 10 29 14 32 10 6 200 -174
263 -251 109 -132 122 -154 120 -203 -1 -42 -1 -43 5 -11 l7 35 29 -55 c51
-95 68 -133 110 -242 31 -78 32 -95 9 -101 -12 -3 -8 -5 9 -6 24 -1 28 -6 37
-53 6 -29 12 -75 14 -103 l2 -50 -40 -5 -40 -6 48 -5 47 -4 0 32 c0 54 -37
223 -65 303 -24 65 -55 132 -130 280 -37 72 -132 207 -186 265 -32 33 -65 70
-76 82 -10 12 -49 42 -88 68 -38 26 -71 48 -73 50 -1 1 4 21 12 43 9 23 12 42
7 42 -6 0 -116 -325 -125 -372 -2 -7 -6 -20 -9 -28 -10 -25 -69 -224 -71 -240
-1 -9 -5 -20 -8 -25 -3 -6 -12 -38 -19 -73 -13 -61 -20 -69 -53 -56 -24 9 -20
45 18 168 19 61 44 145 56 186 13 41 25 79 28 84 3 5 0 6 -7 2 -8 -6 -10 -1
-6 16 10 40 -85 364 -142 484 -14 30 -23 60 -20 67 3 7 -4 19 -15 26 -35 22
-6 33 37 15 83 -34 185 -35 185 -1 0 14 -42 18 -51 4 -4 -5 -6 3 -6 17 0 26
11 34 22 16 11 -18 35 -11 44 12 5 15 2 40 -10 75 -11 29 -19 64 -19 78 0 15
-5 36 -12 48 -28 51 -57 250 -39 261 6 4 11 16 11 27 0 10 6 19 14 19 16 0 26
21 26 56 0 25 -28 88 -60 134 -11 16 -19 53 -23 105 -5 85 -8 94 -68 221 -30
63 -53 95 -102 141 -73 68 -105 85 -278 143 -131 44 -173 70 -197 123 -29 65
19 110 104 97 46 -7 50 -5 34 20 -11 18 -98 23 -131 6z m621 -771 c0 -31 8
-58 25 -85 34 -54 66 -136 59 -153 -3 -10 -20 -13 -54 -12 -61 4 -73 11 -64
38 5 17 4 19 -6 10 -9 -8 -10 -19 -3 -40 8 -24 5 -33 -20 -66 -22 -26 -36 -36
-49 -31 -10 3 -18 1 -18 -5 0 -6 13 -11 28 -11 22 0 32 7 45 35 9 18 28 42 42
51 25 16 27 16 43 0 23 -23 5 -49 -38 -56 -18 -3 -35 -11 -38 -17 -4 -15 14
-17 23 -3 10 16 55 12 55 -5 0 -18 -28 -34 -51 -28 -11 3 -19 0 -19 -6 0 -6
11 -11 25 -11 34 0 59 -40 52 -84 -4 -25 -1 -36 9 -40 19 -7 18 -36 -2 -36 -9
0 -18 9 -21 20 -3 11 -12 20 -19 20 -19 0 -18 -10 3 -25 21 -15 10 -48 -14
-43 -10 2 -17 10 -15 16 4 22 -18 52 -38 52 -11 0 -20 -6 -20 -14 0 -9 7 -12
20 -9 22 6 26 -7 8 -25 -19 -19 -27 -15 -43 21 -8 17 -12 22 -9 9 4 -15 0 -24
-12 -29 -15 -6 -15 -7 4 -14 13 -5 22 -18 23 -31 1 -16 3 -18 6 -6 9 33 99 29
114 -6 8 -18 9 -17 6 9 -2 24 2 30 18 30 16 0 22 -9 28 -45 4 -25 14 -65 22
-90 14 -49 16 -80 4 -80 -14 0 -19 18 -7 23 15 6 -14 10 -59 7 -29 -1 -32 2
-39 37 l-8 38 -6 -30 c-7 -37 -37 -46 -44 -13 -3 13 -8 40 -11 62 -3 21 -8 36
-11 33 -3 -2 -1 -30 4 -61 8 -48 7 -56 -7 -56 -9 0 -22 -10 -30 -21 -10 -18
-15 -19 -22 -8 -12 20 -11 29 4 29 11 0 12 12 4 63 -5 34 -13 69 -18 77 -7 10
-7 3 -2 -20 14 -65 10 -104 -11 -108 -15 -3 -18 0 -13 17 3 12 1 24 -4 27 -5
3 -9 16 -9 30 0 23 -1 24 -16 10 -8 -9 -19 -16 -24 -16 -13 0 -22 18 -10 22 6
2 5 19 -2 47 -9 34 -9 46 0 49 7 2 10 8 6 13 -9 15 -24 0 -24 -24 l-1 -22 -19
24 c-29 34 -24 70 5 42 6 -5 25 -7 43 -4 25 4 32 10 32 27 0 12 -3 16 -8 10
-9 -14 -71 -24 -78 -12 -3 4 1 8 9 8 8 0 17 7 21 15 5 13 2 14 -15 4 -25 -13
-49 -5 -49 16 0 9 -5 13 -11 10 -6 -4 -8 -14 -5 -22 4 -11 2 -13 -9 -9 -8 3
-21 3 -29 0 -14 -5 -13 -12 16 -95 5 -14 36 -52 68 -85 33 -32 58 -64 56 -70
-3 -8 3 -10 17 -6 21 5 21 5 6 -19 -9 -13 -33 -33 -54 -43 -34 -17 -45 -18
-113 -7 -71 11 -182 56 -182 73 0 11 27 10 34 -1 22 -34 240 -57 265 -27 10
12 5 13 -30 5 -75 -17 -249 19 -249 51 0 27 26 106 37 113 20 12 16 36 -5 30
-16 -4 -18 0 -15 29 l4 33 -17 -35 c-10 -19 -23 -38 -29 -43 -6 -4 -1 -9 13
-13 12 -4 22 -10 22 -15 0 -15 -21 -21 -35 -9 -8 7 -23 9 -32 5 -15 -5 -11
-10 20 -26 35 -18 52 -37 24 -26 -8 3 -20 1 -28 -4 -11 -7 -11 -9 4 -9 9 0 17
-4 17 -10 0 -13 -16 -13 -41 0 -11 6 -19 7 -19 2 0 -6 9 -12 20 -15 11 -3 20
-10 20 -16 0 -6 -6 -8 -13 -5 -8 3 -19 -1 -25 -9 -10 -12 -8 -13 13 -9 14 2
25 0 25 -6 0 -17 -17 -23 -43 -17 -21 6 -23 11 -21 53 1 26 0 39 -3 29 -3 -13
-11 -17 -24 -14 -10 3 -24 -2 -31 -10 -11 -14 -10 -15 8 -9 16 5 22 0 29 -26
10 -32 12 -33 57 -31 46 1 67 -14 52 -38 -9 -16 -37 -10 -30 6 3 8 1 15 -4 15
-5 0 -11 -9 -15 -19 -3 -11 -13 -22 -22 -25 -18 -7 -46 12 -37 25 14 23 -7 47
-41 47 -19 0 -38 -4 -41 -10 -3 -5 2 -8 11 -6 10 2 20 -3 23 -10 3 -10 -3 -13
-19 -10 -16 2 -27 13 -34 33 -7 20 -18 31 -32 33 -13 2 -23 -1 -23 -7 0 -6 7
-8 15 -5 10 4 15 0 15 -11 0 -11 -7 -15 -22 -13 -19 2 -24 11 -28 48 -3 29 -8
40 -13 32 -7 -10 -12 -10 -23 -1 -9 7 -14 8 -14 1 0 -6 5 -12 12 -14 15 -5 1
-28 -17 -28 -11 0 -14 10 -10 41 5 36 3 40 -9 30 -11 -9 -15 -9 -19 1 -3 7 -6
3 -6 -8 -1 -13 -9 -24 -21 -27 -24 -6 -28 18 -5 27 8 3 15 15 15 26 0 11 2 20
5 20 10 0 61 -26 73 -37 20 -20 37 -15 20 5 -17 19 -16 48 2 66 8 8 15 6 26
-8 20 -27 18 -36 -8 -37 -19 -1 -20 -2 -5 -6 14 -4 17 -11 13 -27 -7 -28 25
-62 50 -52 11 4 24 -1 36 -14 10 -11 29 -20 41 -20 22 0 21 1 -2 13 -25 12
-46 63 -31 72 5 3 21 0 37 -6 22 -8 26 -8 16 2 -7 7 -13 23 -13 36 0 13 -4 23
-10 23 -5 0 -10 -6 -10 -14 0 -17 -18 -31 -28 -21 -3 3 0 10 8 15 8 5 11 12 7
16 -12 13 -37 -18 -37 -48 0 -17 -6 -31 -16 -35 -23 -8 -33 8 -27 45 4 22 11
32 23 32 10 0 20 7 22 16 3 18 58 30 58 13 0 -12 47 -12 55 0 3 6 -7 9 -22 8
-27 -2 -28 -1 -27 48 1 28 11 81 24 119 12 37 20 69 17 72 -6 6 -57 -132 -57
-155 0 -10 -9 -21 -20 -24 -11 -3 -20 -11 -20 -17 0 -9 4 -9 16 1 13 10 17 10
24 -1 12 -20 3 -30 -26 -30 -19 0 -24 5 -24 26 0 15 -4 23 -10 19 -6 -4 -9
-14 -8 -23 2 -10 -3 -16 -11 -14 -7 1 -19 -3 -27 -9 -11 -9 -14 -9 -14 0 0 8
-8 10 -19 6 -11 -3 -22 -1 -26 5 -3 5 -12 10 -18 10 -7 0 -4 -7 6 -14 23 -17
22 -25 -3 -19 -12 3 -22 -1 -26 -11 -3 -9 -10 -16 -15 -16 -14 0 0 63 16 76
20 15 19 28 -2 45 -15 12 -16 12 -10 -4 9 -24 0 -38 -19 -30 -9 3 -11 10 -6
17 13 16 22 57 11 50 -5 -3 -9 -11 -9 -19 0 -8 -4 -17 -10 -20 -6 -4 -7 5 -4
23 4 18 1 32 -6 37 -9 5 -10 1 -5 -14 4 -12 2 -21 -4 -21 -6 0 -11 10 -11 23
0 41 44 65 53 30 3 -13 10 -5 22 25 10 23 22 42 27 42 5 0 4 -9 -2 -21 -9 -17
-8 -23 6 -33 21 -16 11 -36 -19 -36 -19 -1 -20 -2 -5 -10 9 -6 14 -18 11 -29
-3 -13 2 -20 19 -24 32 -9 58 -9 58 1 0 4 -12 8 -27 7 -39 0 -40 27 -4 84 37
57 41 78 7 36 -20 -24 -26 -27 -31 -14 -12 33 23 70 125 132 181 109 194 117
240 139 96 45 203 88 219 88 15 0 17 -6 10 -52 -4 -29 -12 -89 -18 -133 -19
-150 -59 -237 -115 -247 -36 -7 -98 17 -123 49 -13 15 -23 23 -23 16 0 -6 16
-26 35 -45 63 -59 147 -54 198 13 33 45 46 94 53 214 4 55 8 111 9 125 2 14 3
35 4 47 1 22 24 32 161 67 89 23 90 22 90 -29z m-900 -733 c13 -12 30 -22 37
-22 7 0 27 -9 45 -20 18 -11 43 -20 56 -20 12 0 22 -4 22 -10 0 -5 11 -10 24
-10 14 0 40 -9 58 -19 l33 -19 58 28 c53 25 61 27 85 14 76 -39 203 -41 254
-4 35 26 39 25 72 -9 l29 -30 -75 -93 c-178 -221 -202 -242 -279 -251 -29 -4
-69 -16 -91 -27 -21 -11 -44 -20 -50 -20 -22 0 -243 241 -305 335 -54 80 -98
168 -86 172 6 2 19 10 29 18 25 19 55 15 84 -13z m798 -194 c11 -29 26 -71 33
-93 6 -22 16 -45 21 -52 5 -6 11 -24 13 -40 2 -15 15 -64 28 -108 58 -189 67
-222 67 -240 0 -11 -11 -55 -24 -99 -13 -45 -30 -102 -37 -128 -7 -27 -18 -48
-25 -48 -6 0 -32 -11 -58 -25 -26 -14 -52 -25 -59 -25 -12 0 -177 212 -177
227 0 4 14 28 31 53 28 41 30 50 25 102 -3 31 -14 75 -26 97 l-20 41 93 113
c98 119 123 154 122 175 0 24 -20 13 -40 -21 -11 -19 -55 -72 -97 -117 -43
-45 -78 -87 -78 -94 -1 -6 -8 9 -16 32 -13 38 -14 46 -1 60 73 84 187 227 187
233 0 26 20 2 38 -43z m-593 -674 l25 -16 -28 -36 c-15 -20 -46 -54 -69 -75
-24 -22 -43 -44 -43 -49 0 -17 15 -4 104 92 49 52 93 97 100 99 14 5 -35 -52
-125 -145 -60 -62 -71 -70 -98 -66 -33 5 -44 22 -33 51 6 16 131 160 140 161
1 0 14 -7 27 -16z m130 -4 c3 -5 32 -10 64 -10 52 0 61 -3 76 -26 9 -14 52
-68 96 -119 43 -52 79 -96 79 -99 0 -3 -17 -13 -37 -22 -30 -12 -60 -15 -138
-11 -83 4 -121 12 -225 47 -69 23 -126 43 -128 45 -4 4 191 205 200 205 4 0
10 -4 13 -10z m342 -108 c64 -81 70 -92 53 -97 -11 -4 -20 -11 -20 -16 0 -25
-31 -2 -85 61 -33 39 -64 70 -69 70 -9 0 6 -18 82 -102 19 -20 32 -42 30 -48
-4 -13 -163 174 -163 192 0 6 7 13 15 15 12 4 12 2 2 -5 -10 -7 -10 -11 3 -22
12 -10 15 -10 15 3 0 16 39 47 55 43 5 -1 42 -43 82 -94z m369 -2763 c46 1 84
-1 84 -4 0 -4 -7 -13 -15 -21 -8 -8 -19 -22 -24 -32 -8 -14 -11 -14 -27 -2
-16 14 -16 13 -5 -7 10 -20 6 -29 -41 -84 -29 -34 -63 -68 -74 -76 -19 -12
-22 -12 -27 7 -7 27 50 97 66 81 6 -6 15 -11 21 -11 5 0 2 6 -7 13 -16 11 -14
17 24 72 29 43 32 51 11 27 -21 -24 -34 -31 -48 -25 -17 6 -17 5 -5 -10 11
-14 7 -24 -35 -72 -33 -39 -50 -53 -58 -45 -15 15 -26 12 -20 -5 4 -8 15 -15
25 -15 10 0 19 -5 19 -11 0 -8 -12 -9 -37 -4 -78 14 -96 14 -43 0 30 -8 82
-18 116 -21 50 -6 62 -4 67 9 3 9 2 19 -3 22 -6 4 -10 -1 -10 -9 0 -9 -9 -16
-20 -16 -17 0 -12 10 32 63 29 34 63 74 74 90 12 15 24 27 27 27 9 0 13 -70 4
-73 -6 -2 -5 -11 1 -23 6 -12 9 -30 6 -41 -3 -11 -1 -37 5 -57 l10 -37 -72 6
c-114 10 -247 34 -315 56 -69 23 -104 21 -57 -3 31 -16 149 -48 177 -48 10 0
20 -18 30 -52 13 -48 17 -53 44 -55 26 -2 27 -1 5 5 -17 5 -28 20 -37 51 l-13
44 67 -7 c37 -3 90 -6 118 -6 56 0 63 -7 68 -75 1 -16 7 -48 13 -70 15 -54 34
-134 39 -165 3 -14 7 -31 9 -37 2 -7 -7 -25 -20 -39 -24 -26 -26 -26 -45 -9
-12 11 -20 13 -20 6 0 -6 7 -14 15 -17 21 -8 19 -27 -5 -49 -17 -15 -22 -16
-37 -4 -16 13 -17 12 -5 -3 12 -15 10 -19 -16 -32 -38 -19 -47 -10 -22 22 11
13 20 30 20 36 -1 6 -8 -1 -16 -16 -15 -28 -38 -36 -49 -18 -3 6 -11 10 -17
10 -7 0 -2 -9 10 -20 26 -25 26 -27 7 -46 -12 -12 -19 -13 -37 -3 -22 12 -22
11 -5 -8 31 -36 31 -36 -106 -98 -21 -10 -36 -20 -33 -22 6 -6 196 84 196 92
0 4 -7 5 -15 1 -8 -3 -15 -1 -15 4 0 5 14 8 30 8 58 -2 30 -28 -90 -85 -100
-47 -155 -66 -173 -60 -6 3 4 12 23 20 21 10 28 16 17 17 -11 0 -17 6 -14 13
2 6 13 11 23 10 17 -3 18 -2 2 9 -15 11 -14 16 8 60 24 47 37 57 49 38 3 -5
12 -10 18 -10 7 1 2 9 -10 19 -13 11 -23 22 -23 25 0 6 110 232 124 254 5 9
13 6 27 -12 16 -20 17 -29 8 -55 -13 -36 -15 -37 -43 -14 -20 16 -20 16 0 -6
l22 -23 -23 -52 c-12 -28 -39 -86 -59 -129 -20 -43 -36 -81 -36 -83 0 -3 9 0
20 6 11 6 20 19 20 28 0 10 6 26 14 37 7 11 23 46 35 78 26 70 49 116 67 135
8 7 14 21 14 30 0 9 9 28 19 41 18 24 20 24 45 8 14 -10 26 -19 26 -21 0 -2
-14 -34 -30 -72 -17 -37 -28 -69 -26 -71 4 -5 96 170 96 182 0 15 -18 2 -23
-16 l-6 -22 -29 24 c-28 23 -29 25 -15 63 16 48 8 60 -17 26 -17 -23 -21 -24
-42 -11 l-23 14 23 -26 c23 -24 23 -26 6 -52 -17 -26 -17 -26 -37 -6 -19 19
-19 21 -3 61 23 58 4 41 -28 -25 -29 -59 -36 -64 -56 -40 -7 8 -18 15 -24 15
-6 0 2 -12 17 -25 27 -24 27 -25 12 -56 l-17 -31 -24 23 c-29 27 -32 14 -4
-16 23 -24 23 -25 -38 -143 l-33 -63 -19 23 c-11 13 -19 18 -20 12 0 -6 7 -17
15 -24 17 -14 20 -46 4 -55 -5 -4 -19 1 -30 11 -20 18 -21 18 -8 -9 7 -15 17
-27 22 -27 5 0 4 -7 -3 -15 -21 -26 -35 -17 -52 33 -33 95 -32 125 7 213 19
44 35 83 35 87 0 14 -29 -36 -53 -93 l-25 -59 -6 64 c-4 36 -8 109 -10 163 -3
88 -1 97 15 97 10 0 22 -8 28 -17 5 -10 12 -15 16 -11 3 3 1 15 -6 27 -10 14
-20 19 -36 15 -22 -6 -23 -4 -23 64 0 39 -10 114 -21 169 -12 54 -22 108 -23
121 0 12 -4 22 -7 22 -16 0 -17 -16 -3 -49 25 -59 43 -213 43 -364 1 -319 36
-463 193 -787 154 -317 162 -337 179 -450 8 -54 8 -54 4 15 -2 41 -14 99 -29
141 -25 69 -122 283 -171 376 -29 56 -31 65 -8 47 14 -12 14 -10 -2 21 -20 40
-31 54 -22 27 5 -13 3 -17 -5 -15 -7 3 -13 16 -13 29 0 46 30 24 77 -56 25
-44 61 -100 80 -125 18 -24 35 -49 37 -55 2 -5 23 -32 46 -60 49 -58 65 -87
65 -112 -1 -12 -7 -6 -20 17 -11 19 -35 53 -55 75 -41 45 -37 29 8 -28 16 -21
44 -72 62 -113 40 -92 46 -98 33 -39 -5 26 -7 49 -4 53 14 13 26 -17 32 -78 5
-62 5 -64 -12 -45 -16 20 -16 20 -11 -1 3 -16 -2 -25 -19 -32 -12 -6 -28 -21
-35 -33 l-12 -22 28 21 c34 27 39 27 64 1 l20 -21 -5 23 c-5 24 -5 24 11 4 17
-19 17 -19 10 10 -4 17 -9 39 -11 50 -2 11 -6 31 -9 45 -3 14 -7 48 -11 75 -3
28 -9 82 -13 120 -4 39 -6 73 -4 77 2 4 20 10 41 14 20 4 53 15 73 25 l37 18
8 -67 c4 -37 8 -73 8 -81 1 -8 -28 -24 -69 -39 -38 -15 -62 -28 -53 -30 9 -2
40 7 68 19 28 12 52 20 55 18 2 -3 8 -24 14 -48 l9 -43 -64 -41 c-35 -22 -62
-43 -59 -45 2 -2 31 14 64 36 34 22 63 36 66 32 3 -5 -26 -30 -65 -56 -39 -26
-68 -49 -66 -51 7 -7 47 16 93 54 24 19 47 32 51 29 11 -6 9 -36 -3 -56 -7
-13 -6 -13 7 -2 13 10 18 10 24 1 4 -7 3 -14 -2 -16 -9 -3 -110 -76 -124 -90
-2 -2 8 1 24 6 15 6 48 27 72 47 41 34 45 35 60 19 13 -13 101 -80 133 -102 2
-1 -7 -12 -20 -23 l-24 -21 27 16 c26 16 30 16 90 -13 35 -17 88 -33 118 -37
123 -14 190 -27 201 -41 42 -51 -129 -67 -426 -39 -188 18 -198 18 -312 0
-133 -21 -138 -33 -6 -15 109 14 230 14 320 -1 77 -12 326 -16 361 -5 12 4 22
3 22 -2 0 -23 -343 -40 -545 -27 -27 2 -107 4 -177 5 l-127 1 -7 35 c-4 20 -4
66 0 102 5 52 3 63 -5 48 -7 -11 -10 -50 -7 -102 4 -80 3 -84 -16 -84 -255 -2
-437 -1 -443 3 -4 3 -192 5 -417 6 -224 1 -412 4 -417 7 -5 3 -9 13 -9 22 0 9
-28 40 -63 69 -115 96 -135 118 -172 192 -20 41 -53 98 -73 129 -47 71 -49
131 -7 212 34 66 174 299 214 355 15 22 57 87 92 145 35 58 70 114 76 125 7
11 20 33 29 50 10 16 34 53 56 81 21 28 38 54 38 59 0 4 17 35 37 69 52 87
134 193 238 309 19 22 35 43 35 47 0 16 21 22 93 25 40 2 117 6 172 9 55 3
165 9 245 12 160 7 200 10 207 18 3 3 10 3 15 -1 6 -3 48 -5 94 -4z m-842 -38
c4 -5 3 -11 -1 -13 -5 -1 -35 -35 -68 -74 -38 -43 -66 -69 -75 -66 -8 3 -30
16 -48 30 -18 14 -35 22 -38 20 -3 -3 15 -19 40 -34 25 -16 45 -31 46 -34 0
-3 -22 -29 -49 -59 l-49 -55 -44 35 c-103 84 -331 220 -355 212 -6 -2 -7 -20
-3 -44 l8 -41 -56 -25 c-59 -26 -82 -25 -82 6 0 12 28 39 77 76 78 58 112 78
100 58 -4 -6 0 -14 9 -17 8 -3 12 -2 9 4 -10 15 188 13 204 -2 11 -10 13 -10
7 0 -5 9 4 12 36 13 24 0 56 2 71 4 23 3 26 1 17 -10 -8 -10 -8 -15 1 -21 7
-4 9 -3 6 3 -11 17 21 39 35 25 14 -14 7 -23 -45 -50 -24 -13 -33 -22 -23 -25
7 -3 19 0 25 6 8 8 17 5 34 -11 l23 -22 65 47 c35 26 66 50 69 54 5 6 29 17
42 18 4 1 9 -3 12 -8z m-553 -92 c15 -10 31 -19 37 -19 5 0 15 -7 22 -15 7 -8
16 -13 20 -10 5 3 10 1 12 -3 1 -5 35 -30 73 -55 109 -73 124 -87 91 -87 -8 0
-41 -11 -73 -24 -32 -13 -82 -33 -110 -44 l-53 -21 0 39 c0 35 3 40 28 46 40
9 150 63 130 63 -10 1 -18 6 -18 11 0 6 -5 10 -11 10 -5 0 -7 -5 -4 -10 6 -10
-87 -60 -112 -60 -7 0 -17 8 -23 18 -8 14 -9 12 -4 -9 5 -23 2 -27 -22 -33
-29 -8 -39 -2 -47 29 -3 11 -5 5 -4 -13 2 -33 1 -34 -101 -78 -57 -24 -113
-51 -125 -59 -27 -19 -47 -19 -47 -1 0 8 -5 18 -11 22 -8 5 -10 -1 -5 -19 4
-16 2 -27 -7 -30 -6 -2 -8 -8 -4 -13 4 -4 17 -3 27 4 35 21 50 15 50 -21 0
-30 -5 -35 -56 -60 -31 -16 -54 -30 -52 -33 3 -2 38 11 79 31 46 22 82 34 96
30 17 -4 21 -2 17 10 -4 8 -1 15 5 15 6 0 35 11 65 25 30 14 57 25 60 25 3 0
6 -12 6 -27 1 -25 2 -26 11 -10 6 10 8 25 5 32 -3 8 3 19 14 25 25 13 38 13
43 -2 2 -7 3 -5 2 4 -2 12 8 21 32 29 40 13 40 13 45 -25 3 -32 7 -29 -124
-91 -37 -17 -66 -24 -80 -20 -15 4 -19 3 -10 -3 9 -6 -10 -18 -64 -41 -61 -26
-79 -30 -85 -19 -7 10 -9 9 -9 -4 0 -19 -77 -52 -106 -46 -24 5 -22 43 9 163
18 72 27 90 50 103 24 15 29 15 37 2 5 -8 6 -18 4 -22 -3 -4 0 -8 5 -8 14 0
14 23 0 37 -8 8 15 23 83 56 171 82 199 92 209 76 7 -11 9 -11 9 4 0 10 15 24
38 34 46 22 46 22 40 28 -6 7 -98 -32 -284 -121 -85 -40 -93 -41 -87 -10 3 13
0 27 -7 31 -8 5 -11 -3 -9 -30 3 -27 -1 -40 -16 -51 -28 -21 -34 -17 -25 19
10 45 35 82 66 95 37 18 42 15 47 -20 4 -30 4 -29 3 5 l0 38 99 44 c55 25 101
45 102 45 2 0 3 5 3 10 0 7 -6 7 -19 0 -31 -16 -41 -12 -41 16 0 23 3 25 27
19 15 -3 39 -15 54 -26z m259 -295 c0 -10 -6 -14 -15 -11 -8 4 -17 2 -20 -3
-3 -4 -1 -10 4 -12 5 -1 5 -12 1 -24 -5 -13 -37 -35 -83 -56 -109 -52 -115
-53 -127 -26 -10 22 -10 22 -7 -4 4 -25 -1 -28 -148 -87 -123 -49 -163 -61
-209 -61 -31 0 -56 3 -56 8 0 8 78 42 97 42 6 0 13 -3 16 -7 2 -5 2 -3 1 4 -2
6 14 17 34 24 20 6 42 15 47 19 6 4 39 17 75 30 36 13 71 28 78 33 17 13 111
57 122 57 5 0 11 -10 13 -22 3 -15 4 -14 2 5 -1 24 5 31 44 49 36 17 95 43
129 57 1 1 2 -6 2 -15z m-72 -123 c-7 -12 -16 -21 -20 -21 -5 0 -8 -9 -8 -20
0 -11 -4 -20 -9 -20 -5 0 -12 -13 -16 -29 -6 -30 -28 -46 -55 -42 -13 2 -13 1
0 -8 20 -14 12 -19 -56 -38 -43 -13 -59 -14 -62 -5 -2 7 -8 12 -14 12 -6 0 -8
-7 -4 -15 3 -8 0 -15 -7 -15 -7 -1 -1 -7 13 -15 14 -7 27 -10 30 -7 12 17 41
34 69 42 l31 9 -18 -24 c-9 -14 -24 -27 -32 -30 -8 -2 -21 -19 -28 -37 -26
-64 -47 -103 -70 -127 -23 -23 -25 -23 -59 -7 -20 9 -38 14 -41 11 -8 -8 3
-16 42 -29 l35 -12 -21 -43 c-12 -24 -32 -55 -45 -69 -13 -14 -23 -32 -23 -40
0 -8 -11 -29 -23 -46 -13 -17 -26 -35 -28 -41 -2 -5 -15 -27 -28 -47 -20 -33
-27 -37 -49 -32 -61 15 -61 21 16 156 l44 78 28 -15 c42 -22 50 -18 13 5 -40
24 -40 32 -7 90 57 98 95 173 91 176 -17 17 -312 -562 -323 -633 -9 -59 -35
-83 -77 -73 -52 12 -81 26 -115 55 -18 15 -32 22 -32 16 0 -27 119 -91 171
-91 20 0 27 -4 23 -14 -6 -17 54 -69 133 -115 32 -19 82 -49 112 -68 29 -19
68 -37 86 -40 19 -3 42 -13 52 -22 10 -9 41 -34 68 -56 80 -63 82 -69 27 -75
-130 -14 -245 29 -382 142 -93 76 -215 156 -249 164 -36 9 -111 53 -111 65 0
6 3 9 8 7 4 -2 25 -12 47 -22 192 -88 261 -128 330 -192 57 -54 191 -141 201
-131 3 2 -17 17 -43 32 -55 33 -87 55 -198 144 -71 56 -176 115 -272 151 -17
6 -39 20 -49 31 -20 22 -10 54 36 108 l28 33 39 -29 c21 -17 58 -36 83 -43 37
-12 41 -15 21 -18 -14 -2 -49 9 -84 27 -33 17 -53 24 -46 15 18 -22 78 -50
121 -57 35 -5 36 -4 43 31 4 20 17 63 30 95 23 57 23 58 2 40 -18 -16 -20 -16
-14 -1 26 73 43 204 53 418 4 69 9 128 13 132 11 12 231 20 231 8 0 -5 9 -2
19 8 36 32 47 40 72 47 13 4 56 23 96 41 59 28 71 37 65 52 -6 15 -7 15 -10 1
-4 -22 -114 -71 -138 -62 -11 4 -15 3 -11 -4 4 -6 -5 -15 -21 -20 -31 -12
-169 -17 -159 -7 4 4 76 36 160 70 110 45 155 59 165 52 9 -8 11 -7 7 4 -4 10
11 22 52 40 32 14 59 25 61 23 2 -2 -3 -12 -10 -24z m1396 -228 c13 -111 15
-105 -29 -119 -33 -11 -35 -13 -9 -9 16 2 36 5 44 7 14 3 22 -33 24 -106 l1
-40 -70 -17 c-38 -10 -73 -15 -77 -11 -4 4 -8 35 -9 69 -1 34 -6 68 -11 75
-10 15 -5 -109 11 -257 17 -166 21 -266 11 -260 -5 3 -12 28 -16 55 -4 28 -11
47 -16 44 -6 -4 -30 13 -54 37 -40 39 -72 85 -172 244 l-32 50 23 9 c80 33
165 77 185 96 13 12 30 19 38 16 8 -3 12 -2 9 4 -3 5 24 39 60 75 36 37 65 73
65 81 0 8 4 14 9 14 4 0 11 -26 15 -57z m-2039 -160 c-3 -38 -8 -95 -11 -128
-9 -113 -39 -285 -49 -285 -18 0 -85 61 -85 76 0 9 9 39 21 67 63 157 109 288
109 313 0 13 5 24 11 24 7 0 8 -23 4 -67z m2085 -187 c0 -18 3 -47 6 -64 6
-30 6 -30 -72 -55 -43 -14 -80 -24 -82 -23 -1 2 -5 33 -9 68 -6 74 -9 71 80
84 26 3 50 10 53 15 12 20 24 7 24 -25z m-1946 -181 c29 -7 30 -12 17 -53 -8
-22 -11 -57 -8 -80 4 -28 2 -42 -7 -45 -28 -11 -124 -19 -129 -10 -3 4 1 23 8
41 12 28 19 32 52 32 21 0 45 5 53 10 10 6 -2 7 -37 3 -55 -6 -62 0 -44 35 5
9 15 32 22 50 10 27 16 32 33 27 12 -3 29 -8 40 -10z m40 -212 c8 -16 24 -38
36 -51 28 -30 72 -126 59 -130 -5 -2 -17 2 -25 9 -11 9 -17 10 -22 2 -5 -8
-22 -1 -50 18 -23 16 -59 38 -80 49 -48 26 -98 67 -90 76 4 3 24 -7 45 -22 26
-19 32 -22 21 -8 -26 29 -23 34 20 34 21 0 47 7 58 16 18 15 19 15 0 9 -42
-13 -133 -17 -140 -6 -5 7 8 11 41 12 26 0 57 4 68 9 33 14 44 11 59 -17z"/>
<path d="M1325 5548 c-10 -6 -47 -21 -82 -34 -237 -86 -564 -387 -695 -639
-95 -182 -154 -358 -174 -515 -22 -182 -1 -589 32 -619 4 -3 4 6 0 21 -37 158
-31 511 14 713 29 132 95 293 170 414 28 44 50 85 50 91 0 5 5 10 10 10 6 0
10 7 10 15 0 8 4 15 9 15 5 0 31 28 58 63 63 79 156 175 208 213 22 16 46 35
54 42 24 23 245 149 293 167 44 16 76 40 67 49 -2 3 -13 0 -24 -6z"/>
<path d="M2027 5284 c-46 -30 -67 -75 -67 -142 0 -64 44 -119 108 -133 139
-31 233 89 171 217 -40 83 -134 109 -212 58z m150 -14 c47 -28 66 -64 64 -116
-2 -59 -23 -98 -62 -118 -38 -19 -65 -20 -126 -5 -107 27 -112 178 -8 236 49
28 90 29 132 3z"/>
<path d="M2050 5190 c-44 -44 -10 -120 54 -120 66 0 104 89 54 124 -31 22 -84
20 -108 -4z"/>
<path d="M2956 5063 c-3 -98 -9 -394 -12 -658 -3 -264 -7 -502 -8 -528 -2 -26
1 -44 4 -40 4 4 11 188 14 408 4 220 9 534 12 698 4 163 4 297 2 297 -3 0 -8
-80 -12 -177z"/>
<path d="M1660 4265 c0 -8 6 -14 13 -12 7 1 11 -7 10 -18 -1 -19 -1 -19 12 -1
14 18 17 18 122 -3 59 -11 124 -23 143 -26 19 -3 60 -10 90 -16 149 -28 296
-47 304 -38 6 5 8 9 5 9 -2 0 -71 12 -154 26 -82 14 -188 31 -235 39 -47 8
-129 23 -184 34 -117 25 -126 25 -126 6z"/>
<path d="M3580 4157 c0 -335 -77 -627 -227 -863 -7 -10 -21 -35 -32 -54 -26
-47 -193 -255 -245 -305 -55 -53 -123 -112 -180 -155 -25 -19 -45 -41 -46 -48
0 -17 5 -14 115 69 191 142 404 422 511 672 79 183 123 388 131 603 6 151 1
204 -17 204 -6 0 -10 -49 -10 -123z"/>
<path d="M2367 3948 c-36 -112 -80 -252 -97 -313 -18 -60 -38 -128 -45 -150
-7 -22 -34 -107 -60 -190 -26 -82 -59 -188 -75 -235 -16 -47 -40 -125 -54
-175 -14 -49 -32 -110 -40 -135 -18 -57 -28 -100 -22 -100 5 0 58 162 86 265
12 44 26 84 31 90 5 5 9 17 9 27 0 10 4 26 9 36 5 9 36 103 69 207 34 105 81
253 106 330 52 164 80 256 82 270 0 6 8 26 17 46 9 19 17 48 19 65 4 39 18 53
43 43 21 -8 171 -29 213 -29 51 0 14 8 -83 19 -55 7 -111 14 -124 17 -24 5
-25 11 -5 88 3 15 2 26 -4 26 -5 0 -39 -91 -75 -202z"/>
<path d="M1574 4010 c-5 -5 -126 -69 -269 -141 -411 -207 -515 -262 -515 -271
0 -4 10 -4 23 1 50 19 632 315 635 322 2 5 11 9 20 9 10 0 26 7 36 15 11 8 27
15 37 15 9 0 24 12 34 26 17 26 17 42 -1 24z"/>
</g>
</svg>
